<?xml version="1.0" standalone="no"?>
<!DOCTYPE svg PUBLIC "-//W3C//DTD SVG 1.1//EN" "http://www.w3.org/Graphics/SVG/1.1/DTD/svg11.dtd" >
<svg xmlns="http://www.w3.org/2000/svg" xmlns:xlink="http://www.w3.org/1999/xlink" version="1.1">
<metadata>
Created by FontForge 20201107 at Wed May  8 04:01:00 2024
 By 
(c) 2009 exljbris Font Foundry. All rights reserved.
</metadata>
<defs>
<font id="Calluna-Bold" horiz-adv-x="1064" >
  <font-face 
    font-family="Calluna"
    font-weight="700"
    font-stretch="normal"
    units-per-em="2048"
    panose-1="0 0 8 0 0 0 0 0 0 0"
    ascent="1536"
    descent="-512"
    x-height="940"
    cap-height="1374"
    bbox="-326 -520 2449 1958"
    underline-thickness="102"
    underline-position="-204"
    unicode-range="U+0020-FB06"
  />
<missing-glyph horiz-adv-x="1413" 
d="M246 301l82 -84l379 381l378 -381l82 84l-379 379l379 381l-80 84l-380 -383l-381 383l-80 -84l379 -381zM92 -109v1584h1229v-1584h-1229z" />
    <glyph glyph-name="f_b" unicode="fb" horiz-adv-x="1767" 
d="M66 -6v69q116 14 116 134v604h-125v88l125 45v63q0 146 63 264t169 183t231 65q136 0 227 -39q73 17 126 32.5t70 22.5l17 7l7 -6q-21 -74 -21 -232v-282q0 -62 -4 -123t-4 -64q94 131 268 131q92 0 166 -37.5t120 -100.5t70.5 -141t24.5 -163q0 -100 -35 -193.5
t-102.5 -172t-179.5 -126t-252 -47.5q-64 0 -188.5 12.5t-159.5 12.5l-7 6q21 72 21 205v1016q0 37 -2 53q-41 8 -88.5 39.5t-87 57.5t-66.5 26q-66 0 -93.5 -84t-27.5 -277v-110h236l-21 -125h-190l-25 -25v-585q0 -27 -2.5 -55t-5.5 -42l-2 -14l193 -18l-9 -62zM1071 98
q35 -20 98 -20q129 0 200 105t71 263q0 67 -13.5 127.5t-41 111t-75 80.5t-108.5 30q-55 0 -131 -31v-666z" />
    <glyph glyph-name="f_f_b" unicode="ffb" horiz-adv-x="2398" 
d="M696 -6v69q117 14 117 134v614h-344l-25 -25v-589q0 -27 -2.5 -55t-5.5 -42l-2 -14l131 -18l-8 -62l-491 -12v69q116 14 116 134v604h-125v88l125 45v27q0 214 137 351.5t359 137.5q76 0 156 -20t114 -66q63 69 148 107t180 38q136 0 227 -39q73 17 126 32.5t70 22.5
l17 7l6 -6q-20 -74 -20 -232v-282q0 -62 -4 -123t-4 -64q94 131 268 131q92 0 166 -37.5t120 -100.5t70.5 -141t24.5 -163q0 -100 -35 -193.5t-102.5 -172t-179.5 -126t-252 -47.5q-64 0 -189 12.5t-160 12.5l-6 6q21 72 21 205v1016q0 37 -2 53q-41 8 -88.5 39.5t-87 57.5
t-66.5 26q-66 0 -93.5 -84t-27.5 -277v-110h236l-21 -125h-190l-25 -25v-585q0 -27 -2.5 -55t-4.5 -42l-3 -14l192 -18l-8 -62zM1702 98q35 -20 98 -20q129 0 200 105t71 263q0 67 -13.5 127.5t-41 111t-75 80.5t-108.5 30q-55 0 -131 -31v-666zM444 995v-67h369v69
q0 115 39 213q-34 1 -72.5 22.5t-68 47t-68.5 46t-74 20.5q-68 0 -96.5 -81t-28.5 -270z" />
    <glyph glyph-name="f_f_h" unicode="ffh" horiz-adv-x="2463" 
d="M696 -6v69q117 14 117 134v614h-344l-25 -25v-589q0 -27 -2.5 -55t-5.5 -42l-2 -14l131 -18l-8 -62l-491 -12v69q116 14 116 134v604h-125v88l125 45v27q0 214 137 351.5t359 137.5q76 0 156 -20t114 -66q63 69 148 107t180 38q136 0 227 -39q73 17 126 32.5t70 22.5
l17 7l6 -6q-20 -74 -20 -232v-356q0 -62 -4 -122.5t-4 -63.5q156 204 358 204q113 0 178.5 -67t65.5 -209v-483q0 -27 -2.5 -54.5t-5.5 -40.5l-2 -14l163 -20l-8 -62l-499 -12v69q92 13 92 134v403q0 103 -26 139.5t-89 36.5q-119 0 -217 -76v-503q0 -27 -2.5 -55t-5.5 -42
l-2 -14l129 -18l-9 -62l-489 -12v69q117 14 117 134v1030q0 37 -2 53q-41 8 -88.5 39.5t-87 57.5t-66.5 26q-66 0 -93.5 -84t-27.5 -277v-110h236l-21 -125h-190l-25 -25v-585q0 -27 -2.5 -55t-4.5 -42l-3 -14l131 -18l-8 -62zM444 995v-67h369v69q0 115 39 213
q-29 0 -59 14t-56 34l-52 40t-56.5 34t-59.5 14q-68 0 -96.5 -81t-28.5 -270z" />
    <glyph glyph-name="f_f_j" unicode="ffj" horiz-adv-x="1839" 
d="M696 -6v69q117 14 117 134v614h-344l-25 -25v-589q0 -27 -2.5 -55t-5.5 -42l-2 -14l131 -18l-8 -62l-491 -12v69q116 14 116 134v604h-125v88l125 45v27q0 214 137 351.5t359 137.5q74 0 152.5 -19t115.5 -61q133 139 373 139q39 0 81 -5.5t92 -19t82 -44t32 -74.5
t-32.5 -76.5t-76.5 -32.5q-36 0 -72.5 24.5t-63.5 53.5t-68 53.5t-85 24.5q-71 0 -102 -87t-31 -284v-114h344q150 0 301 57l6 -6q-18 -68 -18 -234v-647q0 -288 -120 -435.5t-339 -147.5l-24 59q89 12 155 123t66 264v715q0 36 -1 55.5t-6 40.5t-16.5 30t-29.5 9h-293
l-25 -25v-589q0 -27 -2.5 -55t-4.5 -42l-3 -14l215 -18l-8 -62zM444 995v-67h369v59q0 123 35 223q-28 1 -57.5 15.5t-55.5 34.5t-52 39.5t-55.5 33t-58.5 13.5q-68 0 -96.5 -81t-28.5 -270z" />
    <glyph glyph-name="f_f_k" unicode="ffk" horiz-adv-x="2412" 
d="M696 -6v69q117 14 117 134v614h-344l-25 -25v-589q0 -27 -2.5 -55t-5.5 -42l-2 -14l131 -18l-8 -62l-491 -12v69q116 14 116 134v604h-125v88l125 45v27q0 214 137 351.5t359 137.5q76 0 156 -20t114 -66q63 69 148 107t180 38q136 0 227 -39q73 17 126 32.5t70 22.5
l17 7l6 -6q-20 -74 -20 -232v-739h35l200 176q56 51 66 68q8 14 8 26q0 31 -63 45v62h395l10 -33q-16 -5 -41.5 -15t-83.5 -39.5t-90 -58.5l-192 -172v-28q14 -23 26 -37l281 -365q54 -68 83.5 -87.5t69.5 -22.5l23 -2l-8 -72l-373 -6q-21 75 -70 141l-241 330h-35v-268
q0 -27 -2.5 -55t-5.5 -42l-2 -14l143 -18l-8 -62l-504 -12v69q117 14 117 134v1030q0 37 -2 53q-41 8 -88.5 39.5t-87 57.5t-66.5 26q-66 0 -93.5 -84t-27.5 -277v-110h236l-21 -125h-190l-25 -25v-585q0 -27 -2.5 -55t-4.5 -42l-3 -14l131 -18l-8 -62zM444 995v-67h369v69
q0 115 39 213q-29 0 -59 14t-56 34l-52 40t-56.5 34t-59.5 14q-68 0 -96.5 -81t-28.5 -270z" />
    <glyph glyph-name="f_h" unicode="fh" horiz-adv-x="1832" 
d="M692 -6v69q117 14 117 134v1030q0 37 -2 53q-41 8 -88.5 39.5t-87 57.5t-66.5 26q-66 0 -93.5 -84t-27.5 -277v-110h236l-21 -125h-190l-25 -25v-585q0 -27 -2.5 -55t-5.5 -42l-2 -14l131 -18l-8 -62l-491 -12v69q116 14 116 134v604h-125v88l125 45v63q0 146 63 264
t169 183t231 65q136 0 227 -39q73 17 126 32.5t70 22.5l17 7l7 -6q-21 -74 -21 -232v-356q0 -62 -4 -122.5t-4 -63.5q156 204 358 204q113 0 178.5 -67t65.5 -209v-483q0 -27 -2.5 -54.5t-4.5 -40.5l-3 -14l164 -20l-9 -62l-499 -12v69q92 13 92 134v403q0 103 -26 139.5
t-89 36.5q-119 0 -217 -76v-503q0 -27 -2.5 -55t-4.5 -42l-3 -14l129 -18l-8 -62z" />
    <glyph glyph-name="f_k" unicode="fk" horiz-adv-x="1781" 
d="M692 -6v69q117 14 117 134v1030q0 37 -2 53q-41 8 -88.5 39.5t-87 57.5t-66.5 26q-66 0 -93.5 -84t-27.5 -277v-110h236l-21 -125h-190l-25 -25v-585q0 -27 -2.5 -55t-5.5 -42l-2 -14l131 -18l-8 -62l-491 -12v69q116 14 116 134v604h-125v88l125 45v63q0 146 63 264
t169 183t231 65q136 0 227 -39q73 17 126 32.5t70 22.5l17 7l7 -6q-21 -74 -21 -232v-739h35l201 176q29 26 40 36.5t22 27t11 30.5q0 31 -63 45v62h395l10 -33q-16 -5 -41.5 -15t-83.5 -39.5t-90 -58.5l-192 -172v-28q14 -23 26 -37l281 -365q54 -68 84 -87.5t70 -22.5
l22 -2l-8 -72l-373 -6q-20 75 -69 141l-242 330h-35v-268q0 -27 -2.5 -55t-4.5 -42l-3 -14l143 -18l-8 -62z" />
    <glyph glyph-name="ff" unicode="ff" horiz-adv-x="1347" 
d="M696 -6v69q117 14 117 134v614h-344l-25 -25v-589q0 -27 -2.5 -55t-5.5 -42l-2 -14l131 -18l-8 -62l-491 -12v69q116 14 116 134v604h-125v88l125 45v27q0 214 137 351.5t359 137.5q76 0 156 -20t114 -66q63 69 148 107t180 38q63 0 122 -14t102.5 -48t43.5 -81
t-31.5 -78t-76.5 -31q-33 0 -69.5 23t-62.5 50t-56 50t-52 23q-66 0 -93.5 -84t-27.5 -277v-110h266l-20 -125h-221l-25 -25v-585q0 -27 -2.5 -55t-4.5 -42l-3 -14l215 -18l-8 -62zM444 995v-67h369v69q0 115 39 213q-29 0 -59 14t-56 34l-52 40t-56.5 34t-59.5 14
q-68 0 -96.5 -81t-28.5 -270z" />
    <glyph glyph-name="fi" unicode="fi" horiz-adv-x="1251" 
d="M66 -6v69q116 14 116 134v604h-125v88l125 45v53q0 241 132 381.5t374 140.5q39 0 81 -5.5t92 -19t82 -44t32 -74.5t-32.5 -76.5t-76.5 -32.5q-30 0 -58.5 16t-53 39t-49.5 46t-58 39t-69 16q-72 0 -103 -87.5t-31 -283.5v-114h344q162 0 302 57l6 -6q-19 -68 -19 -234
v-548q0 -27 -2.5 -55t-4.5 -42l-3 -14l174 -18l-8 -62l-545 -12v69q127 14 127 134v479q0 38 -1.5 57.5t-7 40.5t-18.5 29t-34 8h-285l-25 -25v-589q0 -27 -2.5 -55t-5.5 -42l-2 -14l121 -18l-8 -62z" />
    <glyph glyph-name="fl" unicode="fl" horiz-adv-x="1253" 
d="M698 -6v69q117 14 117 134v1030q0 37 -2 53q-42 7 -90 38t-89 58t-69 27q-66 0 -93.5 -84t-27.5 -277v-110h236l-21 -125h-190l-25 -25v-585q0 -27 -2.5 -55t-5.5 -42l-2 -14l131 -18l-8 -62l-491 -12v69q116 14 116 134v604h-125v88l125 45v63q0 146 63 264t169 183
t231 65q133 0 229 -41q74 18 128.5 34t71.5 23l18 7l6 -6q-21 -74 -21 -232v-1097q0 -27 -2.5 -55t-4.5 -42l-3 -14l164 -18l-8 -62z" />
    <glyph glyph-name="f_f_i" unicode="ffi" horiz-adv-x="1884" 
d="M698 -6v69q117 14 117 134v614h-346l-25 -25v-589q0 -27 -2.5 -55t-5.5 -42l-2 -14l131 -18l-8 -62l-491 -12v69q116 14 116 134v604h-125v88l125 45v27q0 214 137 351.5t359 137.5q73 0 152.5 -20t115.5 -62q135 141 365 141q45 0 88.5 -5.5t94.5 -19t82.5 -44
t31.5 -74.5t-32.5 -76.5t-76.5 -32.5q-35 0 -72 24.5t-64 53.5t-67.5 53.5t-81.5 24.5q-74 0 -105.5 -86.5t-31.5 -284.5v-114h344q145 0 301 57l7 -6q-19 -68 -19 -234v-548q0 -27 -2.5 -55t-5.5 -42l-2 -14l174 -18l-8 -62l-545 -12v69q127 14 127 134v479q0 37 -1.5 57.5
t-7.5 40.5t-18.5 28.5t-34.5 8.5h-284l-25 -25v-589q0 -27 -2.5 -55t-4.5 -42l-3 -14l121 -18l-8 -62zM444 995v-67h371v59q0 125 37 223q-35 1 -74 22t-68 46.5t-67.5 46.5t-73.5 21q-68 0 -96.5 -81t-28.5 -270z" />
    <glyph glyph-name="f_f_l" unicode="ffl" horiz-adv-x="1886" 
d="M698 -6v69q117 14 117 134v614h-346l-25 -25v-589q0 -27 -2.5 -55t-5.5 -42l-2 -14l131 -18l-8 -62l-491 -12v69q116 14 116 134v604h-125v88l125 45v27q0 214 137 351.5t359 137.5q76 0 157 -20t115 -66q63 69 148 107t180 38q133 0 229 -41q74 18 128 34t71 23l18 7
l7 -6q-21 -74 -21 -232v-1097q0 -27 -2.5 -55t-5.5 -42l-2 -14l164 -18l-9 -62l-524 -12v69q117 14 117 134v1030q0 37 -2 53q-42 7 -90 38t-89 58t-69 27q-66 0 -93.5 -84t-27.5 -277v-110h236l-21 -125h-190l-25 -25v-585q0 -27 -2.5 -55t-4.5 -42l-3 -14l131 -18l-8 -62z
M444 995v-67h371v69q0 115 39 213q-35 0 -74 21t-68.5 47t-68.5 47t-74 21q-68 0 -96.5 -81t-28.5 -270z" />
    <glyph glyph-name="f_j" unicode="fj" horiz-adv-x="1208" 
d="M66 -6v69q116 14 116 134v604h-125v88l125 45v53q0 241 132 381.5t374 140.5q39 0 81 -5.5t92 -19t82 -44t32 -74.5t-32.5 -76.5t-76.5 -32.5q-30 0 -58.5 16t-53 39t-49.5 46t-58 39t-69 16q-72 0 -103 -87.5t-31 -283.5v-114h344q151 0 302 57l6 -6q-19 -68 -19 -234
v-647q0 -288 -120 -435.5t-339 -147.5l-24 59q89 12 155 123t66 264v715q0 36 -1 55.5t-6 40.5t-16.5 30t-29.5 9h-293l-25 -25v-589q0 -27 -2.5 -55t-5.5 -42l-2 -14l215 -18l-8 -62z" />
    <glyph glyph-name=".notdef" horiz-adv-x="1413" 
d="M246 301l82 -84l379 381l378 -381l82 84l-379 379l379 381l-80 84l-380 -383l-381 383l-80 -84l379 -381zM92 -109v1584h1229v-1584h-1229z" />
    <glyph glyph-name=".null" horiz-adv-x="0" 
 />
    <glyph glyph-name="nonmarkingreturn" horiz-adv-x="682" 
 />
    <glyph glyph-name="space" unicode=" " horiz-adv-x="444" 
 />
    <glyph glyph-name="exclam" unicode="!" horiz-adv-x="610" 
d="M258 420l-131 930q81 16 168.5 37t134.5 34l47 13l12 -17q-31 -75 -51 -241l-104 -756h-76zM135 133q0 66 46.5 113t111.5 47q66 0 113 -47t47 -113q0 -65 -47 -111.5t-113 -46.5q-65 0 -111.5 46.5t-46.5 111.5z" />
    <glyph glyph-name="quotedbl" unicode="&#x22;" horiz-adv-x="778" 
d="M109 821v545h237v-76l-108 -469h-129zM479 821v545h238v-76l-109 -469h-129z" />
    <glyph glyph-name="numbersign" unicode="#" horiz-adv-x="1366" 
d="M680 -182l88 432h-309l-88 -432h-131l88 432h-267l21 123h272l58 278h-271l21 123h274l84 410h129l-84 -410h312l84 410h129l-84 -410h294l-20 -123h-299l-57 -278h297l-21 -123h-301l-88 -432h-131zM541 651l-58 -278h312l57 278h-311z" />
    <glyph glyph-name="dollar" unicode="$" horiz-adv-x="915" 
d="M57 166q0 38 56 211h71q0 -74 18 -130.5t49 -89.5t66 -51t76 -24l15 362q-46 22 -69 34t-64.5 36t-64.5 42.5t-53 48.5t-45 59t-26.5 68t-11.5 83q0 135 93 228t269 110l8 170h93l-9 -166q90 -2 308 -35l-60 -305h-71q7 227 -181 244l-12 -350q141 -65 197 -104
q150 -107 151 -275q0 -153 -104.5 -242.5t-274.5 -101.5l-6 -170h-92l6 170q-61 2 -117.5 14t-106 32.5t-79 54.5t-29.5 77zM643 227q0 54 -37 94t-106 78l-15 -317q69 10 113.5 47t44.5 98zM291 915q0 -52 33 -89.5t96 -71.5l12 303q-66 -10 -103.5 -48t-37.5 -94z" />
    <glyph glyph-name="percent" unicode="%" horiz-adv-x="1554" 
d="M63 1044q0 133 99 227.5t237 94.5t237 -94.5t99 -227.5t-99 -228t-237 -95t-237 95t-99 228zM231 1044q0 -74 50.5 -131t117.5 -57t117.5 57t50.5 131t-50.5 131.5t-117.5 57.5t-117.5 -57.5t-50.5 -131.5zM240 0l964 1389l90 -60l-923 -1329h-131zM821 299
q0 133 99 227.5t237 94.5t237 -94.5t99 -227.5t-99 -228.5t-237 -95.5t-237 95.5t-99 228.5zM989 299q0 -74 50.5 -131t117.5 -57t117.5 57t50.5 131t-50.5 131t-117.5 57t-117.5 -57t-50.5 -131z" />
    <glyph glyph-name="ampersand" unicode="&#x26;" horiz-adv-x="1394" 
d="M55 317q0 100 75 190t224 183q-114 211 -114 383q0 59 23 114t67.5 101.5t118.5 74.5t167 28q155 0 252 -67t97 -194q0 -177 -320 -393q132 -212 336 -432q80 99 126 219t46 211q0 65 -32 96t-101 39v62h313l10 -31q-14 -22 -25 -51t-25.5 -80t-20.5 -70
q-90 -295 -225 -464q104 -107 194.5 -184t138.5 -101l-28 -53q-216 23 -457 190q-161 -113 -371 -113q-69 0 -134 11.5t-126.5 38t-107.5 65t-73.5 97t-27.5 130.5zM614 100q98 0 195 54q-249 198 -406 450q-98 -82 -98 -209q0 -150 86.5 -222.5t222.5 -72.5zM498 1135
q0 -131 102 -320q71 59 103 130t32 175q0 71 -33.5 125.5t-95.5 54.5q-54 0 -81 -48.5t-27 -116.5z" />
    <glyph glyph-name="quotesingle" unicode="'" horiz-adv-x="407" 
d="M109 821v545h237v-76l-108 -469h-129z" />
    <glyph glyph-name="parenleft" unicode="(" horiz-adv-x="579" 
d="M66 553q0 110 19.5 217.5t51.5 191.5t70 160t76 130t70 94t51 60l20 19l82 -34q-10 -14 -25.5 -40.5t-56 -113t-71 -178.5t-56 -230.5t-25.5 -275.5q0 -150 29 -297.5t71 -250t83.5 -183.5t70.5 -120l29 -40l-80 -43q-9 8 -23.5 22t-57 63t-81 102.5t-86 138t-81 172.5
t-57 203.5t-23.5 232.5z" />
    <glyph glyph-name="parenright" unicode=")" horiz-adv-x="577" 
d="M31 -338q11 14 29.5 41.5t65.5 117.5t82.5 187t65 246t29.5 299q0 137 -23 272.5t-55.5 231t-65.5 172t-56 113.5l-23 38l82 45q7 -7 19.5 -20t49 -58.5t69 -95.5t73 -128.5t69 -161t48.5 -190.5t20 -218q0 -117 -22 -231.5t-57 -204.5t-77.5 -171.5t-85.5 -139.5
t-78 -101.5t-57 -64.5l-22 -21z" />
    <glyph glyph-name="asterisk" unicode="*" horiz-adv-x="1032" 
d="M391 1341q-11 30 33 49t90 19t90 -19t33 -49l-92 -239q-5 -16 -13 -29t-13 -19l-5 -5q-19 20 -31 53zM514 532q-46 0 -90 19t-33 49l92 240q5 15 13 28t13 19l5 6q19 -18 31 -53l92 -240q11 -30 -33 -49t-90 -19zM131 1051q-22 4 -25 30t6 55.5t23 53.5q23 40 60.5 68.5
t58.5 3.5l162 -199q11 -13 18.5 -26t9.5 -20l2 -7q-26 -6 -61 0zM774 680l-162 199q-10 12 -17.5 25.5t-10.5 20.5l-2 7q24 6 61 0l254 -41q22 -4 25 -30t-6 -55.5t-23 -53.5q-23 -40 -60.5 -68.5t-58.5 -3.5zM254 680q-21 -25 -58.5 3.5t-60.5 68.5q-14 24 -23 53.5
t-5.5 55.5t26.5 30l252 41q16 3 31.5 3t22.5 -1l7 -2q-7 -26 -30 -53zM582 1010q5 24 30 53l162 199q21 25 58.5 -3.5t60.5 -68.5q14 -24 23 -53.5t5.5 -55.5t-26.5 -30l-252 -41q-16 -3 -31 -3t-22 1z" />
    <glyph glyph-name="plus" unicode="+" 
d="M63 451v145h396v424h153v-424h389v-145h-389v-451h-153v451h-396z" />
    <glyph glyph-name="comma" unicode="," horiz-adv-x="487" 
d="M88 102v105l203 106q110 -135 110 -272q0 -120 -69 -222.5t-193 -209.5l-65 74q83 76 119 125.5t36 107.5q0 93 -141 186z" />
    <glyph glyph-name="hyphen" unicode="-" horiz-adv-x="765" 
d="M111 440v164h544v-164h-544z" />
    <glyph glyph-name="period" unicode="." horiz-adv-x="501" 
d="M92 133q0 66 46.5 113t111.5 47q66 0 113 -47t47 -113q0 -65 -47 -111.5t-113 -46.5q-64 0 -111 46.5t-47 111.5z" />
    <glyph glyph-name="slash" unicode="/" horiz-adv-x="716" 
d="M-70 -401l682 1767h162l-680 -1767h-164z" />
    <glyph glyph-name="zero" unicode="0" horiz-adv-x="1173" 
d="M586 106q62 0 108 31.5t71.5 86.5t37.5 119.5t12 139.5q0 76 -12 142t-38 121.5t-71 87.5t-106 32q-62 0 -108 -32.5t-72 -88.5t-38 -122t-12 -142q0 -75 12.5 -139.5t38 -118.5t71 -85.5t106.5 -31.5zM96 475q0 97 32.5 189t93.5 167t159 120.5t219 45.5
q115 0 207.5 -41t150.5 -110t88.5 -155t30.5 -181q0 -78 -20 -154t-61.5 -145t-100 -121.5t-142 -83.5t-180.5 -31q-115 0 -207.5 42.5t-150.5 114t-88.5 159.5t-30.5 184z" />
    <glyph glyph-name="one" unicode="1" horiz-adv-x="808" 
d="M98 -10v80q97 0 134.5 29.5t37.5 101.5v571q0 71 -37 96t-145 25v80h627l-8 -76l-183 -23v-673q0 -27 -2.5 -54.5t-5.5 -40.5l-2 -14l211 -20l-8 -72z" />
    <glyph glyph-name="two" unicode="2" horiz-adv-x="995" 
d="M100 0l-20 78q18 16 62.5 53t72.5 61t72 64.5t72.5 72t62.5 75t53.5 82t33 83.5t13.5 88q0 85 -46 125.5t-120 40.5q-55 0 -116 -18t-107 -47l-45 57q6 7 18 19.5t51.5 44t81.5 55.5t106 43.5t128 19.5q136 0 227 -76.5t91 -189.5q0 -60 -27.5 -119.5t-90 -128.5
t-130.5 -129.5t-181 -152.5h267q43 0 75 9t51 22.5t34.5 36.5t23.5 42t18 49q3 10 5 15h90l-66 -375h-760z" />
    <glyph glyph-name="three" unicode="3" horiz-adv-x="831" 
d="M25 -319q62 7 118 19.5t118 39t106 64t73 97t29 134.5q0 71 -24 122t-65 77t-86 37.5t-97 11.5l-60 -4v112q86 8 155 58.5t102.5 116.5t33.5 132q0 64 -37 104t-108 40q-50 0 -104 -21t-83 -42l-28 -21l-37 51q6 8 16.5 20.5t46 45t75 57t100.5 45t124 20.5
q131 0 221.5 -73t90.5 -187q0 -207 -340 -348q178 -17 282.5 -105t104.5 -225q0 -75 -31.5 -142.5t-84 -117t-120 -90t-141.5 -65.5t-146 -38.5t-135 -13.5l-57 2z" />
    <glyph glyph-name="four" unicode="4" horiz-adv-x="1071" 
d="M43 59l-16 72l551 817l227 51l10 -4q-16 -78 -16 -223v-547h225l-29 -166h-196v-329q0 -36 -2.5 -64t-5.5 -38l-3 -11l-249 -25l-9 7q11 46 11 120v340h-498zM215 225h326v371q0 57 8 135z" />
    <glyph glyph-name="five" unicode="5" horiz-adv-x="854" 
d="M74 -319q196 14 321 107.5t125 234.5q0 55 -24.5 101.5t-63 77t-85.5 54.5t-94 37.5t-85.5 22.5t-63.5 12l-24 2l35 643h477q36 0 71.5 3t53.5 6l18 3l-28 -209h-496l-12 -211q12 -2 33 -6t81.5 -20t115.5 -37.5t122.5 -61t116 -86t81.5 -116.5t33 -150q0 -143 -90 -258
t-235 -176.5t-312 -61.5l-59 2z" />
    <glyph glyph-name="six" unicode="6" horiz-adv-x="1073" 
d="M559 -25q-92 0 -169.5 31t-132 85.5t-93 129t-56.5 161t-18 181.5q0 123 30 241t94.5 224.5t155 187t221 128t283.5 47.5l13 -82q-135 -21 -237 -89.5t-161.5 -170.5t-88.5 -221.5t-29 -254.5q0 -132 25 -245.5t77 -187.5t121 -74q78 0 120 84.5t42 211.5q0 43 -7 93
t-24 107.5t-43 102t-68 72t-94 21.5l-16 84q24 12 66.5 20t74.5 8q158 0 265.5 -115t107.5 -294q0 -90 -30 -175.5t-85.5 -155.5t-145 -112.5t-198.5 -42.5z" />
    <glyph glyph-name="seven" unicode="7" horiz-adv-x="991" 
d="M293 -162q163 223 346 625l123 270q-78 -8 -135 -8h-291q-103 0 -137.5 -22.5t-69.5 -114.5h-90l72 385h725q33 0 64.5 2t47.5 4l15 2l8 -59q-88 -158 -115 -217l-420 -938q-7 -15 -18.5 -42t-17 -39t-15.5 -31t-17.5 -27.5t-19 -18.5t-24.5 -13.5t-29 -3.5q-38 0 -63 26
t-25 67q0 19 7 37t14 29t29.5 40.5t35.5 46.5z" />
    <glyph glyph-name="eight" unicode="8" horiz-adv-x="1060" 
d="M88 301q0 57 20 110.5t47 91t71.5 77t76.5 61.5t78 51q-117 102 -181.5 193.5t-64.5 197.5q0 136 112 222t296 86q176 0 278.5 -76.5t102.5 -198.5q0 -88 -60 -171.5t-188 -172.5q55 -48 88.5 -78.5t78 -79t69.5 -88t43 -90.5t18 -102q0 -154 -131 -256.5t-324 -102.5
q-63 0 -123.5 12t-116.5 38t-98 63t-67 92t-25 121zM315 350q0 -129 58.5 -206.5t146.5 -77.5q78 0 138.5 53.5t60.5 142.5q0 49 -20 96t-64 97t-80 84t-102 90q-67 -55 -102.5 -115.5t-35.5 -163.5zM385 1153q0 -41 16 -82t48.5 -82t65.5 -73.5t83 -77.5q46 46 70 113.5
t24 140.5q0 101 -44 154.5t-116 53.5q-63 0 -105 -40t-42 -107z" />
    <glyph glyph-name="nine" unicode="9" horiz-adv-x="1101" 
d="M223 -326q135 21 237 88t161.5 167.5t88.5 217.5t29 250q0 132 -25.5 247t-77 189t-118.5 74q-48 0 -83 -41t-51.5 -106t-16.5 -144q0 -44 5 -92.5t20.5 -107t39 -102.5t65 -70.5t93.5 -18.5l16 -84q-65 -28 -143 -28q-151 0 -256 113t-105 288q0 70 18 139t55.5 131
t90 109.5t127 75.5t160.5 28q113 0 203.5 -47.5t147 -129t86.5 -186t30 -222.5q0 -122 -30 -239t-94.5 -222.5t-155 -185t-221 -126.5t-283.5 -47z" />
    <glyph glyph-name="colon" unicode=":" horiz-adv-x="563" 
d="M123 797q0 66 46.5 112.5t111.5 46.5q66 0 112.5 -46.5t46.5 -112.5q0 -65 -46.5 -111.5t-112.5 -46.5q-65 0 -111.5 46.5t-46.5 111.5zM123 133q0 66 46.5 113t111.5 47q66 0 112.5 -47t46.5 -113q0 -65 -46.5 -111.5t-112.5 -46.5q-65 0 -111.5 46.5t-46.5 111.5z" />
    <glyph glyph-name="semicolon" unicode=";" horiz-adv-x="552" 
d="M131 102v105l203 106q110 -135 110 -272q0 -120 -69 -222.5t-193 -209.5l-65 74q83 76 119 125.5t36 107.5q0 93 -141 186zM111 797q0 66 46 112.5t111 46.5q66 0 113 -46.5t47 -112.5q0 -65 -47 -111.5t-113 -46.5q-64 0 -110.5 46.5t-46.5 111.5z" />
    <glyph glyph-name="less" unicode="&#x3c;" 
d="M51 473v94l873 469l41 -149l-711 -367l711 -387l-41 -147z" />
    <glyph glyph-name="equal" unicode="=" 
d="M84 621v143h897v-143h-897zM84 262v144h897v-144h-897z" />
    <glyph glyph-name="greater" unicode="&#x3e;" 
d="M98 133l711 387l-711 367l41 149l873 -469v-94l-873 -487z" />
    <glyph glyph-name="question" unicode="?" horiz-adv-x="759" 
d="M268 422q-10 46 -10 113q0 63 18.5 119.5t45.5 95.5t54 72t45.5 64.5t18.5 57.5q0 33 -37.5 69.5t-91.5 65.5t-108 53.5t-91 37.5l-38 14l53 268q13 -4 35 -12t86 -33.5t122 -52.5t128.5 -67.5t121.5 -80.5t86 -89.5t35 -96.5q0 -36 -22 -74t-57.5 -72.5t-78.5 -71.5
t-85.5 -78.5t-78 -86t-57.5 -100.5t-22 -115h-72zM150 133q0 66 46 113t111 47q66 0 113 -47t47 -113q0 -65 -47 -111.5t-113 -46.5q-64 0 -110.5 46.5t-46.5 111.5z" />
    <glyph glyph-name="at" unicode="@" horiz-adv-x="1734" 
d="M690 395q0 -241 115 -241q56 0 135 61v627q-5 -1 -14 -3t-35 -14t-49.5 -29t-52.5 -52t-50 -80t-35 -115t-14 -154zM47 381q0 168 70.5 324t189 271t282.5 184t341 69q205 0 373 -87t264 -242t96 -345q0 -71 -13.5 -141.5t-45 -141.5t-78.5 -126.5t-119.5 -94
t-161.5 -47.5l-309 -31l-4 9q16 59 16 110v68q-103 -185 -254 -185q-47 0 -92.5 17.5t-90 56.5t-72 114t-27.5 177q0 171 76 308t209.5 213.5t297.5 76.5q45 0 102.5 -6t92.5 -12l35 -7q-23 -90 -23 -172v-548q0 -97 68 -97q23 0 47 10.5t50 38.5t46.5 69.5t33.5 110
t13 154.5q0 191 -64 335t-194.5 227t-312.5 83q-124 0 -228.5 -38.5t-178 -104.5t-125.5 -155.5t-76.5 -190.5t-24.5 -209q0 -126 34 -241t97.5 -209.5t165 -157t227.5 -76.5l-20 -92q-202 8 -365.5 106.5t-255.5 263t-92 361.5z" />
    <glyph glyph-name="A" unicode="A" horiz-adv-x="1280" 
d="M-35 0v70q103 10 137 96l476 1190l124 26l449 -1165q29 -75 58.5 -109.5t84.5 -41.5l-8 -66h-84l-399 -8v80q48 2 73 21t9 61l-97 264h-436l-35 -25l-114 -301l176 -22l-12 -70h-402zM621 891q-27 72 -52 158l-198 -519h379z" />
    <glyph glyph-name="B" unicode="B" horiz-adv-x="1280" 
d="M98 -6v76q66 8 102 40t36 87v958q0 41 -3.5 61t-20.5 38.5t-47 28.5t-87 22v61h526q265 0 392.5 -83.5t127.5 -215.5q0 -55 -23.5 -107.5t-55.5 -88.5t-75 -68.5t-71 -48.5t-55 -29q45 -10 87.5 -23.5t95.5 -41t91.5 -62.5t65 -91t26.5 -122q0 -167 -153.5 -276
t-419.5 -109h-188zM500 106h112q141 0 219 71t78 177q0 122 -90 208.5t-252 86.5h-32l-25 -24v-406q0 -27 -2.5 -55.5t-5.5 -43.5zM510 756h166q48 4 100.5 76t52.5 186q0 51 -12 92.5t-38 76.5t-73 54t-112 19h-59l-25 -25v-479z" />
    <glyph glyph-name="C" unicode="C" horiz-adv-x="1404" 
d="M70 664q0 105 30.5 208.5t94 197t152.5 165t216 114t275 42.5q105 0 285.5 -28t197.5 -30l-61 -321h-80q-3 74 -33 129t-81.5 86.5t-114 46t-136.5 14.5q-119 0 -211 -44.5t-147 -121.5t-83 -172.5t-28 -204.5q0 -139 47 -252t126.5 -186t182.5 -112t218 -39
q66 0 131 14.5t110 35t81 41.5t54 35l17 15l35 -53q-7 -11 -20.5 -29t-63.5 -64.5t-108.5 -82t-156.5 -64.5t-206 -29q-132 0 -248.5 37.5t-202 103t-148 152.5t-93.5 188.5t-31 207.5z" />
    <glyph glyph-name="D" unicode="D" horiz-adv-x="1544" 
d="M98 -6v76q66 8 102 40t36 87v958q0 41 -3.5 61t-20.5 38.5t-47 28.5t-87 22v61h608q129 0 243.5 -22.5t215.5 -72t173.5 -122t114.5 -178t42 -234.5q0 -172 -67.5 -313t-184 -233t-270 -141.5t-328.5 -49.5h-176zM500 106h125q267 0 406.5 147.5t139.5 424.5
q0 265 -126 423.5t-357 158.5h-153l-25 -25v-1014q0 -27 -2.5 -56t-5.5 -44z" />
    <glyph glyph-name="E" unicode="E" horiz-adv-x="1226" 
d="M98 -6v76q66 8 102 40t36 87v958q0 41 -3.5 61t-20.5 38.5t-47 28.5t-87 22v61h891q37 0 76.5 2t60.5 4l20 2l-63 -362h-80q4 79 -6.5 128t-39.5 75.5t-69 35.5t-106 9h-227l-25 -25v-485h342l16 118l86 13v-392h-106v154h-313l-25 -25v-397q0 -27 -2.5 -56t-5.5 -44
l-2 -15h284q47 0 76.5 2.5t57.5 13t45 24t39 45t39.5 64.5t45.5 93h80l-75 -348h-643z" />
    <glyph glyph-name="F" unicode="F" horiz-adv-x="1134" 
d="M98 -6v76q65 8 101.5 43t36.5 90v952q0 41 -3.5 61t-20.5 38.5t-47 28.5t-87 22v61h891q37 0 76.5 2t60.5 4l20 2l-63 -362h-80q4 79 -6.5 128t-39.5 75.5t-69 35.5t-106 9h-227l-25 -25v-494h342l16 119l86 12v-389h-106v152h-313l-25 -25v-407q0 -27 -2.5 -55t-5.5 -42
l-2 -14l225 -18l-8 -68z" />
    <glyph glyph-name="G" unicode="G" horiz-adv-x="1468" 
d="M70 653q0 113 29.5 218.5t93.5 200.5t155.5 165.5t225.5 112t294 41.5q78 0 170.5 -9.5t184 -22.5t125.5 -16l-62 -331h-80q-1 65 -22.5 115t-55 79.5t-80 48.5t-91.5 26t-95 7q-121 0 -217.5 -47.5t-156 -129.5t-90.5 -186t-31 -223q0 -175 65.5 -313.5t189 -218.5
t285.5 -80q79 0 168 21v264q0 34 -2.5 51t-11.5 35t-30.5 27.5t-54.5 18.5t-89 17v62h518l10 -39q-3 -2 -8.5 -5t-19.5 -18t-24.5 -35t-19 -56.5t-8.5 -80.5v-323q-43 -3 -218.5 -28.5t-276.5 -25.5q-157 0 -296 45t-245 129t-167.5 214t-61.5 290z" />
    <glyph glyph-name="H" unicode="H" horiz-adv-x="1673" 
d="M96 -6v76q65 8 101 43t36 90v952q0 31 -0.5 44t-5 31t-12 25.5t-24 18t-40 17t-59.5 14.5v61h150q114 0 194.5 2t104.5 4l24 2l10 -8q-3 -4 -7.5 -10.5t-16 -31t-20.5 -52t-16 -72t-7 -92.5v-356h649l25 24v379q0 30 -0.5 43.5t-5 31.5t-12.5 25.5t-24.5 18t-40 17
t-59.5 14.5v61h150q114 0 194.5 2t104.5 4l24 2l11 -8q-3 -4 -7.5 -10.5t-16 -31t-20.5 -52t-16.5 -72t-7.5 -92.5v-905q0 -27 -2.5 -55t-5.5 -42l-2 -14l174 -18l-8 -68l-568 -12v76q64 8 101 41.5t37 85.5v442h-650l-24 -25v-411q0 -27 -2.5 -55t-5.5 -42l-2 -14l174 -18
l-8 -68z" />
    <glyph glyph-name="I" unicode="I" horiz-adv-x="724" 
d="M96 -6v76q65 8 101 43t36 90v952q0 31 -0.5 44t-5 31t-12 25.5t-24 18t-40 17t-59.5 14.5v61h150q114 0 194.5 2t104.5 4l24 2l10 -8q-3 -4 -7.5 -10.5t-16 -31t-20.5 -52t-16 -72t-7 -92.5v-905q0 -27 -2.5 -55t-5.5 -42l-2 -14l174 -18l-8 -68z" />
    <glyph glyph-name="J" unicode="J" horiz-adv-x="675" 
d="M215 143v1012q0 31 -0.5 44t-5 31t-12 25.5t-24 18t-40 17t-59.5 14.5v61h149q115 0 196 2t105 4l23 2l10 -8q-8 -9 -19 -26.5t-30 -81.5t-19 -140v-817q0 -295 -125 -465t-346 -170l-24 60q89 12 155 131.5t66 285.5z" />
    <glyph glyph-name="K" unicode="K" horiz-adv-x="1398" 
d="M96 -6v76q63 8 100 41.5t37 85.5v958q0 31 -0.5 44t-5 31t-12 25.5t-24 18t-40 17t-59.5 14.5v61h150q115 0 195.5 2t104.5 4l23 2l10 -8q-3 -3 -7.5 -9.5t-16 -29t-20.5 -48.5t-16 -69.5t-7 -91.5v-360h37q59 37 98 78l356 368q20 21 24.5 40.5t-17 36.5t-72.5 24v61
h409l13 -39q-14 -5 -37.5 -14.5t-82 -44.5t-99.5 -78l-351 -365v-34l461 -596q57 -74 84 -94t68 -23l22 -2l-8 -76h-393l-8 8q-2 7 -7.5 21.5t-39 70t-86.5 123.5l-330 426h-41v-452q0 -26 -2.5 -52.5t-5.5 -39.5l-2 -13l174 -18l-8 -68z" />
    <glyph glyph-name="L" unicode="L" horiz-adv-x="1179" 
d="M96 -6v76q65 8 101 40t36 87v958q0 31 -0.5 44t-5 31t-12 25.5t-24 18t-40 17t-59.5 14.5v61h150q110 0 191 2t107 4l25 2l10 -8q-3 -4 -7.5 -10.5t-16 -31t-20.5 -52t-16 -72t-7 -92.5v-887q0 -27 -2.5 -56t-5.5 -44l-2 -15h295q36 0 64.5 5.5t51.5 14t45 28t38 37.5
t36.5 53t36 64t41.5 81h80l-86 -389h-654z" />
    <glyph glyph-name="M" unicode="M" horiz-adv-x="1859" 
d="M68 -6v76q66 8 105 40.5t42 86.5l41 958q2 41 -1.5 61.5t-21.5 38t-47 27.5t-88 23v61h154q90 0 171.5 2t118.5 4l36 2l8 -8q20 -73 59 -188l248 -648q22 -55 39 -118l325 807q8 20 19.5 57t19.5 64l7 26h100q74 0 141 2t97 4l30 2l10 -8q-3 -4 -7.5 -10.5t-16 -30.5
t-20 -51.5t-15 -72.5t-4.5 -93l39 -918q1 -28 -0.5 -54t-3.5 -38l-2 -12l170 -12l-9 -68l-565 -12v76q66 8 102 38.5t35 81.5l-34 951l-463 -1141l-82 25l-430 1124q-2 -43 -4 -82l-35 -870q-1 -25 -4.5 -53t-6.5 -43l-3 -15l188 -12l-8 -68z" />
    <glyph glyph-name="N" unicode="N" horiz-adv-x="1607" 
d="M96 -6v76q70 8 109 40t39 87v880q0 100 -33.5 147.5t-132.5 80.5v61h59l269 8q24 -49 79 -106l717 -756q37 -40 84 -98v729q0 28 -1 42t-5.5 34t-15 30t-28.5 21t-46.5 17.5t-69.5 10.5v68h414l10 -39q-6 -2 -15.5 -5.5t-33.5 -19t-43 -36t-34 -59.5t-15 -87v-1130h-86
l-873 934q-38 38 -84 100v-827q0 -27 -2.5 -55t-5.5 -42l-2 -14l185 -12l-9 -68z" />
    <glyph glyph-name="O" unicode="O" horiz-adv-x="1638" 
d="M373 721q0 -118 31.5 -231.5t88.5 -206t147 -149t198 -56.5q102 0 185 50.5t134.5 135.5t79 190.5t27.5 221.5q0 92 -17.5 179.5t-55 166t-90.5 137.5t-129 94t-165 35q-105 0 -189.5 -47.5t-137 -127.5t-80 -180.5t-27.5 -211.5zM72 662q0 109 31 214t95 198.5t155 164
t219.5 111.5t279.5 41q143 0 263 -37t202.5 -100t140 -147.5t84.5 -179.5t27 -196q0 -111 -32 -219t-98 -205t-157.5 -171t-219.5 -117.5t-276 -43.5q-138 0 -256 38t-201 104t-142 153.5t-87 187t-28 204.5z" />
    <glyph glyph-name="P" unicode="P" horiz-adv-x="1200" 
d="M98 -6v76q64 8 101 41.5t37 85.5v958q0 41 -3.5 61t-20.5 38.5t-47 28.5t-87 22v61h575q77 0 148 -10.5t140.5 -37t120 -66.5t81.5 -103.5t31 -144.5q0 -136 -78 -243.5t-200.5 -159t-254.5 -38.5v78q116 10 173.5 88t57.5 205q0 153 -83 239.5t-207 86.5h-47l-25 -25
v-1038q0 -26 -2.5 -52.5t-5.5 -39.5l-2 -13l194 -18l-8 -68z" />
    <glyph glyph-name="Q" unicode="Q" horiz-adv-x="1640" 
d="M588 -2q-166 40 -285 142.5t-175 235.5t-56 283q0 110 31 215t95 199t155 164.5t219.5 112t279.5 41.5q143 0 263 -37t202.5 -100t140 -147.5t84.5 -179.5t27 -196q0 -110 -33.5 -218.5t-96.5 -204.5t-162.5 -173t-223.5 -119q26 -16 67.5 -60.5t86 -92.5t98.5 -95
t123 -77.5t141 -30.5q31 0 65 6v-74q-4 -3 -12.5 -8t-35.5 -18t-56 -23t-72.5 -18t-87.5 -8q-64 0 -124 18.5t-102.5 43t-89.5 67t-72 71.5t-64 76t-52 62q-25 28 -51.5 49.5t-45 34t-47.5 23.5t-42 14.5t-47 11t-45 10.5zM373 721q0 -118 31.5 -230.5t88.5 -203.5t147 -147
t198 -56q102 0 185 50.5t134.5 135t79 188.5t27.5 216q0 92 -17.5 179.5t-55 165.5t-90.5 136.5t-129 92.5t-165 34q-85 0 -156.5 -31t-122 -84.5t-86 -125t-52.5 -152.5t-17 -168z" />
    <glyph glyph-name="R" unicode="R" horiz-adv-x="1351" 
d="M98 -6v76q64 8 101 41.5t37 85.5v958q0 41 -3.5 61t-20.5 38.5t-47 28.5t-87 22v61h579q130 0 229 -27t156.5 -74.5t86 -105t28.5 -123.5q0 -195 -252 -352v-35l297 -446q28 -42 51.5 -68.5t44 -37.5t30.5 -14t30 -5l22 -2l-8 -76h-393l-8 8q-27 88 -117 223l-231 351
h-88l-25 -25v-360q0 -26 -2.5 -52.5t-5.5 -39.5l-2 -13l184 -18l-8 -68zM510 688h149q75 0 136 76t61 209q0 130 -67 208.5t-203 78.5h-51l-25 -25v-547z" />
    <glyph glyph-name="S" unicode="S" horiz-adv-x="1058" 
d="M78 184q0 51 61 228h80q0 -77 19 -137.5t48.5 -96.5t70 -59.5t79.5 -32t80 -8.5q92 0 157.5 46t65.5 134q0 64 -35 118t-90.5 93.5t-123.5 78t-135.5 81t-123 92t-90.5 122.5t-35 161q0 171 125.5 279t356.5 108q35 0 71 -2t81.5 -7.5t68 -8.5t79.5 -11.5t66 -9.5
l-67 -340h-80q3 127 -52.5 201.5t-183.5 74.5q-103 0 -163 -48t-60 -130q0 -65 35 -118.5t90.5 -91.5t123 -74t135.5 -77t123.5 -90t90.5 -123.5t35 -166.5q0 -128 -65 -218.5t-170.5 -133t-239.5 -42.5q-73 0 -144.5 11.5t-135.5 35.5t-105 66t-43 96z" />
    <glyph glyph-name="T" unicode="T" horiz-adv-x="1335" 
d="M387 -6v76q65 8 101 43t36 90v1057h-176q-102 0 -158 -48.5t-116 -199.5h-80l63 366q54 -12 138 -12h1007q37 0 74 3t56 6l18 3l-64 -366h-80q0 77 -12.5 126t-41 76t-67.5 36.5t-100 9.5h-162l-24 -25v-1032q0 -27 -2.5 -55t-5.5 -42l-3 -14l205 -18l-8 -68z" />
    <glyph glyph-name="U" unicode="U" horiz-adv-x="1509" 
d="M176 479v676q0 31 -0.5 44t-5 31t-12 25.5t-24 18t-40 17t-59.5 14.5v61h149q115 0 196 2t104 4l24 2l10 -8q-3 -3 -7.5 -9.5t-16 -30.5t-20.5 -51t-16 -72.5t-7 -94.5v-612q0 -101 32.5 -180t86.5 -126.5t120 -71.5t139 -24q97 0 180 42.5t138 132.5t55 212v664
q0 28 -1 42t-5 33.5t-13.5 29t-26.5 21t-44 17.5t-65 10v68h423l11 -39q-6 -2 -16.5 -6.5t-36.5 -22t-46 -40t-36.5 -62.5t-16.5 -88v-621q0 -165 -76.5 -282.5t-202.5 -173.5t-288 -56q-86 0 -167 16t-158 54.5t-134.5 95t-92 143.5t-34.5 195z" />
    <glyph glyph-name="V" unicode="V" horiz-adv-x="1253" 
d="M565 6l-471 1186q-15 40 -43 68t-49 36l-20 9v61h114q71 0 146 2t114 4l39 2l8 -8q-20 -39 -24 -90.5t12 -97.5l266 -709q16 -43 39 -127l322 784q30 67 9 111.5t-103 67.5v61h340l10 -39q-8 -5 -21 -16.5t-49.5 -65t-66.5 -127.5l-469 -1136z" />
    <glyph glyph-name="W" unicode="W" horiz-adv-x="1953" 
d="M1317 6l-342 905l-295 -929l-119 24l-471 1186q-16 40 -44 68t-48 36l-21 9v61h115l293 8l8 -8q-20 -39 -24 -91t12 -97l262 -695q22 -59 37 -127l229 727l-39 109q-15 40 -43 68t-49 36l-20 9v61h114l293 8l9 -8q-19 -38 -23 -90.5t10 -97.5l240 -699q21 -68 33 -127
l247 774q26 68 6.5 112.5t-100.5 66.5v61h336l10 -39q-3 -2 -9 -5.5t-23.5 -19.5t-33.5 -37t-36 -60t-35 -87l-358 -1136z" />
    <glyph glyph-name="X" unicode="X" horiz-adv-x="1314" 
d="M6 0v70q100 10 170 98l365 485l-375 561q-20 33 -52.5 55.5t-55.5 28.5l-23 7v61h117l305 8l8 -8q-4 -8 -8 -22.5t-1.5 -53t23.5 -71.5l240 -371l250 334q32 50 4 85.5t-84 37.5v61h377l10 -39q-8 -3 -22.5 -10.5t-55 -41.5t-76.5 -81l-338 -444l443 -664l88 -18l-8 -68
h-86l-404 -6v74q57 7 68.5 25.5t-15.5 56.5l-262 403l-342 -455l187 -24l-9 -74h-438z" />
    <glyph glyph-name="Y" unicode="Y" horiz-adv-x="1212" 
d="M338 -6v76q65 8 101 43t36 90v401l-377 610q-22 36 -49 58.5t-43 27.5l-16 5v61h108q81 0 153.5 2t104.5 4l33 2l8 -8q-4 -9 -9 -24t-5 -54t18 -69l226 -381q35 -64 57 -115l277 455q15 28 16.5 53t-23.5 45.5t-75 28.5v61h348l10 -39q-7 -3 -19.5 -9t-45 -36t-58.5 -72
l-364 -581v-426q0 -27 -3 -55t-5 -42l-3 -14l174 -18l-8 -68z" />
    <glyph glyph-name="Z" unicode="Z" horiz-adv-x="1226" 
d="M51 -8l-12 74q43 32 113 145l583 948q25 41 70 101h-322q-59 0 -100 -9t-80.5 -35.5t-71 -76t-61.5 -127.5h-80l53 354h854q36 0 68.5 2t47.5 4l15 2l9 -74q-44 -45 -103 -145l-577 -944q-18 -33 -76 -105h391q117 0 181.5 57t142.5 226h80l-86 -389h-908q-36 0 -68.5 -2
t-47.5 -4z" />
    <glyph glyph-name="bracketleft" unicode="[" horiz-adv-x="598" 
d="M156 -332v1698h409v-115h-231v-1468h231v-115h-409z" />
    <glyph glyph-name="backslash" unicode="\" horiz-adv-x="716" 
d="M623 -401l-680 1767h161l682 -1767h-163z" />
    <glyph glyph-name="bracketright" unicode="]" horiz-adv-x="598" 
d="M33 -217h231v1468h-231v115h409v-1698h-409v115z" />
    <glyph glyph-name="asciicircum" unicode="^" horiz-adv-x="1167" 
d="M74 512l438 879h143l439 -879h-166l-346 696l-346 -696h-162z" />
    <glyph glyph-name="underscore" unicode="_" horiz-adv-x="1032" 
d="M4 -76h1024v-121h-1024v121z" />
    <glyph glyph-name="grave" unicode="`" horiz-adv-x="1024" 
d="M313 1399v55l248 -22l156 -351l-82 -43z" />
    <glyph glyph-name="a" unicode="a" horiz-adv-x="989" 
d="M37 205q0 74 39.5 134.5t107 100t142.5 64.5t159 37l72 10q0 166 -10 215q-20 98 -96 98q-33 0 -65 -22.5t-55 -55t-41 -64.5t-27 -54l-9 -23h-94l-45 180q7 5 19.5 14t56 31.5t90.5 40t120 31.5t148 14q157 0 212.5 -64.5t55.5 -227.5v-461q0 -49 10.5 -73t38.5 -24
q19 0 41.5 9t35.5 17l13 9l33 -55q-4 -5 -11.5 -12t-33.5 -26.5t-53.5 -34t-70 -26.5t-85.5 -12q-79 0 -125.5 36.5t-46.5 101.5v32q-4 -7 -12.5 -18.5t-36.5 -40.5t-59 -51.5t-80 -41t-99 -18.5q-98 0 -168.5 60.5t-70.5 169.5zM401 137q77 0 154 66v256l-55 -10
q-87 -15 -142 -63t-55 -130q0 -52 24.5 -85.5t73.5 -33.5z" />
    <glyph glyph-name="b" unicode="b" horiz-adv-x="1097" 
d="M401 98q36 -20 99 -20q129 0 199.5 105t70.5 263q0 67 -13.5 127.5t-41 111t-75 80.5t-108.5 30q-55 0 -131 -31v-666zM119 6q20 72 20 205v1016q0 38 -1.5 57.5t-7 40.5t-18.5 29t-34 8h-76v65q146 29 249.5 55.5t134.5 37.5l30 12l6 -6q-21 -74 -21 -232v-282
q0 -62 -4 -123t-4 -64q94 131 269 131q74 0 137 -25t107 -67t75 -99t46 -120.5t15 -130.5q0 -100 -35 -193.5t-102.5 -172t-179.5 -126t-252 -47.5q-64 0 -188.5 12.5t-159.5 12.5z" />
    <glyph glyph-name="c" unicode="c" horiz-adv-x="917" 
d="M55 440q0 93 32.5 183.5t92 165.5t154.5 121t209 46q51 0 104.5 -8.5t105.5 -26.5t85.5 -51t33.5 -77q0 -40 -28 -70.5t-72 -30.5q-32 0 -57 18t-43 43.5t-37.5 51t-50 43.5t-70.5 18q-100 0 -157.5 -98t-57.5 -240q0 -163 79.5 -265.5t231.5 -102.5q63 0 123.5 18
t89.5 36l29 17l25 -59q-5 -8 -14 -21.5t-42.5 -47.5t-73 -59.5t-106.5 -47t-141 -21.5q-104 0 -189.5 39t-140.5 104t-85 148t-30 174z" />
    <glyph glyph-name="d" unicode="d" horiz-adv-x="1140" 
d="M55 410q0 102 37 199t104.5 175t171.5 125t228 47q25 0 51.5 -2t40.5 -4l14 -2v279q0 38 -1.5 57.5t-7 40.5t-18.5 29t-34 8h-76v65q146 29 249.5 55.5t133.5 37.5l31 12l6 -6q-20 -74 -20 -232v-1089q0 -42 7 -67t25.5 -35.5t33.5 -12.5t48 -2h47l-6 -65
q-122 -10 -227 -20.5t-149 -15.5l-44 -5l-4 4q15 61 15 112v33q-42 -68 -119.5 -112t-161.5 -44q-158 0 -266.5 126t-108.5 309zM553 143q75 0 149 41v564q0 34 -9 56.5t-26 32t-31.5 12.5t-33.5 3q-87 0 -151 -53.5t-93.5 -134.5t-29.5 -177q0 -61 13 -120t39 -110
t71 -82.5t102 -31.5z" />
    <glyph glyph-name="e" unicode="e" horiz-adv-x="946" 
d="M55 449q0 212 134.5 359.5t332.5 147.5q72 0 135 -21.5t115 -64t83 -114t34 -164.5q-94 -33 -135 -39l-435 -66l-18 -24q9 -63 30.5 -115t58 -95.5t94.5 -68t134 -24.5q65 0 126 20.5t90 41.5l28 20l25 -60q-5 -8 -14 -22t-42 -50t-71.5 -63t-104 -49.5t-137.5 -22.5
q-109 0 -198.5 39.5t-146.5 106t-87.5 151t-30.5 177.5zM479 858q-79 0 -127.5 -79t-54.5 -197l336 43q0 9 -1.5 25t-10.5 56t-24 71t-46 56t-72 25z" />
    <glyph glyph-name="f" unicode="f" horiz-adv-x="716" 
d="M66 -6v69q116 14 116 134v604h-125v88l125 45v63q0 146 63 264t169 183t231 65q63 0 122 -14t102.5 -48t43.5 -81t-31.5 -78t-76.5 -31q-33 0 -69.5 23t-62.5 50t-56 50t-52 23q-66 0 -93.5 -84t-27.5 -277v-110h267l-21 -125h-221l-25 -25v-585q0 -27 -2.5 -55t-5.5 -42
l-2 -14l215 -18l-8 -62z" />
    <glyph glyph-name="g" unicode="g" horiz-adv-x="1017" 
d="M104 139q0 18 5 34.5t16.5 31t21.5 26.5t30 24t31 19.5t35.5 18t33 14t33 13t26.5 10.5q-122 28 -197.5 104t-75.5 195q0 102 60 178t153 112.5t203 36.5q67 0 154 -20.5t143 -20.5h98q29 0 63 6.5t53 13.5l20 7l-23 -160h-84q-20 0 -38 1.5t-26 2.5l-8 2q3 -2 7.5 -6
t16.5 -19t21.5 -32.5t17 -47t7.5 -62.5q0 -95 -60 -166.5t-154.5 -106.5t-207.5 -35q-51 0 -98 6q-31 -36 -31 -69q0 -47 212 -86l30 -6q67 -13 113 -24t104 -33.5t93.5 -49t60 -69t24.5 -95.5q0 -78 -48.5 -149t-125.5 -119t-172 -76t-188 -28q-70 0 -142 15.5t-134.5 44.5
t-102 76.5t-39.5 104.5q0 36 16.5 68t39.5 54.5t60 44t66.5 34t69.5 27.5q-183 51 -183 155zM477 -61q-15 3 -43 9t-50.5 11t-41.5 10q-84 -79 -84 -174q0 -84 68.5 -134t165.5 -50q61 0 121.5 19t104.5 59.5t44 91.5q0 18 -4.5 33t-17 27.5t-23.5 22t-34.5 19t-40 15.5
t-50 14.5t-53.5 13t-62 13.5zM483 403q84 0 123 60t39 155q0 100 -43 174t-127 74q-55 0 -91 -33.5t-50.5 -83.5t-14.5 -114q0 -102 39.5 -167t124.5 -65z" />
    <glyph glyph-name="h" unicode="h" horiz-adv-x="1189" 
d="M49 -6v69q117 14 117 134v1030q0 37 -1.5 57.5t-7.5 40.5t-18.5 28.5t-34.5 8.5h-75v65q146 29 249 55.5t134 37.5l30 12l7 -6q-21 -74 -21 -232v-356q0 -62 -4 -122.5t-4 -63.5q156 204 358 204q113 0 178.5 -67t65.5 -209v-483q0 -27 -2.5 -54.5t-5.5 -40.5l-2 -14
l164 -20l-9 -62l-499 -12v69q92 13 92 134v403q0 103 -26 139.5t-89 36.5q-119 0 -217 -76v-503q0 -27 -2.5 -55t-5.5 -42l-2 -14l129 -18l-8 -62z" />
    <glyph glyph-name="i" unicode="i" horiz-adv-x="616" 
d="M63 -6v69q117 14 117 134v485q0 38 -1.5 57.5t-7 40.5t-18.5 29t-34 8h-82v66q108 17 212.5 42.5t154.5 42.5l51 17l6 -6q-19 -68 -19 -234v-548q0 -27 -2.5 -55t-5.5 -42l-2 -14l164 -18l-8 -62zM293 1135q-66 0 -109 40t-43 103q0 64 43 104.5t109 40.5t108.5 -40.5
t42.5 -104.5q0 -63 -42.5 -103t-108.5 -40z" />
    <glyph glyph-name="j" unicode="j" horiz-adv-x="567" 
d="M166 -39v721q0 37 -1.5 57.5t-7.5 40.5t-18.5 28.5t-34.5 8.5h-81v66q108 17 212 42.5t155 42.5l50 17l6 -6q-18 -68 -18 -234v-647q0 -288 -120 -435.5t-339 -147.5l-24 59q89 12 155 123t66 264zM279 1135q-66 0 -109 40t-43 103q0 64 43 104.5t109 40.5t108.5 -40.5
t42.5 -104.5q0 -63 -42.5 -103t-108.5 -40z" />
    <glyph glyph-name="k" unicode="k" horiz-adv-x="1138" 
d="M49 -6v69q117 14 117 134v1030q0 37 -1.5 57.5t-7.5 40.5t-18.5 28.5t-34.5 8.5h-75v65q146 29 249 55.5t134 37.5l30 12l7 -6q-21 -74 -21 -232v-739h35l201 176q29 26 40 36.5t22 27t11 30.5q0 31 -63 45v62h395l10 -33q-16 -5 -41.5 -15t-83.5 -39.5t-90 -58.5
l-192 -172v-28q14 -23 26 -37l281 -365q54 -68 84 -87.5t70 -22.5l22 -2l-8 -72l-373 -6q-20 75 -69 141l-242 330h-35v-268q0 -27 -2.5 -55t-5.5 -42l-2 -14l143 -18l-8 -62z" />
    <glyph glyph-name="l" unicode="l" horiz-adv-x="604" 
d="M49 -6v69q117 14 117 134v1030q0 37 -1.5 57.5t-7.5 40.5t-18.5 28.5t-34.5 8.5h-75v65q146 29 249 55.5t134 37.5l30 12l7 -6q-21 -74 -21 -232v-1097q0 -27 -2.5 -55t-5.5 -42l-2 -14l164 -18l-9 -62z" />
    <glyph glyph-name="m" unicode="m" horiz-adv-x="1777" 
d="M63 -6v69q117 14 117 134v485q0 38 -1.5 57.5t-7 40.5t-18.5 29t-34 8h-82v66q108 17 211.5 42.5t153.5 42.5l49 17l6 -6q-19 -45 -29 -227q152 204 348 204q95 0 160.5 -48t81.5 -146q155 194 344 194q114 0 181 -67t67 -209v-483q0 -27 -3 -54.5t-5 -40.5l-3 -14
l164 -20l-8 -62l-495 -12v69q88 14 88 134v403q0 102 -27 139t-86 37q-43 0 -89 -12t-83 -41t-37 -68v-458q0 -27 -2.5 -54.5t-5.5 -40.5l-2 -14l131 -14l-10 -68l-461 -12v69q88 14 88 134v403q0 103 -26.5 139.5t-86.5 36.5q-118 0 -209 -76v-503q0 -27 -2.5 -54.5
t-5.5 -40.5l-2 -14l131 -14l-10 -68z" />
    <glyph glyph-name="n" unicode="n" horiz-adv-x="1204" 
d="M63 -6v69q117 14 117 134v485q0 38 -1.5 57.5t-7 40.5t-18.5 29t-34 8h-82v66q108 17 211.5 42.5t153.5 42.5l49 17l6 -6q-19 -45 -29 -227q65 85 158 144.5t207 59.5q112 0 177.5 -67t65.5 -209v-483q0 -27 -2.5 -54.5t-5.5 -40.5l-2 -14l164 -20l-8 -62l-500 -12v69
q92 13 92 134v403q0 103 -26 139.5t-89 36.5q-119 0 -217 -76v-503q0 -27 -2.5 -54.5t-5.5 -40.5l-2 -14l129 -20l-8 -62z" />
    <glyph glyph-name="o" unicode="o" horiz-adv-x="1118" 
d="M55 446q0 75 18 146t58.5 137.5t98.5 116.5t145.5 80t193.5 30q227 0 360.5 -126t133.5 -328q0 -79 -20.5 -154t-63 -143t-103 -119t-146.5 -81t-187 -30q-220 0 -354 131.5t-134 339.5zM338 500q0 -78 14 -152.5t41 -138.5t74.5 -103.5t107.5 -39.5q61 0 104.5 40.5
t63.5 105t28.5 127t6.5 124.5q-1 73 -14.5 141.5t-40 128.5t-72 96.5t-104.5 36.5q-53 0 -94 -30t-65.5 -82t-37 -116.5t-12.5 -137.5z" />
    <glyph glyph-name="p" unicode="p" horiz-adv-x="1120" 
d="M66 -504v70q59 36 77.5 78.5t18.5 119.5v918q0 37 -1.5 57.5t-7.5 40.5t-18.5 28.5t-34.5 8.5h-71v66q103 17 203.5 42.5t149.5 42.5l50 17l6 -6q-16 -55 -22 -178q117 155 278 155t266 -125.5t105 -310.5q0 -81 -21.5 -159t-66 -148t-107 -123t-150 -84t-188.5 -31
q-27 0 -54 2t-40 5l-14 2v-217q0 -27 -2.5 -56.5t-5.5 -44.5l-2 -16h204l-8 -60q-364 -45 -544 -94zM528 80q127 0 196 103t69 257q0 64 -12.5 123.5t-38 111t-70.5 82.5t-103 31q-61 0 -145 -40v-564q0 -62 29.5 -83t74.5 -21z" />
    <glyph glyph-name="q" unicode="q" horiz-adv-x="1099" 
d="M55 414q0 102 37 197.5t106 173t181.5 124.5t251.5 47q62 0 185 -12t159 -12l6 -6q-18 -90 -18 -205v-965q0 -26 -2.5 -54.5t-5.5 -43.5l-3 -16h144l-9 -60q-109 -15 -235 -37t-197 -37l-71 -14v70q64 39 90 82.5t26 113.5v160q0 62 4.5 122.5t4.5 63.5
q-96 -131 -269 -131q-92 0 -167.5 38t-121.5 101t-71 140.5t-25 159.5zM328 483q0 -65 13.5 -124.5t41 -110.5t75 -81t109.5 -30q54 0 133 31v666q-35 20 -98 20q-127 0 -200.5 -106.5t-73.5 -264.5z" />
    <glyph glyph-name="r" unicode="r" horiz-adv-x="843" 
d="M63 -6v69q117 14 117 134v483q0 38 -1.5 57.5t-7 40.5t-18.5 29t-34 8h-82v66q108 17 211.5 43t153.5 44l49 17l6 -6q-19 -45 -29 -250q5 9 15 24.5t41 54.5t63 69t79.5 54.5t92.5 24.5q61 0 94 -36t33 -86q0 -53 -35.5 -92.5t-95.5 -39.5q-35 0 -69 20.5t-58 20.5
q-29 0 -65.5 -16.5t-58.5 -32.5l-22 -16v-481q0 -27 -2.5 -55t-5.5 -42l-2 -14l184 -18l-8 -62z" />
    <glyph glyph-name="s" unicode="s" horiz-adv-x="802" 
d="M61 119q0 22 9.5 64.5t18.5 74.5l9 31h68q5 -62 27.5 -108.5t56 -71.5t68.5 -36.5t71 -11.5q58 0 93.5 30t35.5 83q0 41 -24 74t-62 57t-84.5 47.5t-93 51t-84.5 61t-62 85.5t-24 116q0 135 97 212.5t251 77.5q54 0 124.5 -9.5t114.5 -18.5l44 -10l-47 -232h-70
q-4 56 -21.5 95t-44 57t-50.5 25t-50 7q-56 0 -88.5 -29.5t-32.5 -80.5q0 -42 24 -74.5t62 -55.5t84 -45t92 -48.5t84 -59.5t62 -85t24 -118q0 -146 -101.5 -222.5t-260.5 -76.5q-49 0 -102 8t-103.5 24.5t-82.5 45.5t-32 66z" />
    <glyph glyph-name="t" unicode="t" horiz-adv-x="757" 
d="M158 244v424l6 133h-131v88q94 18 143 63l78 232l176 -6l6 -7q-18 -44 -18 -200v-39h291l-15 -125h-250l-24 -25v-454q0 -97 27 -143t102 -46q40 0 83.5 11.5t67.5 23.5l23 12l33 -53q-6 -6 -16.5 -17t-45.5 -38t-72.5 -48t-96 -38t-117.5 -17q-116 0 -183 66t-67 203z
" />
    <glyph glyph-name="u" unicode="u" horiz-adv-x="1175" 
d="M150 252v426q0 39 -1.5 60t-7.5 41.5t-18.5 29t-34.5 8.5h-61v68q156 27 255 47.5t120 27.5l22 7l6 -6q-18 -58 -18 -216v-415q0 -103 30 -144t86 -41q29 0 60.5 10t56 23.5t45.5 27.5t32 24l11 10v438q0 32 -0.5 49t-4 37.5t-9.5 30t-18 16t-29 6.5h-51v70
q149 26 246 46t119 27l22 7l6 -6q-19 -58 -19 -216v-540q0 -29 3.5 -49.5t12 -33t16 -20t24 -10.5t27 -3.5t32.5 -0.5h47l-6 -65q-122 -10 -225.5 -20.5t-145.5 -15.5l-43 -5l-4 4q15 61 15 112v86q-6 -8 -16 -22.5t-45 -50.5t-72 -63.5t-93.5 -50t-113.5 -22.5
q-117 0 -187.5 68t-70.5 209z" />
    <glyph glyph-name="v" unicode="v" horiz-adv-x="958" 
d="M403 2l-301 750q-18 45 -47.5 74.5t-50.5 36.5l-20 7v62h96q81 0 155.5 2t108.5 4l35 2l8 -8q-2 -4 -4.5 -10.5t-8 -27.5t-7.5 -42.5t1.5 -51.5t14.5 -57l139 -358q23 -61 39 -123l203 461q48 110 -113 147v62h303l11 -33q-25 -14 -66 -108l-360 -816z" />
    <glyph glyph-name="w" unicode="w" horiz-adv-x="1511" 
d="M399 2l-297 750q-18 46 -47.5 75.5t-50.5 36.5l-20 6v62h96q81 0 154 2t106 4l33 2l8 -8q-2 -4 -4.5 -10t-8 -27t-7.5 -42t1.5 -51t14.5 -59l133 -360q21 -65 37 -127l143 324q26 57 0 127l-18 45q-19 45 -46.5 74.5t-45.5 36.5l-17 7v62h86q81 0 154 2t106 4l33 2l8 -8
q-2 -4 -4.5 -10t-8 -27t-7.5 -42t1.5 -51t14.5 -59l133 -356q21 -65 37 -127l205 463q49 109 -109 147v62h297l11 -33q-23 -12 -66 -108l-362 -816l-123 27l-205 512l-240 -539z" />
    <glyph glyph-name="x" unicode="x" horiz-adv-x="1030" 
d="M547 -6v74q46 0 60 18t-11 59l-139 209l-213 -268l143 -18l-8 -62l-359 -12v69q89 11 140 72l241 301l-233 336q-26 43 -60.5 67.5t-55.5 27.5l-21 3v62h123q60 0 128 2t106 4l38 2l8 -8q-3 -8 -5.5 -22t3.5 -53t29 -73l117 -176l141 178q10 13 12 24t-4.5 19t-16 15
t-24.5 12t-28 8t-29 6v62h350l10 -33q-8 -2 -22 -7.5t-51 -31.5t-66 -63l-217 -273l313 -450l84 -8l-8 -60z" />
    <glyph glyph-name="y" unicode="y" horiz-adv-x="966" 
d="M162 -276q95 0 156.5 45.5t103.5 142.5l18 45q-20 62 -63 162l-277 633q-20 45 -49.5 74.5t-48.5 36.5l-20 7v62h96q81 0 155.5 2t108.5 4l35 2l8 -8q-19 -38 -20 -91.5t16 -97.5l149 -364q19 -49 39 -121l199 465q21 55 -13.5 92.5t-99.5 54.5v62h301l11 -33
q-31 -28 -66 -108l-309 -723q-7 -15 -24.5 -56.5t-29 -67.5t-32.5 -70.5t-38 -75t-41.5 -71t-47 -68t-52 -57t-57.5 -47t-62 -29t-69 -11.5q-53 0 -82.5 29.5t-29.5 74.5q0 43 32.5 74t102.5 31z" />
    <glyph glyph-name="z" unicode="z" horiz-adv-x="923" 
d="M59 -8l-16 63q31 27 74 99l362 587q19 33 74 101h-205q-44 0 -80 -18.5t-58.5 -48.5t-35 -55t-20.5 -50h-88l36 262h613q36 0 68.5 2t47.5 4l15 2l16 -63q-26 -27 -69 -99l-355 -583q-18 -31 -76 -103h179q56 0 101 20t70 48t42 56.5t22 48.5l6 20h90l-55 -285h-618
q-39 0 -74 -2t-51 -4z" />
    <glyph glyph-name="braceleft" unicode="{" horiz-adv-x="698" 
d="M238 -135v32v78t-2 83t-5.5 89.5t-11.5 85t-19 83t-29 69.5t-40.5 58.5t-53.5 36.5t-69 16v84q34 1 63 12t50 30t39 45t29.5 57.5t21 66.5t14 72.5t8 76.5t4 76.5t1.5 73.5t0 68v32q0 112 58 187t154 108t226 33l10 -84q-68 -5 -112 -20t-72 -38t-42 -67t-19 -94.5
t-5 -133.5q0 -456 -227 -540v-4q45 -17 83 -54t71.5 -101t53 -169t19.5 -240q0 -69 3 -113.5t12.5 -85.5t26 -65t45 -43.5t67.5 -29.5t96 -15l-10 -84q-438 0 -438 328z" />
    <glyph glyph-name="bar" unicode="|" horiz-adv-x="491" 
d="M154 -461v1995h184v-1995h-184z" />
    <glyph glyph-name="braceright" unicode="}" horiz-adv-x="698" 
d="M262 -27q0 135 19.5 240t53 169t71.5 101t83 54v4q-227 84 -227 540q0 83 -5 133.5t-19 94.5t-42 67t-72 38t-112 20l11 84q130 0 226 -33t154 -108t58 -187v-34v-76.5t2 -81t5.5 -86.5t11.5 -81.5t19 -79.5t28.5 -66t40 -55.5t53.5 -34.5t69 -15v-84q-34 -1 -62.5 -12.5
t-50 -31t-39 -47t-29 -60t-21 -69t-14 -75.5t-8 -79t-4 -78.5t-1.5 -75.5t0 -69v-34q0 -328 -438 -328l-11 84q57 5 96.5 15t68 29.5t45 43t25.5 65t12 86t3 113.5z" />
    <glyph glyph-name="asciitilde" unicode="~" horiz-adv-x="1206" 
d="M115 344q0 175 75 260.5t205 85.5q65 0 116.5 -22t84.5 -53t62 -62.5t65.5 -53.5t79.5 -22q41 0 70.5 20.5t43.5 54t19.5 65.5t5.5 65h148q0 -175 -75.5 -260.5t-205.5 -85.5q-65 0 -116.5 22t-84.5 53.5t-62 62.5t-65.5 53t-79.5 22q-41 0 -70.5 -20.5t-43.5 -54
t-19.5 -65.5t-5.5 -65h-147z" />
    <glyph glyph-name="uni00A0" unicode="&#xa0;" horiz-adv-x="444" 
 />
    <glyph glyph-name="exclamdown" unicode="&#xa1;" horiz-adv-x="604" 
d="M346 512l131 -930q-81 -16 -168.5 -37t-134.5 -34l-47 -13l-12 17q31 75 51 241l104 756h76zM469 799q0 -66 -46.5 -113t-111.5 -47q-66 0 -112.5 47t-46.5 113q0 65 46.5 111t112.5 46q65 0 111.5 -46.5t46.5 -110.5z" />
    <glyph glyph-name="cent" unicode="&#xa2;" horiz-adv-x="933" 
d="M66 559q0 82 29 159.5t83.5 141.5t141 104t192.5 44l10 184h92l-10 -191q64 -9 119.5 -27.5t97 -53.5t41.5 -78q0 -44 -23.5 -69t-66.5 -25q-35 0 -63 22.5t-60 64.5t-49 58l-31 -606h25q124 0 252 96l26 -55q-4 -7 -11 -18t-34.5 -40t-60.5 -53t-88 -46.5t-117 -29.5
l-8 -186h-92l8 184q-99 7 -177.5 44.5t-126.5 96t-73.5 130t-25.5 149.5zM332 657q0 -103 39 -196t108 -139l29 606q-86 -6 -131 -83t-45 -188z" />
    <glyph glyph-name="sterling" unicode="&#xa3;" horiz-adv-x="1091" 
d="M106 500v92h136l22 180q22 185 125.5 290t302.5 105q44 0 86.5 -6.5t82 -21t63.5 -40.5t24 -61q0 -44 -25.5 -68t-72.5 -24q-27 0 -51 13t-41.5 31t-35 36.5t-41.5 31.5t-52 13q-54 0 -73.5 -58.5t-35.5 -246.5l-16 -174h336l-15 -92h-329v-8q-7 -80 -31 -154t-44 -108
l-20 -35q15 -7 42 -17.5t106.5 -27.5t155.5 -17q219 0 249 137l15 70h78q-6 -65 -17 -116.5t-34.5 -105t-57.5 -89t-89.5 -58t-127.5 -22.5q-88 0 -158 22l-186 56q-34 10 -78 10q-69 0 -195 -37l-24 70q4 2 11.5 6t27 20t35 35t30.5 52t19 71l28 246h-125z" />
    <glyph glyph-name="yen" unicode="&#xa5;" horiz-adv-x="1120" 
d="M135 553v92h244l-223 369q-16 26 -40.5 43t-40.5 21l-16 3v62h82l283 6l6 -6q-3 -7 -6 -18t-3 -40.5t13 -52.5l148 -258q23 -43 55 -112l190 321q52 83 -59 98v62h281l8 -33q-5 -1 -13.5 -4t-32.5 -24t-46 -56l-236 -381h270v-92h-307v-129h307v-92h-307v-135
q0 -27 -2.5 -55t-5.5 -42l-2 -14l129 -18l-8 -62l-490 -12v69q117 14 117 134v135h-295v92h295v129h-295z" />
    <glyph glyph-name="brokenbar" unicode="&#xa6;" horiz-adv-x="446" 
d="M129 682v733h188v-733h-188zM129 365h188v-734h-188v734z" />
    <glyph glyph-name="section" unicode="&#xa7;" horiz-adv-x="970" 
d="M74 -285q3 -3 9.5 -8.5t30.5 -18.5t51 -23t72.5 -18.5t94.5 -8.5q72 0 127.5 24.5t87.5 66.5t50.5 98.5t17.5 120t-11 130.5l-106 586q-8 41 -12 66.5t-9.5 76t-5 85.5t7 81t22 77t43.5 58t68 39l11 -10q-22 -129 12 -316l129 -727q16 -71 13.5 -141.5t-16.5 -135
t-47.5 -120t-79.5 -96t-113.5 -63.5t-147.5 -23q-58 0 -113.5 13.5t-93.5 32.5t-67.5 38.5t-43.5 32.5l-14 14zM295 84l-129 727q-15 72 -11.5 142.5t17 135t47 120t79 96t112.5 63.5t147 23q58 0 113.5 -13.5t93.5 -32.5t67.5 -38.5t43.5 -32.5l14 -14l-33 -70
q-3 3 -9.5 8.5t-30.5 19t-51 23.5t-72.5 18.5t-94.5 8.5q-72 0 -127.5 -24.5t-87.5 -67t-50.5 -99t-17.5 -120t11 -130.5l106 -585q9 -47 13.5 -79.5t10.5 -90.5t0.5 -101t-18.5 -89.5t-44 -78t-77 -45.5l-10 11q12 72 9.5 141.5t-21.5 173.5z" />
    <glyph glyph-name="dieresis" unicode="&#xa8;" horiz-adv-x="1024" 
d="M281 1141q-62 0 -102 37.5t-40 97.5q0 61 40 99t102 38t101.5 -38t39.5 -99q0 -60 -39.5 -97.5t-101.5 -37.5zM743 1141q-62 0 -101.5 37.5t-39.5 97.5q0 61 39.5 99t101.5 38t102 -38t40 -99q0 -60 -40 -97.5t-102 -37.5z" />
    <glyph glyph-name="copyright" unicode="&#xa9;" horiz-adv-x="1540" 
d="M63 682q0 191 95 354t258 258t354 95t354 -95t258 -258t95 -354t-95 -354t-258 -258t-354 -95t-354 95t-258 258t-95 354zM168 682q0 -167 79.5 -307.5t218 -222.5t304.5 -82t304.5 82t218 222.5t79.5 307.5t-79.5 307.5t-218 222.5t-304.5 82t-304.5 -82t-218 -222.5
t-79.5 -307.5zM354 674q0 63 17 124.5t54 118t89 99.5t128.5 68.5t166.5 25.5q46 0 96 -10.5t99 -26t63 -18.5l-35 -238h-74q-7 123 -55 167t-125 44q-93 0 -152 -88.5t-59 -216.5q0 -148 76 -236t193 -88q61 0 121 21.5t90 43.5l30 21l23 -69q-49 -64 -137.5 -104
t-165.5 -40q-184 0 -313.5 110.5t-129.5 291.5z" />
    <glyph glyph-name="ordfeminine" unicode="&#xaa;" horiz-adv-x="800" 
d="M246 702q-74 0 -125 42.5t-51 121.5q0 70 50 122.5t127.5 81t178.5 40.5v39q0 83 -14.5 126.5t-51.5 43.5q-34 0 -67.5 -38.5t-50.5 -76.5l-17 -39h-71l-33 131q5 4 14 10.5t40.5 22.5t65.5 28.5t86.5 23t106.5 10.5q113 0 153 -45.5t40 -161.5v-316q0 -35 5.5 -51
t22.5 -16q13 0 29 7.5t26 15.5l9 7l29 -49q-9 -9 -24.5 -22.5t-64.5 -35.5t-98 -22q-61 0 -96 28t-35 79q-3 -4 -9 -11.5t-25 -26t-39.5 -32.5t-50.5 -25.5t-60 -11.5zM332 823q17 0 40 10.5t38 20.5l14 10v168q-76 -9 -116 -43t-40 -88q0 -34 15.5 -56t48.5 -22z" />
    <glyph glyph-name="guillemotleft" unicode="&#xab;" horiz-adv-x="1046" 
d="M55 514v8q32 23 91 82t341 352l74 -20q-100 -172 -162 -276.5t-74 -123.5l-12 -18q23 -34 248 -416l-74 -20q-253 263 -324.5 334t-107.5 98zM467 514v8q32 23 91 82t341 352l74 -20q-100 -172 -162 -276.5t-74 -123.5l-12 -18q23 -34 248 -416l-74 -20
q-253 263 -324.5 334t-107.5 98z" />
    <glyph glyph-name="logicalnot" unicode="&#xac;" 
d="M43 664v143h928v-580h-152v437h-776z" />
    <glyph glyph-name="registered" unicode="&#xae;" horiz-adv-x="835" 
d="M418 733q-146 0 -250.5 104t-104.5 250t104.5 250.5t250.5 104.5t250 -104.5t104 -250.5t-104 -250t-250 -104zM418 799q111 0 194.5 86.5t83.5 201.5t-83.5 201t-194.5 86q-114 0 -196.5 -85.5t-82.5 -201.5t82.5 -202t196.5 -86zM254 913v37q15 2 25 10.5t10 20.5v221
q0 19 -6.5 25.5t-34.5 13.5v25h149q154 0 154 -86q0 -49 -68 -88q13 -27 29 -50l45 -65q4 -7 9 -11.5t8 -7t8 -4.5t7 -2.5t8 -1t7 -0.5l-2 -35l-115 -2q-9 27 -32 62l-56 82h-16v-76l-4 -25l51 -6l-2 -32zM383 1225v-127h33q12 2 24.5 18.5t12.5 46.5q0 26 -16.5 44
t-47.5 18h-6z" />
    <glyph glyph-name="macron" unicode="&#xaf;" horiz-adv-x="1024" 
d="M248 1186v151h528v-151h-528z" />
    <glyph glyph-name="degree" unicode="&#xb0;" horiz-adv-x="618" 
d="M309 1008q56 0 94.5 39.5t38.5 97.5t-38.5 96.5t-94.5 38.5t-94.5 -38.5t-38.5 -96.5t38.5 -97.5t94.5 -39.5zM309 899q-104 0 -177 72t-73 174t73 174t177 72t177 -72t73 -174t-73 -174t-177 -72z" />
    <glyph glyph-name="plusminus" unicode="&#xb1;" 
d="M96 635v145h355v363h153v-363h348v-145h-348v-389h-153v389h-355zM127 0v145h836v-145h-836z" />
    <glyph glyph-name="twosuperior" unicode="&#xb2;" horiz-adv-x="702" 
d="M55 770l-18 64q11 11 44.5 43t44.5 43t37.5 37t38.5 39.5t30.5 33.5t31 36t23.5 32q82 122 82 221q0 72 -37.5 108.5t-95.5 36.5q-78 0 -152 -51l-45 51q5 6 14.5 16t41 35.5t65 45t84.5 35.5t102 16q101 0 176.5 -54t75.5 -147q0 -65 -48 -144t-100 -135t-176 -178
l-26 -26h223q56 0 79 23.5t42 84.5h67l-36 -266h-568z" />
    <glyph glyph-name="threesuperior" unicode="&#xb3;" horiz-adv-x="671" 
d="M270 756q-39 0 -76 4t-77.5 14t-65 31t-24.5 51q0 24 20.5 39.5t46.5 15.5q33 0 57.5 -14.5t38 -32.5t35.5 -32.5t51 -14.5q39 0 70 55t31 121q0 70 -40 115t-110 45l-59 -6v82q168 31 168 176q0 42 -27 62t-69 20q-68 0 -125 -37l-41 53l11.5 11.5t32.5 26.5t52 33
t69.5 26t86.5 12q104 0 173.5 -42t69.5 -124q0 -72 -62.5 -127.5t-144.5 -85.5q111 -17 186 -79.5t75 -139.5q0 -106 -103.5 -182t-249.5 -76z" />
    <glyph glyph-name="acute" unicode="&#xb4;" horiz-adv-x="1052" 
d="M391 1038l-82 43l156 351l248 22v-55z" />
    <glyph glyph-name="mu" unicode="&#xb5;" horiz-adv-x="1165" 
d="M135 -117v805q0 57 -3.5 109.5t-7.5 76.5l-3 23l282 55l9 -6q-15 -63 -15 -221v-381q0 -199 117 -199q78 0 195 84v469q0 57 -3.5 109.5t-7.5 76.5l-4 23l283 56l8 -7q-14 -63 -14 -221v-530q0 -64 18.5 -90.5t69.5 -26.5h63l6 -59q-145 -54 -227 -54q-178 0 -178 154v45
q-49 -89 -124.5 -144t-168.5 -55q-92 0 -164 72q5 -97 42.5 -245.5t37.5 -184.5q0 -49 -29 -75.5t-71 -26.5q-50 0 -84.5 37.5t-34.5 109.5q0 29 4 102.5t4 118.5z" />
    <glyph glyph-name="paragraph" unicode="&#xb6;" horiz-adv-x="1341" 
d="M342 -387q0 38 29 67t73 29q17 0 49 -8t46 -8q22 0 39 5t29.5 18t21 26t14.5 39t9 47t4.5 59t2 66.5t0.5 77.5v295h-28q-149 0 -266 43.5t-187.5 117t-106.5 164.5t-36 193q0 79 23 154t71 142t116 117t165 79.5t211 29.5h469q120 0 161 8l-20 -129h-135v-1245h-138v1245
h-153v-1071v-43v-46.5t-0.5 -41.5t-1.5 -46t-3 -41.5t-5 -46t-7 -41t-9.5 -45.5t-12.5 -42q-42 -119 -120.5 -192.5t-192.5 -73.5q-51 0 -81 29.5t-30 68.5z" />
    <glyph glyph-name="periodcentered" unicode="&#xb7;" horiz-adv-x="522" 
d="M260 365q-65 0 -111.5 46.5t-46.5 110.5q0 66 46.5 113t111.5 47q66 0 113 -47t47 -113q0 -65 -47 -111t-113 -46z" />
    <glyph glyph-name="cedilla" unicode="&#xb8;" horiz-adv-x="1024" 
d="M410 -178q0 28 20 72.5t40 75.5l19 30h74q-20 -63 -20 -86q0 -16 19.5 -29.5t47 -25.5t55 -28t47 -45t19.5 -69q0 -86 -69 -144t-175 -58q-59 0 -110 19.5t-73 38.5l-21 19l34 80q8 -6 22 -15t53 -24.5t75 -15.5q37 0 65.5 15t28.5 42q0 22 -23.5 40t-52 29.5t-52 32
t-23.5 46.5z" />
    <glyph glyph-name="onesuperior" unicode="&#xb9;" horiz-adv-x="598" 
d="M53 766v68l86 4q25 1 41 7.5t22.5 17.5t8.5 21t2 25v494q0 32 -5 45.5t-14.5 13t-23.5 -3.5l-123 -28l-18 73q116 29 220.5 58.5t150.5 44.5l46 14l7 -8q-17 -43 -17 -139v-564l-4 -61l162 -10l-6 -64z" />
    <glyph glyph-name="ordmasculine" unicode="&#xba;" horiz-adv-x="841" 
d="M410 702q-157 0 -252 93t-95 239q0 52 12.5 101.5t41 96.5t70 82t104 56t137.5 21q162 0 258 -89t96 -231q0 -69 -24 -134t-68.5 -118t-117.5 -85t-162 -32zM434 776q32 0 56.5 18.5t38.5 46.5t22.5 66t11 70.5t2.5 66.5q-1 68 -16 127.5t-50 102.5t-85 43
q-66 0 -100.5 -71.5t-34.5 -174.5q0 -54 9 -104.5t26.5 -94t48.5 -70t71 -26.5z" />
    <glyph glyph-name="guillemotright" unicode="&#xbb;" horiz-adv-x="1046" 
d="M485 102l248 416q-23 32 -248 418l74 20q282 -293 341 -352t91 -82v-8q-36 -27 -107.5 -98t-324.5 -334zM74 102l248 416q-23 32 -248 418l73 20q276 -286 338 -348t95 -86v-8q-37 -27 -110 -99.5t-323 -332.5z" />
    <glyph glyph-name="onequarter" unicode="&#xbc;" horiz-adv-x="1738" 
d="M92 535v67l86 4q25 1 41 7.5t22.5 18t8.5 21.5t2 25v493q0 32 -5 46t-14.5 13.5t-23.5 -3.5l-123 -29l-18 74q116 29 220.5 58.5t150.5 43.5l46 15l7 -9q-17 -43 -17 -139v-563l-4 -62l162 -10l-6 -63zM1004 215l-17 80l391 528l168 19q-6 -42 -6 -142v-381h139l-20 -104
h-119v-80l-4 -61l115 -11l-4 -59l-418 -8v61q42 4 67 25.5t25 52.5v80h-317zM1096 319h225v295zM543 0h-135l809 1403l106 -43z" />
    <glyph glyph-name="onehalf" unicode="&#xbd;" horiz-adv-x="1839" 
d="M88 535v67l86 4q25 1 41 7.5t22.5 18t8.5 21.5t2 25v493q0 32 -5 46t-14.5 13.5t-23.5 -3.5l-123 -29l-19 74q116 29 220.5 58.5t150.5 43.5l47 15l6 -9q-16 -43 -16 -139v-563l-4 -62l162 -10l-6 -63zM1171 0l-18 63q8 8 35 34t35 34t30.5 30t31.5 31.5t27 28t27.5 29
t22.5 25.5t22.5 28t18.5 25q82 122 82 221q0 72 -37.5 108.5t-95.5 36.5q-78 0 -152 -51l-45 51q5 6 14.5 16t41 35.5t65 45t84.5 35.5t102 16q101 0 176.5 -54t75.5 -147q0 -65 -48 -144t-100 -135t-176 -178l-26 -26h223q56 0 79 23.5t42 84.5h68l-37 -266h-568zM580 0
h-136l809 1403l107 -43z" />
    <glyph glyph-name="threequarters" unicode="&#xbe;" horiz-adv-x="1746" 
d="M1008 215l-17 80l391 528l168 19q-6 -42 -6 -142v-381h139l-20 -104h-119v-80l-4 -61l115 -11l-4 -59l-418 -8v61q42 4 67 25.5t25 52.5v80h-317zM305 524q-38 0 -76 4.5t-78 14.5t-65 31t-25 51q0 24 21 39.5t47 15.5q27 0 48 -9.5t34.5 -23.5t26 -28t31 -23.5
t42.5 -9.5q39 0 70 55t31 121q0 70 -40 115t-110 45l-59 -7v82q168 31 168 177q0 41 -27.5 61t-69.5 20q-68 0 -124 -36l-41 53l11.5 11.5t32 26t52 33t69.5 26t86 11.5q104 0 174 -42t70 -124q0 -72 -62.5 -127.5t-144.5 -85.5q111 -17 185.5 -79.5t74.5 -139.5
q0 -106 -103 -182t-249 -76zM547 0h-135l809 1403l106 -43zM1100 319h225v295z" />
    <glyph glyph-name="questiondown" unicode="&#xbf;" horiz-adv-x="792" 
d="M500 510q10 -46 10 -113q0 -63 -18.5 -119.5t-45.5 -95.5t-54 -72t-45.5 -64.5t-18.5 -57.5q0 -33 37.5 -69.5t91.5 -65.5t108 -53.5t91 -37.5l38 -14l-53 -268q-13 4 -35 12t-86 33.5t-122 52.5t-128.5 67.5t-121.5 80.5t-86 89.5t-35 96.5q0 36 22 74t57.5 72.5
t78.5 71.5t85.5 78.5t78 86t57.5 100.5t22 115h72zM618 799q0 -66 -46 -113t-111 -47q-66 0 -113 47t-47 113q0 65 47 111t113 46q65 0 111 -46t46 -111z" />
    <glyph glyph-name="Agrave" unicode="&#xc0;" horiz-adv-x="1280" 
d="M-35 0v70q103 10 137 96l476 1190l124 26l449 -1165q29 -75 58.5 -109.5t84.5 -41.5l-8 -66h-84l-399 -8v80q48 2 73 21t9 61l-97 264h-436l-35 -25l-114 -301l176 -22l-12 -70h-402zM621 891q-27 72 -52 158l-198 -519h379zM367 1579v59l88 146h10l393 -232l-39 -84z
" />
    <glyph glyph-name="Aacute" unicode="&#xc1;" horiz-adv-x="1280" 
d="M-35 0v70q103 10 137 96l476 1190l124 26l449 -1165q29 -75 58.5 -109.5t84.5 -41.5l-8 -66h-84l-399 -8v80q48 2 73 21t9 61l-97 264h-436l-35 -25l-114 -301l176 -22l-12 -70h-402zM621 891q-27 72 -52 158l-198 -519h379zM424 1552l393 232h10l88 -146v-59l-452 -111z
" />
    <glyph glyph-name="Acircumflex" unicode="&#xc2;" horiz-adv-x="1280" 
d="M-35 0v70q103 10 137 96l476 1190l124 26l449 -1165q29 -75 58.5 -109.5t84.5 -41.5l-8 -66h-84l-399 -8v80q48 2 73 21t9 61l-97 264h-436l-35 -25l-114 -301l176 -22l-12 -70h-402zM621 891q-27 72 -52 158l-198 -519h379zM293 1530l274 254h150l272 -254l-69 -62
l-269 146h-20l-269 -146z" />
    <glyph glyph-name="Atilde" unicode="&#xc3;" horiz-adv-x="1280" 
d="M-35 0v70q103 10 137 96l476 1190l124 26l449 -1165q29 -75 58.5 -109.5t84.5 -41.5l-8 -66h-84l-399 -8v80q48 2 73 21t9 61l-97 264h-436l-35 -25l-114 -301l176 -22l-12 -70h-402zM621 891q-27 72 -52 158l-198 -519h379zM354 1497l-88 19q0 5 1 13.5t6.5 33.5t14 48
t26 51t40 48t57.5 33.5t78 13.5q56 0 116.5 -26.5t115 -53t96.5 -26.5q41 0 68.5 26.5t34.5 52.5l8 27l90 -10q0 -5 -1 -14t-6 -35t-13.5 -49.5t-26.5 -52.5t-42 -50t-62 -35t-85 -14t-95 16.5t-80.5 37t-71 37t-70.5 16.5q-25 0 -45.5 -11t-32 -27t-19.5 -31.5t-11 -26.5z
" />
    <glyph glyph-name="Adieresis" unicode="&#xc4;" horiz-adv-x="1280" 
d="M-35 0v70q103 10 137 96l476 1190l124 26l449 -1165q29 -75 58.5 -109.5t84.5 -41.5l-8 -66h-84l-399 -8v80q48 2 73 21t9 61l-97 264h-436l-35 -25l-114 -301l176 -22l-12 -70h-402zM621 891q-27 72 -52 158l-198 -519h379zM244 1626q0 61 39.5 99t101.5 38t101.5 -38
t39.5 -99q0 -60 -39.5 -97.5t-101.5 -37.5t-101.5 37.5t-39.5 97.5zM758 1626q0 61 39.5 99t101.5 38t101.5 -38t39.5 -99q0 -60 -39.5 -97.5t-101.5 -37.5t-101.5 37.5t-39.5 97.5z" />
    <glyph glyph-name="Aring" unicode="&#xc5;" horiz-adv-x="1280" 
d="M-35 0v70q103 10 137 96l476 1190l124 26l449 -1165q29 -75 58.5 -109.5t84.5 -41.5l-8 -66h-84l-399 -8v80q48 2 73 21t9 61l-97 264h-436l-35 -25l-114 -301l176 -22l-12 -70h-402zM641 1450q-103 0 -155 49t-52 123q0 66 52.5 114t154.5 48t154.5 -48t52.5 -114
q0 -74 -52 -123t-155 -49zM621 891q-27 72 -52 158l-198 -519h379zM641 1532q43 0 68.5 25t25.5 63q0 32 -25 57t-69 25q-46 0 -69 -24.5t-23 -57.5q0 -38 24 -63t68 -25z" />
    <glyph glyph-name="AE" unicode="&#xc6;" horiz-adv-x="1820" 
d="M-51 0v70q54 5 83.5 30t53.5 66l557 1001q28 49 -9 82.5t-142 55.5v61h1071q37 0 76.5 2t60.5 4l20 2l-63 -362h-80q4 79 -6.5 128t-39.5 75.5t-69 35.5t-106 9h-228l-24 -25v-506h342l16 139l86 13v-392h-106v134h-314l-24 -25v-377q0 -27 -2.5 -56t-5.5 -44l-2 -15h284
q47 0 76.5 2.5t57.5 13t45 24t39 45t39.5 64.5t45.5 93h80l-75 -348h-644l-350 -6v76q65 8 101 40t36 87v426h-335l-35 -23l-277 -508l176 -22l-12 -70h-397zM758 1151l-230 -422h301v510q-39 -31 -71 -88z" />
    <glyph glyph-name="Ccedilla" unicode="&#xc7;" horiz-adv-x="1404" 
d="M616 -178q0 57 68 160q-187 24 -329 125.5t-213.5 246.5t-71.5 310q0 105 30.5 208.5t94 197t152.5 165t216 114t275 42.5q105 0 285.5 -28t197.5 -30l-61 -321h-80q-3 74 -33 129t-81.5 86.5t-114 46t-136.5 14.5q-119 0 -211 -44.5t-147 -121.5t-83 -172.5t-28 -204.5
q0 -139 47 -252t126.5 -186t182.5 -112t218 -39q66 0 131 14.5t110 35t81 41.5t54 35l17 15l35 -53q-7 -11 -20.5 -29t-63.5 -64.5t-108.5 -82t-156.5 -64.5t-206 -29q-5 0 -15.5 1t-15.5 1q-12 -40 -12 -63q0 -16 19.5 -29.5t47 -25.5t55 -28t47 -45t19.5 -69
q0 -86 -69 -144t-175 -58q-59 0 -110.5 19.5t-73.5 38.5l-21 19l35 80q8 -6 22 -15t53 -24.5t75 -15.5q37 0 65.5 15t28.5 42q0 22 -24 40t-52 29.5t-52 32t-24 46.5z" />
    <glyph glyph-name="Egrave" unicode="&#xc8;" horiz-adv-x="1226" 
d="M98 -6v76q66 8 102 40t36 87v958q0 41 -3.5 61t-20.5 38.5t-47 28.5t-87 22v61h891q37 0 76.5 2t60.5 4l20 2l-63 -362h-80q4 79 -6.5 128t-39.5 75.5t-69 35.5t-106 9h-227l-25 -25v-485h342l16 118l86 13v-392h-106v154h-313l-25 -25v-397q0 -27 -2.5 -56t-5.5 -44
l-2 -15h284q47 0 76.5 2.5t57.5 13t45 24t39 45t39.5 64.5t45.5 93h80l-75 -348h-643zM379 1579v59l88 146h10l393 -232l-39 -84z" />
    <glyph glyph-name="Eacute" unicode="&#xc9;" horiz-adv-x="1226" 
d="M98 -6v76q66 8 102 40t36 87v958q0 41 -3.5 61t-20.5 38.5t-47 28.5t-87 22v61h891q37 0 76.5 2t60.5 4l20 2l-63 -362h-80q4 79 -6.5 128t-39.5 75.5t-69 35.5t-106 9h-227l-25 -25v-485h342l16 118l86 13v-392h-106v154h-313l-25 -25v-397q0 -27 -2.5 -56t-5.5 -44
l-2 -15h284q47 0 76.5 2.5t57.5 13t45 24t39 45t39.5 64.5t45.5 93h80l-75 -348h-643zM436 1552l393 232h11l88 -146v-59l-453 -111z" />
    <glyph glyph-name="Ecircumflex" unicode="&#xca;" horiz-adv-x="1226" 
d="M98 -6v76q66 8 102 40t36 87v958q0 41 -3.5 61t-20.5 38.5t-47 28.5t-87 22v61h891q37 0 76.5 2t60.5 4l20 2l-63 -362h-80q4 79 -6.5 128t-39.5 75.5t-69 35.5t-106 9h-227l-25 -25v-485h342l16 118l86 13v-392h-106v154h-313l-25 -25v-397q0 -27 -2.5 -56t-5.5 -44
l-2 -15h284q47 0 76.5 2.5t57.5 13t45 24t39 45t39.5 64.5t45.5 93h80l-75 -348h-643zM305 1530l275 254h149l272 -254l-69 -62l-268 146h-21l-268 -146z" />
    <glyph glyph-name="Edieresis" unicode="&#xcb;" horiz-adv-x="1226" 
d="M98 -6v76q66 8 102 40t36 87v958q0 41 -3.5 61t-20.5 38.5t-47 28.5t-87 22v61h891q37 0 76.5 2t60.5 4l20 2l-63 -362h-80q4 79 -6.5 128t-39.5 75.5t-69 35.5t-106 9h-227l-25 -25v-485h342l16 118l86 13v-392h-106v154h-313l-25 -25v-397q0 -27 -2.5 -56t-5.5 -44
l-2 -15h284q47 0 76.5 2.5t57.5 13t45 24t39 45t39.5 64.5t45.5 93h80l-75 -348h-643zM256 1626q0 61 39.5 99t101.5 38t102 -38t40 -99q0 -60 -40 -97.5t-102 -37.5t-101.5 37.5t-39.5 97.5zM770 1626q0 61 39.5 99t101.5 38t102 -38t40 -99q0 -60 -40 -97.5t-102 -37.5
t-101.5 37.5t-39.5 97.5z" />
    <glyph glyph-name="Igrave" unicode="&#xcc;" horiz-adv-x="724" 
d="M96 -6v76q65 8 101 43t36 90v952q0 31 -0.5 44t-5 31t-12 25.5t-24 18t-40 17t-59.5 14.5v61h150q114 0 194.5 2t104.5 4l24 2l10 -8q-3 -4 -7.5 -10.5t-16 -31t-20.5 -52t-16 -72t-7 -92.5v-905q0 -27 -2.5 -55t-5.5 -42l-2 -14l174 -18l-8 -68zM82 1579v59l88 146h10
l393 -232l-38 -84z" />
    <glyph glyph-name="Iacute" unicode="&#xcd;" horiz-adv-x="724" 
d="M96 -6v76q65 8 101 43t36 90v952q0 31 -0.5 44t-5 31t-12 25.5t-24 18t-40 17t-59.5 14.5v61h150q114 0 194.5 2t104.5 4l24 2l10 -8q-3 -4 -7.5 -10.5t-16 -31t-20.5 -52t-16 -72t-7 -92.5v-905q0 -27 -2.5 -55t-5.5 -42l-2 -14l174 -18l-8 -68zM139 1552l393 232h11
l88 -146v-59l-453 -111z" />
    <glyph glyph-name="Icircumflex" unicode="&#xce;" horiz-adv-x="724" 
d="M96 -6v76q65 8 101 43t36 90v952q0 31 -0.5 44t-5 31t-12 25.5t-24 18t-40 17t-59.5 14.5v61h150q114 0 194.5 2t104.5 4l24 2l10 -8q-3 -4 -7.5 -10.5t-16 -31t-20.5 -52t-16 -72t-7 -92.5v-905q0 -27 -2.5 -55t-5.5 -42l-2 -14l174 -18l-8 -68zM8 1530l275 254h149
l273 -254l-70 -62l-268 146h-21l-268 -146z" />
    <glyph glyph-name="Idieresis" unicode="&#xcf;" horiz-adv-x="724" 
d="M10 1626q0 61 40 99t102 38t101.5 -38t39.5 -99q0 -60 -39.5 -97.5t-101.5 -37.5t-102 37.5t-40 97.5zM422 1626q0 61 39.5 99t101.5 38t102 -38t40 -99q0 -60 -40 -97.5t-102 -37.5t-101.5 37.5t-39.5 97.5zM96 -6v76q65 8 101 43t36 90v952q0 31 -0.5 44t-5 31
t-12 25.5t-24 18t-40 17t-59.5 14.5v61h150q114 0 194.5 2t104.5 4l24 2l10 -8q-3 -4 -7.5 -10.5t-16 -31t-20.5 -52t-16 -72t-7 -92.5v-905q0 -27 -2.5 -55t-5.5 -42l-2 -14l174 -18l-8 -68z" />
    <glyph glyph-name="Eth" unicode="&#xd0;" horiz-adv-x="1562" 
d="M78 639v113h176v403q0 41 -3.5 61t-20.5 38.5t-47 28.5t-87 22v61h609q162 0 301 -37t249.5 -111t174 -197.5t63.5 -283.5q0 -172 -67.5 -313t-184 -233t-270 -141.5t-328.5 -49.5h-176l-350 -6v76q65 8 101 40t36 87v442h-176zM518 106h125q267 0 407 147.5t140 424.5
q0 265 -126 423.5t-357 158.5h-154l-25 -25v-483h297v-113h-297v-418q0 -27 -2.5 -56t-5.5 -44z" />
    <glyph glyph-name="Ntilde" unicode="&#xd1;" horiz-adv-x="1607" 
d="M96 -6v76q70 8 109 40t39 87v880q0 100 -33.5 147.5t-132.5 80.5v61h59l269 8q24 -49 79 -106l717 -756q37 -40 84 -98v729q0 28 -1 42t-5.5 34t-15 30t-28.5 21t-46.5 17.5t-69.5 10.5v68h414l10 -39q-6 -2 -15.5 -5.5t-33.5 -19t-43 -36t-34 -59.5t-15 -87v-1130h-86
l-873 934q-38 38 -84 100v-827q0 -27 -2.5 -55t-5.5 -42l-2 -14l185 -12l-9 -68zM537 1497l-88 19q0 5 1 13.5t6.5 33.5t14 48t26 51t40 48t57.5 33.5t78 13.5q56 0 116.5 -26.5t114.5 -53t96 -26.5q41 0 68.5 26.5t34.5 52.5l8 27l90 -10q0 -5 -1 -14t-6 -35t-13.5 -49.5
t-26 -52.5t-41.5 -50t-62 -35t-85 -14t-95.5 16.5t-81 37t-71 37t-70.5 16.5q-39 0 -66.5 -27t-35.5 -53z" />
    <glyph glyph-name="Ograve" unicode="&#xd2;" horiz-adv-x="1638" 
d="M373 721q0 -118 31.5 -231.5t88.5 -206t147 -149t198 -56.5q102 0 185 50.5t134.5 135.5t79 190.5t27.5 221.5q0 92 -17.5 179.5t-55 166t-90.5 137.5t-129 94t-165 35q-105 0 -189.5 -47.5t-137 -127.5t-80 -180.5t-27.5 -211.5zM72 662q0 109 31 214t95 198.5t155 164
t219.5 111.5t279.5 41q143 0 263 -37t202.5 -100t140 -147.5t84.5 -179.5t27 -196q0 -111 -32 -219t-98 -205t-157.5 -171t-219.5 -117.5t-276 -43.5q-138 0 -256 38t-201 104t-142 153.5t-87 187t-28 204.5zM545 1579v59l88 146h10l393 -232l-39 -84z" />
    <glyph glyph-name="Oacute" unicode="&#xd3;" horiz-adv-x="1638" 
d="M373 721q0 -118 31.5 -231.5t88.5 -206t147 -149t198 -56.5q102 0 185 50.5t134.5 135.5t79 190.5t27.5 221.5q0 92 -17.5 179.5t-55 166t-90.5 137.5t-129 94t-165 35q-105 0 -189.5 -47.5t-137 -127.5t-80 -180.5t-27.5 -211.5zM72 662q0 109 31 214t95 198.5t155 164
t219.5 111.5t279.5 41q143 0 263 -37t202.5 -100t140 -147.5t84.5 -179.5t27 -196q0 -111 -32 -219t-98 -205t-157.5 -171t-219.5 -117.5t-276 -43.5q-138 0 -256 38t-201 104t-142 153.5t-87 187t-28 204.5zM602 1552l393 232h11l88 -146v-59l-453 -111z" />
    <glyph glyph-name="Ocircumflex" unicode="&#xd4;" horiz-adv-x="1638" 
d="M373 721q0 -118 31.5 -231.5t88.5 -206t147 -149t198 -56.5q102 0 185 50.5t134.5 135.5t79 190.5t27.5 221.5q0 92 -17.5 179.5t-55 166t-90.5 137.5t-129 94t-165 35q-105 0 -189.5 -47.5t-137 -127.5t-80 -180.5t-27.5 -211.5zM72 662q0 109 31 214t95 198.5t155 164
t219.5 111.5t279.5 41q143 0 263 -37t202.5 -100t140 -147.5t84.5 -179.5t27 -196q0 -111 -32 -219t-98 -205t-157.5 -171t-219.5 -117.5t-276 -43.5q-138 0 -256 38t-201 104t-142 153.5t-87 187t-28 204.5zM471 1530l274 254h150l272 -254l-69 -62l-269 146h-20l-268 -146
z" />
    <glyph glyph-name="Otilde" unicode="&#xd5;" horiz-adv-x="1638" 
d="M373 721q0 -118 31.5 -231.5t88.5 -206t147 -149t198 -56.5q102 0 185 50.5t134.5 135.5t79 190.5t27.5 221.5q0 92 -17.5 179.5t-55 166t-90.5 137.5t-129 94t-165 35q-105 0 -189.5 -47.5t-137 -127.5t-80 -180.5t-27.5 -211.5zM72 662q0 109 31 214t95 198.5t155 164
t219.5 111.5t279.5 41q143 0 263 -37t202.5 -100t140 -147.5t84.5 -179.5t27 -196q0 -111 -32 -219t-98 -205t-157.5 -171t-219.5 -117.5t-276 -43.5q-138 0 -256 38t-201 104t-142 153.5t-87 187t-28 204.5zM532 1497l-88 19q0 5 1 13.5t7 33.5t14.5 48t26 51t39.5 48
t57.5 33.5t78.5 13.5q56 0 116.5 -26.5t114.5 -53t96 -26.5q41 0 68.5 26.5t34.5 52.5l8 27l90 -10q0 -5 -1 -14t-6 -35t-13.5 -49.5t-26 -52.5t-41.5 -50t-62 -35t-85 -14t-95.5 16.5t-81 37t-71 37t-70.5 16.5q-25 0 -45.5 -11t-32 -27t-19.5 -31.5t-11 -26.5z" />
    <glyph glyph-name="Odieresis" unicode="&#xd6;" horiz-adv-x="1638" 
d="M373 721q0 -118 31.5 -231.5t88.5 -206t147 -149t198 -56.5q102 0 185 50.5t134.5 135.5t79 190.5t27.5 221.5q0 92 -17.5 179.5t-55 166t-90.5 137.5t-129 94t-165 35q-105 0 -189.5 -47.5t-137 -127.5t-80 -180.5t-27.5 -211.5zM72 662q0 109 31 214t95 198.5t155 164
t219.5 111.5t279.5 41q143 0 263 -37t202.5 -100t140 -147.5t84.5 -179.5t27 -196q0 -111 -32 -219t-98 -205t-157.5 -171t-219.5 -117.5t-276 -43.5q-138 0 -256 38t-201 104t-142 153.5t-87 187t-28 204.5zM422 1626q0 61 39.5 99t101.5 38t102 -38t40 -99
q0 -60 -40 -97.5t-102 -37.5t-101.5 37.5t-39.5 97.5zM936 1626q0 61 39.5 99t101.5 38t102 -38t40 -99q0 -60 -40 -97.5t-102 -37.5t-101.5 37.5t-39.5 97.5z" />
    <glyph glyph-name="multiply" unicode="&#xd7;" 
d="M63 889l105 100l364 -364l367 368l100 -104l-364 -367l377 -372l-105 -103l-375 373l-372 -375l-103 105l373 372z" />
    <glyph glyph-name="Oslash" unicode="&#xd8;" horiz-adv-x="1638" 
d="M72 662q0 109 31 214t95 198.5t155 164t219.5 111.5t279.5 41q214 0 371 -80l88 116h131l-129 -170q127 -92 191.5 -231t64.5 -295q0 -111 -32 -219t-98 -205t-157.5 -171t-219.5 -117.5t-276 -43.5q-214 0 -380 91l-97 -127h-133l141 186q-120 96 -182.5 238t-62.5 299z
M1264 676q0 217 -97 391l-637 -836q127 -153 308 -153q102 0 185 50.5t134.5 135.5t79 190.5t27.5 221.5zM373 721q0 -222 96 -397l635 831q-120 133 -297 133q-105 0 -189.5 -47.5t-137 -127.5t-80 -180.5t-27.5 -211.5z" />
    <glyph glyph-name="Ugrave" unicode="&#xd9;" horiz-adv-x="1509" 
d="M176 479v676q0 31 -0.5 44t-5 31t-12 25.5t-24 18t-40 17t-59.5 14.5v61h149q115 0 196 2t104 4l24 2l10 -8q-3 -3 -7.5 -9.5t-16 -30.5t-20.5 -51t-16 -72.5t-7 -94.5v-612q0 -101 32.5 -180t86.5 -126.5t120 -71.5t139 -24q97 0 180 42.5t138 132.5t55 212v664
q0 28 -1 42t-5 33.5t-13.5 29t-26.5 21t-44 17.5t-65 10v68h423l11 -39q-6 -2 -16.5 -6.5t-36.5 -22t-46 -40t-36.5 -62.5t-16.5 -88v-621q0 -165 -76.5 -282.5t-202.5 -173.5t-288 -56q-86 0 -167 16t-158 54.5t-134.5 95t-92 143.5t-34.5 195zM508 1579v59l88 146h10
l393 -232l-38 -84z" />
    <glyph glyph-name="Uacute" unicode="&#xda;" horiz-adv-x="1509" 
d="M176 479v676q0 31 -0.5 44t-5 31t-12 25.5t-24 18t-40 17t-59.5 14.5v61h149q115 0 196 2t104 4l24 2l10 -8q-3 -3 -7.5 -9.5t-16 -30.5t-20.5 -51t-16 -72.5t-7 -94.5v-612q0 -101 32.5 -180t86.5 -126.5t120 -71.5t139 -24q97 0 180 42.5t138 132.5t55 212v664
q0 28 -1 42t-5 33.5t-13.5 29t-26.5 21t-44 17.5t-65 10v68h423l11 -39q-6 -2 -16.5 -6.5t-36.5 -22t-46 -40t-36.5 -62.5t-16.5 -88v-621q0 -165 -76.5 -282.5t-202.5 -173.5t-288 -56q-86 0 -167 16t-158 54.5t-134.5 95t-92 143.5t-34.5 195zM565 1552l393 232h11
l88 -146v-59l-453 -111z" />
    <glyph glyph-name="Ucircumflex" unicode="&#xdb;" horiz-adv-x="1509" 
d="M176 479v676q0 31 -0.5 44t-5 31t-12 25.5t-24 18t-40 17t-59.5 14.5v61h149q115 0 196 2t104 4l24 2l10 -8q-3 -3 -7.5 -9.5t-16 -30.5t-20.5 -51t-16 -72.5t-7 -94.5v-612q0 -101 32.5 -180t86.5 -126.5t120 -71.5t139 -24q97 0 180 42.5t138 132.5t55 212v664
q0 28 -1 42t-5 33.5t-13.5 29t-26.5 21t-44 17.5t-65 10v68h423l11 -39q-6 -2 -16.5 -6.5t-36.5 -22t-46 -40t-36.5 -62.5t-16.5 -88v-621q0 -165 -76.5 -282.5t-202.5 -173.5t-288 -56q-86 0 -167 16t-158 54.5t-134.5 95t-92 143.5t-34.5 195zM434 1530l275 254h149
l272 -254l-69 -62l-268 146h-21l-268 -146z" />
    <glyph glyph-name="Udieresis" unicode="&#xdc;" horiz-adv-x="1509" 
d="M176 479v676q0 31 -0.5 44t-5 31t-12 25.5t-24 18t-40 17t-59.5 14.5v61h149q115 0 196 2t104 4l24 2l10 -8q-3 -3 -7.5 -9.5t-16 -30.5t-20.5 -51t-16 -72.5t-7 -94.5v-612q0 -101 32.5 -180t86.5 -126.5t120 -71.5t139 -24q97 0 180 42.5t138 132.5t55 212v664
q0 28 -1 42t-5 33.5t-13.5 29t-26.5 21t-44 17.5t-65 10v68h423l11 -39q-6 -2 -16.5 -6.5t-36.5 -22t-46 -40t-36.5 -62.5t-16.5 -88v-621q0 -165 -76.5 -282.5t-202.5 -173.5t-288 -56q-86 0 -167 16t-158 54.5t-134.5 95t-92 143.5t-34.5 195zM385 1626q0 61 39.5 99
t101.5 38t102 -38t40 -99q0 -60 -40 -97.5t-102 -37.5t-101.5 37.5t-39.5 97.5zM899 1626q0 61 39.5 99t101.5 38t102 -38t40 -99q0 -60 -40 -97.5t-102 -37.5t-101.5 37.5t-39.5 97.5z" />
    <glyph glyph-name="Yacute" unicode="&#xdd;" horiz-adv-x="1212" 
d="M338 -6v76q65 8 101 43t36 90v401l-377 610q-22 36 -49 58.5t-43 27.5l-16 5v61h108q81 0 153.5 2t104.5 4l33 2l8 -8q-4 -9 -9 -24t-5 -54t18 -69l226 -381q35 -64 57 -115l277 455q15 28 16.5 53t-23.5 45.5t-75 28.5v61h348l10 -39q-7 -3 -19.5 -9t-45 -36t-58.5 -72
l-364 -581v-426q0 -27 -3 -55t-5 -42l-3 -14l174 -18l-8 -68zM410 1552l393 232h10l88 -146v-59l-452 -111z" />
    <glyph glyph-name="Thorn" unicode="&#xde;" horiz-adv-x="1200" 
d="M639 317v78q116 10 173.5 80t57.5 182q0 139 -83 217t-207 78h-48l-24 -24v-725q0 -27 -2.5 -55t-5.5 -42l-2 -14l174 -18l-8 -68l-568 -12v76q65 8 101 43t36 90v952q0 31 -0.5 44t-5 31t-12 25.5t-24 18t-40 17t-59.5 14.5v61h150q114 0 194.5 2t104.5 4l24 2l10 -8
q-3 -4 -7.5 -10.5t-16 -31t-20.5 -52t-16 -72t-7 -92.5v-49h123q79 0 153.5 -11t145.5 -36t124 -62.5t85 -94.5t32 -128q0 -95 -46 -177.5t-120.5 -136t-171 -80t-194.5 -16.5z" />
    <glyph glyph-name="germandbls" unicode="&#xdf;" horiz-adv-x="1200" 
d="M63 -6v59q117 14 117 127v621h-125v88l125 45v57q0 89 31 175t89 158t154 116.5t214 44.5q151 0 249.5 -63.5t98.5 -182.5q0 -48 -22.5 -96t-54 -87.5t-63.5 -76t-54.5 -74t-22.5 -69.5t20.5 -63t54 -58.5t73.5 -57t79.5 -65t73 -75.5t54 -95t20.5 -117
q0 -143 -99 -236.5t-258 -93.5q-44 0 -88.5 7.5t-89.5 23.5t-73.5 47.5t-28.5 73.5q0 22 7 54.5t14 54.5l7 22h76q18 -99 63.5 -149t108.5 -50q56 0 98.5 34t42.5 95q0 39 -19 75t-49.5 65t-67.5 58.5t-74 62t-67.5 69t-49.5 85.5t-19 106q0 58 21 108.5t51 89t60.5 76.5
t51.5 87.5t21 105.5q0 88 -45 147t-131 59q-110 0 -152.5 -84t-42.5 -272v-917q0 -27 2 -52t4 -36l3 -11l-7 -6z" />
    <glyph glyph-name="agrave" unicode="&#xe0;" horiz-adv-x="989" 
d="M37 205q0 74 39.5 134.5t107 100t142.5 64.5t159 37l72 10q0 166 -10 215q-20 98 -96 98q-33 0 -65 -22.5t-55 -55t-41 -64.5t-27 -54l-9 -23h-94l-45 180q7 5 19.5 14t56 31.5t90.5 40t120 31.5t148 14q157 0 212.5 -64.5t55.5 -227.5v-461q0 -49 10.5 -73t38.5 -24
q19 0 41.5 9t35.5 17l13 9l33 -55q-4 -5 -11.5 -12t-33.5 -26.5t-53.5 -34t-70 -26.5t-85.5 -12q-79 0 -125.5 36.5t-46.5 101.5v32q-4 -7 -12.5 -18.5t-36.5 -40.5t-59 -51.5t-80 -41t-99 -18.5q-98 0 -168.5 60.5t-70.5 169.5zM401 137q77 0 154 66v256l-55 -10
q-87 -15 -142 -63t-55 -130q0 -52 24.5 -85.5t73.5 -33.5zM178 1399v55l248 -22l156 -351l-82 -43z" />
    <glyph glyph-name="aacute" unicode="&#xe1;" horiz-adv-x="989" 
d="M37 205q0 74 39.5 134.5t107 100t142.5 64.5t159 37l72 10q0 166 -10 215q-20 98 -96 98q-33 0 -65 -22.5t-55 -55t-41 -64.5t-27 -54l-9 -23h-94l-45 180q7 5 19.5 14t56 31.5t90.5 40t120 31.5t148 14q157 0 212.5 -64.5t55.5 -227.5v-461q0 -49 10.5 -73t38.5 -24
q19 0 41.5 9t35.5 17l13 9l33 -55q-4 -5 -11.5 -12t-33.5 -26.5t-53.5 -34t-70 -26.5t-85.5 -12q-79 0 -125.5 36.5t-46.5 101.5v32q-4 -7 -12.5 -18.5t-36.5 -40.5t-59 -51.5t-80 -41t-99 -18.5q-98 0 -168.5 60.5t-70.5 169.5zM401 137q77 0 154 66v256l-55 -10
q-87 -15 -142 -63t-55 -130q0 -52 24.5 -85.5t73.5 -33.5zM451 1038l-82 43l155 351l248 22v-55z" />
    <glyph glyph-name="acircumflex" unicode="&#xe2;" horiz-adv-x="989" 
d="M37 205q0 74 39.5 134.5t107 100t142.5 64.5t159 37l72 10q0 166 -10 215q-20 98 -96 98q-33 0 -65 -22.5t-55 -55t-41 -64.5t-27 -54l-9 -23h-94l-45 180q7 5 19.5 14t56 31.5t90.5 40t120 31.5t148 14q157 0 212.5 -64.5t55.5 -227.5v-461q0 -49 10.5 -73t38.5 -24
q19 0 41.5 9t35.5 17l13 9l33 -55q-4 -5 -11.5 -12t-33.5 -26.5t-53.5 -34t-70 -26.5t-85.5 -12q-79 0 -125.5 36.5t-46.5 101.5v32q-4 -7 -12.5 -18.5t-36.5 -40.5t-59 -51.5t-80 -41t-99 -18.5q-98 0 -168.5 60.5t-70.5 169.5zM174 1081l248 363h108l244 -363l-76 -51
l-223 225l-223 -225zM401 137q77 0 154 66v256l-55 -10q-87 -15 -142 -63t-55 -130q0 -52 24.5 -85.5t73.5 -33.5z" />
    <glyph glyph-name="atilde" unicode="&#xe3;" horiz-adv-x="989" 
d="M37 205q0 74 39.5 134.5t107 100t142.5 64.5t159 37l72 10q0 166 -10 215q-20 98 -96 98q-33 0 -65 -22.5t-55 -55t-41 -64.5t-27 -54l-9 -23h-94l-45 180q7 5 19.5 14t56 31.5t90.5 40t120 31.5t148 14q157 0 212.5 -64.5t55.5 -227.5v-461q0 -49 10.5 -73t38.5 -24
q19 0 41.5 9t35.5 17l13 9l33 -55q-4 -5 -11.5 -12t-33.5 -26.5t-53.5 -34t-70 -26.5t-85.5 -12q-79 0 -125.5 36.5t-46.5 101.5v32q-4 -7 -12.5 -18.5t-36.5 -40.5t-59 -51.5t-80 -41t-99 -18.5q-98 0 -168.5 60.5t-70.5 169.5zM401 137q77 0 154 66v256l-55 -10
q-87 -15 -142 -63t-55 -130q0 -52 24.5 -85.5t73.5 -33.5zM150 1141q-1 6 -1.5 16.5t0 40.5t4.5 57t17 60.5t33 57.5t55.5 40.5t81.5 16.5q40 0 74.5 -15t58.5 -37t46 -44t45.5 -37t47.5 -15q30 0 51 13.5t30 33t13.5 39.5t4.5 34v13h94q1 -6 1.5 -16.5t-0.5 -41t-6 -58
t-18.5 -61.5t-34 -58.5t-57 -41t-84.5 -16.5q-39 0 -72.5 15t-56.5 37t-44 44t-44 37t-47 15q-31 0 -52 -13.5t-29.5 -32t-13 -37.5t-3.5 -33v-13h-94z" />
    <glyph glyph-name="adieresis" unicode="&#xe4;" horiz-adv-x="989" 
d="M37 205q0 74 39.5 134.5t107 100t142.5 64.5t159 37l72 10q0 166 -10 215q-20 98 -96 98q-33 0 -65 -22.5t-55 -55t-41 -64.5t-27 -54l-9 -23h-94l-45 180q7 5 19.5 14t56 31.5t90.5 40t120 31.5t148 14q157 0 212.5 -64.5t55.5 -227.5v-461q0 -49 10.5 -73t38.5 -24
q19 0 41.5 9t35.5 17l13 9l33 -55q-4 -5 -11.5 -12t-33.5 -26.5t-53.5 -34t-70 -26.5t-85.5 -12q-79 0 -125.5 36.5t-46.5 101.5v32q-4 -7 -12.5 -18.5t-36.5 -40.5t-59 -51.5t-80 -41t-99 -18.5q-98 0 -168.5 60.5t-70.5 169.5zM401 137q77 0 154 66v256l-55 -10
q-87 -15 -142 -63t-55 -130q0 -52 24.5 -85.5t73.5 -33.5zM244 1141q-62 0 -102 37.5t-40 97.5q0 61 40 99t102 38t101.5 -38t39.5 -99q0 -60 -39.5 -97.5t-101.5 -37.5zM707 1141q-62 0 -102 37.5t-40 97.5q0 61 40 99t102 38t101.5 -38t39.5 -99q0 -60 -39.5 -97.5
t-101.5 -37.5z" />
    <glyph glyph-name="aring" unicode="&#xe5;" horiz-adv-x="989" 
d="M37 205q0 74 39.5 134.5t107 100t142.5 64.5t159 37l72 10q0 166 -10 215q-20 98 -96 98q-33 0 -65 -22.5t-55 -55t-41 -64.5t-27 -54l-9 -23h-94l-45 180q7 5 19.5 14t56 31.5t90.5 40t120 31.5t148 14q157 0 212.5 -64.5t55.5 -227.5v-461q0 -49 10.5 -73t38.5 -24
q19 0 41.5 9t35.5 17l13 9l33 -55q-4 -5 -11.5 -12t-33.5 -26.5t-53.5 -34t-70 -26.5t-85.5 -12q-79 0 -125.5 36.5t-46.5 101.5v32q-4 -7 -12.5 -18.5t-36.5 -40.5t-59 -51.5t-80 -41t-99 -18.5q-98 0 -168.5 60.5t-70.5 169.5zM475 1096q-100 0 -153.5 57t-53.5 129
q0 71 53 125.5t154 54.5t154 -54.5t53 -125.5q0 -72 -53.5 -129t-153.5 -57zM401 137q77 0 154 66v256l-55 -10q-87 -15 -142 -63t-55 -130q0 -52 24.5 -85.5t73.5 -33.5zM475 1184q43 0 68.5 28t25.5 68q0 39 -24.5 66.5t-69.5 27.5q-46 0 -69 -27t-23 -67q0 -41 24 -68.5
t68 -27.5z" />
    <glyph glyph-name="ae" unicode="&#xe6;" horiz-adv-x="1449" 
d="M33 207q0 76 43 139t119 105.5t169.5 70t204.5 41.5v49q0 55 -3.5 93.5t-13 78t-31 60t-54.5 20.5q-35 0 -68.5 -22.5t-56.5 -55t-41 -64.5t-27 -54l-8 -23h-94l-45 180q7 5 20 14t56.5 31.5t89.5 40t116.5 31.5t141.5 14q93 0 141 -25t76 -73q120 98 262 98
q147 0 251 -93t110 -271q-89 -29 -136 -35l-446 -59q4 -66 23 -124t55.5 -107.5t97 -78t139.5 -28.5q43 0 84 8.5t69 20.5t50 24t33 21l10 8l25 -60q-5 -8 -14.5 -22t-44 -50t-75.5 -63t-109 -49.5t-144 -22.5q-134 0 -228.5 63.5t-144.5 170.5q-16 -41 -39.5 -78t-62 -74.5
t-97 -59.5t-129.5 -22q-117 0 -195.5 60t-78.5 172zM395 137q70 0 121 69.5t51 155.5v107q-268 -39 -268 -211q0 -52 25.5 -86.5t70.5 -34.5zM985 858q-67 0 -114.5 -75t-59.5 -187l319 39q0 9 -1 24t-8.5 53.5t-21.5 68t-43.5 53.5t-70.5 24z" />
    <glyph glyph-name="ccedilla" unicode="&#xe7;" horiz-adv-x="917" 
d="M352 -178q0 57 68 160q-170 27 -267.5 157t-97.5 301q0 93 32.5 183.5t92 165.5t154.5 121t209 46q51 0 104.5 -8.5t105.5 -26.5t85.5 -51t33.5 -77q0 -40 -28 -70.5t-72 -30.5q-32 0 -57 18t-43 43.5t-37.5 51t-50 43.5t-70.5 18q-100 0 -157.5 -98t-57.5 -240
q0 -163 79.5 -265.5t231.5 -102.5q63 0 123.5 18t89.5 36l29 17l25 -59q-5 -8 -14 -21.5t-42.5 -47.5t-73 -59.5t-106.5 -47t-141 -21.5h-2q-13 -43 -13 -61q0 -16 19.5 -29.5t47.5 -25.5t55.5 -28t47 -45t19.5 -69q0 -86 -69 -144t-175 -58q-59 0 -110.5 19.5t-73.5 38.5
l-21 19l35 80q8 -6 22 -15t53 -24.5t75 -15.5q37 0 65.5 15t28.5 42q0 22 -24 40t-52 29.5t-52 32t-24 46.5z" />
    <glyph glyph-name="egrave" unicode="&#xe8;" horiz-adv-x="946" 
d="M55 449q0 212 134.5 359.5t332.5 147.5q72 0 135 -21.5t115 -64t83 -114t34 -164.5q-94 -33 -135 -39l-435 -66l-18 -24q9 -63 30.5 -115t58 -95.5t94.5 -68t134 -24.5q65 0 126 20.5t90 41.5l28 20l25 -60q-5 -8 -14 -22t-42 -50t-71.5 -63t-104 -49.5t-137.5 -22.5
q-109 0 -198.5 39.5t-146.5 106t-87.5 151t-30.5 177.5zM186 1397v55l248 -22l156 -351l-82 -43zM479 858q-79 0 -127.5 -79t-54.5 -197l336 43q0 9 -1.5 25t-10.5 56t-24 71t-46 56t-72 25z" />
    <glyph glyph-name="eacute" unicode="&#xe9;" horiz-adv-x="946" 
d="M55 449q0 212 134.5 359.5t332.5 147.5q72 0 135 -21.5t115 -64t83 -114t34 -164.5q-94 -33 -135 -39l-435 -66l-18 -24q9 -63 30.5 -115t58 -95.5t94.5 -68t134 -24.5q65 0 126 20.5t90 41.5l28 20l25 -60q-5 -8 -14 -22t-42 -50t-71.5 -63t-104 -49.5t-137.5 -22.5
q-109 0 -198.5 39.5t-146.5 106t-87.5 151t-30.5 177.5zM459 1036l-82 43l155 351l248 22v-55zM479 858q-79 0 -127.5 -79t-54.5 -197l336 43q0 9 -1.5 25t-10.5 56t-24 71t-46 56t-72 25z" />
    <glyph glyph-name="ecircumflex" unicode="&#xea;" horiz-adv-x="946" 
d="M55 449q0 212 134.5 359.5t332.5 147.5q72 0 135 -21.5t115 -64t83 -114t34 -164.5q-94 -33 -135 -39l-435 -66l-18 -24q9 -63 30.5 -115t58 -95.5t94.5 -68t134 -24.5q65 0 126 20.5t90 41.5l28 20l25 -60q-5 -8 -14 -22t-42 -50t-71.5 -63t-104 -49.5t-137.5 -22.5
q-109 0 -198.5 39.5t-146.5 106t-87.5 151t-30.5 177.5zM182 1079l248 363h109l243 -363l-75 -51l-224 225l-223 -225zM479 858q-79 0 -127.5 -79t-54.5 -197l336 43q0 9 -1.5 25t-10.5 56t-24 71t-46 56t-72 25z" />
    <glyph glyph-name="edieresis" unicode="&#xeb;" horiz-adv-x="946" 
d="M55 449q0 212 134.5 359.5t332.5 147.5q72 0 135 -21.5t115 -64t83 -114t34 -164.5q-94 -33 -135 -39l-435 -66l-18 -24q9 -63 30.5 -115t58 -95.5t94.5 -68t134 -24.5q65 0 126 20.5t90 41.5l28 20l25 -60q-5 -8 -14 -22t-42 -50t-71.5 -63t-104 -49.5t-137.5 -22.5
q-109 0 -198.5 39.5t-146.5 106t-87.5 151t-30.5 177.5zM479 858q-79 0 -127.5 -79t-54.5 -197l336 43q0 9 -1.5 25t-10.5 56t-24 71t-46 56t-72 25zM252 1139q-62 0 -101.5 37.5t-39.5 97.5q0 61 39.5 99t101.5 38t101.5 -38t39.5 -99q0 -60 -39.5 -97.5t-101.5 -37.5z
M715 1139q-62 0 -102 37.5t-40 97.5q0 61 40 99t102 38t101.5 -38t39.5 -99q0 -60 -39.5 -97.5t-101.5 -37.5z" />
    <glyph glyph-name="igrave" unicode="&#xec;" horiz-adv-x="616" 
d="M63 -6v69q117 14 117 134v485q0 38 -1.5 57.5t-7 40.5t-18.5 29t-34 8h-82v66q108 17 212.5 42.5t154.5 42.5l51 17l6 -6q-19 -68 -19 -234v-548q0 -27 -2.5 -55t-5.5 -42l-2 -14l164 -18l-8 -62zM-4 1399v55l248 -22l155 -351l-82 -43z" />
    <glyph glyph-name="iacute" unicode="&#xed;" horiz-adv-x="616" 
d="M63 -6v69q117 14 117 134v485q0 38 -1.5 57.5t-7 40.5t-18.5 29t-34 8h-82v66q108 17 212.5 42.5t154.5 42.5l51 17l6 -6q-19 -68 -19 -234v-548q0 -27 -2.5 -55t-5.5 -42l-2 -14l164 -18l-8 -62zM268 1038l-82 43l156 351l248 22v-55z" />
    <glyph glyph-name="icircumflex" unicode="&#xee;" horiz-adv-x="616" 
d="M63 -6v69q117 14 117 134v485q0 38 -1.5 57.5t-7 40.5t-18.5 29t-34 8h-82v66q108 17 212.5 42.5t154.5 42.5l51 17l6 -6q-19 -68 -19 -234v-548q0 -27 -2.5 -55t-5.5 -42l-2 -14l164 -18l-8 -62zM-8 1081l248 363h108l244 -363l-76 -51l-223 225l-223 -225z" />
    <glyph glyph-name="idieresis" unicode="&#xef;" horiz-adv-x="616" 
d="M-49 1276q0 61 39.5 99t101.5 38t101.5 -38t39.5 -99q0 -60 -39.5 -97.5t-101.5 -37.5t-101.5 37.5t-39.5 97.5zM350 1276q0 61 40 99t102 38t101.5 -38t39.5 -99q0 -60 -39.5 -97.5t-101.5 -37.5t-102 37.5t-40 97.5zM63 -6v69q117 14 117 134v485q0 38 -1.5 57.5
t-7 40.5t-18.5 29t-34 8h-82v66q108 17 212.5 42.5t154.5 42.5l51 17l6 -6q-19 -68 -19 -234v-548q0 -27 -2.5 -55t-5.5 -42l-2 -14l164 -18l-8 -62z" />
    <glyph glyph-name="eth" unicode="&#xf0;" horiz-adv-x="1095" 
d="M244 1040l-49 90l247 140q-124 118 -295 178l23 74q237 -45 424 -166l289 164l47 -90l-246 -140q160 -136 247 -323t87 -392q0 -171 -58 -305.5t-175 -214.5t-277 -80q-107 0 -194.5 37.5t-143 101t-85.5 145t-30 171.5q0 98 35 192.5t96.5 168.5t153 119.5t197.5 45.5
q63 0 129 -20q-60 149 -152 258zM326 467q0 -69 11.5 -137t34 -128.5t62.5 -98t90 -37.5q93 0 158.5 116t65.5 324q0 88 -15 182q-30 174 -162 174q-108 0 -176.5 -112.5t-68.5 -282.5z" />
    <glyph glyph-name="ntilde" unicode="&#xf1;" horiz-adv-x="1204" 
d="M63 -6v69q117 14 117 134v485q0 38 -1.5 57.5t-7 40.5t-18.5 29t-34 8h-82v66q108 17 211.5 42.5t153.5 42.5l49 17l6 -6q-19 -45 -29 -227q65 85 158 144.5t207 59.5q112 0 177.5 -67t65.5 -209v-483q0 -27 -2.5 -54.5t-5.5 -40.5l-2 -14l164 -20l-8 -62l-500 -12v69
q92 13 92 134v403q0 103 -26 139.5t-89 36.5q-119 0 -217 -76v-503q0 -27 -2.5 -54.5t-5.5 -40.5l-2 -14l129 -20l-8 -62zM283 1141q-1 6 -1.5 16.5t0 40.5t4.5 57t17 60.5t33 57.5t55.5 40.5t81.5 16.5q40 0 74.5 -15t58.5 -37t46 -44t45.5 -37t47.5 -15q30 0 51 13.5
t30 33t13.5 39.5t4.5 34v13h94q1 -6 1.5 -16.5t-0.5 -41t-6 -58t-18.5 -61.5t-34 -58.5t-57 -41t-84.5 -16.5q-39 0 -72.5 15t-56.5 37t-44 44t-44 37t-47 15q-31 0 -52 -13.5t-29.5 -32t-13 -37.5t-4.5 -33l1 -13h-94z" />
    <glyph glyph-name="ograve" unicode="&#xf2;" horiz-adv-x="1118" 
d="M55 446q0 75 18 146t58.5 137.5t98.5 116.5t145.5 80t193.5 30q227 0 360.5 -126t133.5 -328q0 -79 -20.5 -154t-63 -143t-103 -119t-146.5 -81t-187 -30q-220 0 -354 131.5t-134 339.5zM338 500q0 -78 14 -152.5t41 -138.5t74.5 -103.5t107.5 -39.5q61 0 104.5 40.5
t63.5 105t28.5 127t6.5 124.5q-1 73 -14.5 141.5t-40 128.5t-72 96.5t-104.5 36.5q-53 0 -94 -30t-65.5 -82t-37 -116.5t-12.5 -137.5zM262 1399v55l248 -22l156 -351l-82 -43z" />
    <glyph glyph-name="oacute" unicode="&#xf3;" horiz-adv-x="1118" 
d="M55 446q0 75 18 146t58.5 137.5t98.5 116.5t145.5 80t193.5 30q227 0 360.5 -126t133.5 -328q0 -79 -20.5 -154t-63 -143t-103 -119t-146.5 -81t-187 -30q-220 0 -354 131.5t-134 339.5zM338 500q0 -78 14 -152.5t41 -138.5t74.5 -103.5t107.5 -39.5q61 0 104.5 40.5
t63.5 105t28.5 127t6.5 124.5q-1 73 -14.5 141.5t-40 128.5t-72 96.5t-104.5 36.5q-53 0 -94 -30t-65.5 -82t-37 -116.5t-12.5 -137.5zM535 1038l-82 43l155 351l248 22v-55z" />
    <glyph glyph-name="ocircumflex" unicode="&#xf4;" horiz-adv-x="1118" 
d="M55 446q0 75 18 146t58.5 137.5t98.5 116.5t145.5 80t193.5 30q227 0 360.5 -126t133.5 -328q0 -79 -20.5 -154t-63 -143t-103 -119t-146.5 -81t-187 -30q-220 0 -354 131.5t-134 339.5zM338 500q0 -78 14 -152.5t41 -138.5t74.5 -103.5t107.5 -39.5q61 0 104.5 40.5
t63.5 105t28.5 127t6.5 124.5q-1 73 -14.5 141.5t-40 128.5t-72 96.5t-104.5 36.5q-53 0 -94 -30t-65.5 -82t-37 -116.5t-12.5 -137.5zM258 1081l248 363h108l244 -363l-76 -51l-223 225l-223 -225z" />
    <glyph glyph-name="otilde" unicode="&#xf5;" horiz-adv-x="1118" 
d="M55 446q0 75 18 146t58.5 137.5t98.5 116.5t145.5 80t193.5 30q227 0 360.5 -126t133.5 -328q0 -79 -20.5 -154t-63 -143t-103 -119t-146.5 -81t-187 -30q-220 0 -354 131.5t-134 339.5zM338 500q0 -78 14 -152.5t41 -138.5t74.5 -103.5t107.5 -39.5q61 0 104.5 40.5
t63.5 105t28.5 127t6.5 124.5q-1 73 -14.5 141.5t-40 128.5t-72 96.5t-104.5 36.5q-53 0 -94 -30t-65.5 -82t-37 -116.5t-12.5 -137.5zM233 1141q-1 6 -1.5 16.5t0 40.5t5 57t17.5 60.5t33 57.5t55.5 40.5t81.5 16.5q40 0 74.5 -15t58.5 -37t46 -44t45.5 -37t47.5 -15
q30 0 51 13.5t30 33t13.5 39.5t4.5 34v13h94q1 -6 1.5 -16.5t-0.5 -41t-6 -58t-18.5 -61.5t-34 -58.5t-57 -41t-84.5 -16.5q-39 0 -72.5 15t-56.5 37t-44 44t-44 37t-47 15q-31 0 -52 -13.5t-29.5 -32t-13 -37.5t-3.5 -33v-13h-95z" />
    <glyph glyph-name="odieresis" unicode="&#xf6;" horiz-adv-x="1118" 
d="M55 446q0 75 18 146t58.5 137.5t98.5 116.5t145.5 80t193.5 30q227 0 360.5 -126t133.5 -328q0 -79 -20.5 -154t-63 -143t-103 -119t-146.5 -81t-187 -30q-220 0 -354 131.5t-134 339.5zM338 500q0 -78 14 -152.5t41 -138.5t74.5 -103.5t107.5 -39.5q61 0 104.5 40.5
t63.5 105t28.5 127t6.5 124.5q-1 73 -14.5 141.5t-40 128.5t-72 96.5t-104.5 36.5q-53 0 -94 -30t-65.5 -82t-37 -116.5t-12.5 -137.5zM328 1141q-62 0 -102 37.5t-40 97.5q0 61 40 99t102 38t101.5 -38t39.5 -99q0 -60 -39.5 -97.5t-101.5 -37.5zM791 1141q-62 0 -102 37.5
t-40 97.5q0 61 40 99t102 38t101.5 -38t39.5 -99q0 -60 -39.5 -97.5t-101.5 -37.5z" />
    <glyph glyph-name="divide" unicode="&#xf7;" 
d="M74 446v146h917v-146h-917zM391 135q0 60 41.5 103t99.5 43q60 0 102 -43t42 -103q0 -59 -42 -100t-102 -41q-58 0 -99.5 41t-41.5 100zM532 758q-58 0 -99.5 42t-41.5 101t41.5 101t99.5 42q60 0 102 -42t42 -101t-42 -101t-102 -42z" />
    <glyph glyph-name="oslash" unicode="&#xf8;" horiz-adv-x="1118" 
d="M98 -61l111 149q-154 132 -154 358q0 75 18 146t58.5 137.5t98.5 116.5t145.5 80t193.5 30q140 0 248 -51l68 88h123l-105 -141q77 -60 118.5 -150t41.5 -200q0 -79 -20.5 -154t-63 -143t-103 -119t-146.5 -81t-187 -30q-138 0 -250 56l-70 -92h-125zM778 463
q-3 103 -26 186l-346 -467q61 -116 169 -116q49 0 87 28t59.5 69.5t35 97.5t18 104.5t3.5 97.5zM338 500q0 -108 24 -207l347 465q-61 108 -162 108q-53 0 -94 -30t-65.5 -82t-37 -116.5t-12.5 -137.5z" />
    <glyph glyph-name="ugrave" unicode="&#xf9;" horiz-adv-x="1175" 
d="M150 252v426q0 39 -1.5 60t-7.5 41.5t-18.5 29t-34.5 8.5h-61v68q156 27 255 47.5t120 27.5l22 7l6 -6q-18 -58 -18 -216v-415q0 -103 30 -144t86 -41q29 0 60.5 10t56 23.5t45.5 27.5t32 24l11 10v438q0 32 -0.5 49t-4 37.5t-9.5 30t-18 16t-29 6.5h-51v70
q149 26 246 46t119 27l22 7l6 -6q-19 -58 -19 -216v-540q0 -29 3.5 -49.5t12 -33t16 -20t24 -10.5t27 -3.5t32.5 -0.5h47l-6 -65q-122 -10 -225.5 -20.5t-145.5 -15.5l-43 -5l-4 4q15 61 15 112v86q-6 -8 -16 -22.5t-45 -50.5t-72 -63.5t-93.5 -50t-113.5 -22.5
q-117 0 -187.5 68t-70.5 209zM274 1399v55l248 -22l156 -351l-82 -43z" />
    <glyph glyph-name="uacute" unicode="&#xfa;" horiz-adv-x="1175" 
d="M150 252v426q0 39 -1.5 60t-7.5 41.5t-18.5 29t-34.5 8.5h-61v68q156 27 255 47.5t120 27.5l22 7l6 -6q-18 -58 -18 -216v-415q0 -103 30 -144t86 -41q29 0 60.5 10t56 23.5t45.5 27.5t32 24l11 10v438q0 32 -0.5 49t-4 37.5t-9.5 30t-18 16t-29 6.5h-51v70
q149 26 246 46t119 27l22 7l6 -6q-19 -58 -19 -216v-540q0 -29 3.5 -49.5t12 -33t16 -20t24 -10.5t27 -3.5t32.5 -0.5h47l-6 -65q-122 -10 -225.5 -20.5t-145.5 -15.5l-43 -5l-4 4q15 61 15 112v86q-6 -8 -16 -22.5t-45 -50.5t-72 -63.5t-93.5 -50t-113.5 -22.5
q-117 0 -187.5 68t-70.5 209zM547 1038l-82 43l156 351l247 22v-55z" />
    <glyph glyph-name="ucircumflex" unicode="&#xfb;" horiz-adv-x="1175" 
d="M150 252v426q0 39 -1.5 60t-7.5 41.5t-18.5 29t-34.5 8.5h-61v68q156 27 255 47.5t120 27.5l22 7l6 -6q-18 -58 -18 -216v-415q0 -103 30 -144t86 -41q29 0 60.5 10t56 23.5t45.5 27.5t32 24l11 10v438q0 32 -0.5 49t-4 37.5t-9.5 30t-18 16t-29 6.5h-51v70
q149 26 246 46t119 27l22 7l6 -6q-19 -58 -19 -216v-540q0 -29 3.5 -49.5t12 -33t16 -20t24 -10.5t27 -3.5t32.5 -0.5h47l-6 -65q-122 -10 -225.5 -20.5t-145.5 -15.5l-43 -5l-4 4q15 61 15 112v86q-6 -8 -16 -22.5t-45 -50.5t-72 -63.5t-93.5 -50t-113.5 -22.5
q-117 0 -187.5 68t-70.5 209zM270 1081l248 363h109l243 -363l-75 -51l-224 225l-223 -225z" />
    <glyph glyph-name="udieresis" unicode="&#xfc;" horiz-adv-x="1175" 
d="M150 252v426q0 39 -1.5 60t-7.5 41.5t-18.5 29t-34.5 8.5h-61v68q156 27 255 47.5t120 27.5l22 7l6 -6q-18 -58 -18 -216v-415q0 -103 30 -144t86 -41q29 0 60.5 10t56 23.5t45.5 27.5t32 24l11 10v438q0 32 -0.5 49t-4 37.5t-9.5 30t-18 16t-29 6.5h-51v70
q149 26 246 46t119 27l22 7l6 -6q-19 -58 -19 -216v-540q0 -29 3.5 -49.5t12 -33t16 -20t24 -10.5t27 -3.5t32.5 -0.5h47l-6 -65q-122 -10 -225.5 -20.5t-145.5 -15.5l-43 -5l-4 4q15 61 15 112v86q-6 -8 -16 -22.5t-45 -50.5t-72 -63.5t-93.5 -50t-113.5 -22.5
q-117 0 -187.5 68t-70.5 209zM340 1141q-62 0 -101.5 37.5t-39.5 97.5q0 61 39.5 99t101.5 38t101.5 -38t39.5 -99q0 -60 -39.5 -97.5t-101.5 -37.5zM803 1141q-62 0 -101.5 37.5t-39.5 97.5q0 61 39.5 99t101.5 38t101.5 -38t39.5 -99q0 -60 -39.5 -97.5t-101.5 -37.5z" />
    <glyph glyph-name="yacute" unicode="&#xfd;" horiz-adv-x="966" 
d="M162 -276q95 0 156.5 45.5t103.5 142.5l18 45q-20 62 -63 162l-277 633q-20 45 -49.5 74.5t-48.5 36.5l-20 7v62h96q81 0 155.5 2t108.5 4l35 2l8 -8q-19 -38 -20 -91.5t16 -97.5l149 -364q19 -49 39 -121l199 465q21 55 -13.5 92.5t-99.5 54.5v62h301l11 -33
q-31 -28 -66 -108l-309 -723q-7 -15 -24.5 -56.5t-29 -67.5t-32.5 -70.5t-38 -75t-41.5 -71t-47 -68t-52 -57t-57.5 -47t-62 -29t-69 -11.5q-53 0 -82.5 29.5t-29.5 74.5q0 43 32.5 74t102.5 31zM506 1038l-82 43l156 351l247 22v-55z" />
    <glyph glyph-name="thorn" unicode="&#xfe;" horiz-adv-x="1097" 
d="M401 184q0 -104 105 -104q127 0 195.5 103t68.5 257q0 64 -12.5 123.5t-38 111t-70 82.5t-102.5 31q-62 0 -146 -40v-564zM139 -236v1463q0 38 -1.5 57.5t-7 40.5t-18.5 29t-34 8h-76v65q146 29 249.5 55.5t134.5 37.5l30 12l6 -6q-21 -74 -21 -232v-315q0 -36 -2 -80.5
t-4 -70.5l-2 -27q117 155 279 155q161 0 265.5 -125.5t104.5 -310.5q0 -81 -21.5 -159t-66 -148t-106.5 -123t-149.5 -84t-188.5 -31q-26 0 -109 9v-217q0 -27 -2.5 -56.5t-4.5 -44.5l-3 -16h205l-8 -60q-365 -45 -545 -94v70q59 36 77.5 78.5t18.5 119.5z" />
    <glyph glyph-name="ydieresis" unicode="&#xff;" horiz-adv-x="966" 
d="M162 -276q95 0 156.5 45.5t103.5 142.5l18 45q-20 62 -63 162l-277 633q-20 45 -49.5 74.5t-48.5 36.5l-20 7v62h96q81 0 155.5 2t108.5 4l35 2l8 -8q-19 -38 -20 -91.5t16 -97.5l149 -364q19 -49 39 -121l199 465q21 55 -13.5 92.5t-99.5 54.5v62h301l11 -33
q-31 -28 -66 -108l-309 -723q-7 -15 -24.5 -56.5t-29 -67.5t-32.5 -70.5t-38 -75t-41.5 -71t-47 -68t-52 -57t-57.5 -47t-62 -29t-69 -11.5q-53 0 -82.5 29.5t-29.5 74.5q0 43 32.5 74t102.5 31zM762 1141q-62 0 -101.5 37.5t-39.5 97.5q0 61 39.5 99t101.5 38t101.5 -38
t39.5 -99q0 -60 -39.5 -97.5t-101.5 -37.5zM299 1141q-62 0 -101.5 37.5t-39.5 97.5q0 61 39.5 99t101.5 38t101.5 -38t39.5 -99q0 -60 -39.5 -97.5t-101.5 -37.5z" />
    <glyph glyph-name="Amacron" unicode="&#x100;" horiz-adv-x="1280" 
d="M-35 0v70q103 10 137 96l476 1190l124 26l449 -1165q29 -75 58.5 -109.5t84.5 -41.5l-8 -66h-84l-399 -8v80q48 2 73 21t9 61l-97 264h-436l-35 -25l-114 -301l176 -22l-12 -70h-402zM621 891q-27 72 -52 158l-198 -519h379zM346 1550v152h590v-152h-590z" />
    <glyph glyph-name="amacron" unicode="&#x101;" horiz-adv-x="989" 
d="M37 205q0 74 39.5 134.5t107 100t142.5 64.5t159 37l72 10q0 166 -10 215q-20 98 -96 98q-33 0 -65 -22.5t-55 -55t-41 -64.5t-27 -54l-9 -23h-94l-45 180q7 5 19.5 14t56 31.5t90.5 40t120 31.5t148 14q157 0 212.5 -64.5t55.5 -227.5v-461q0 -49 10.5 -73t38.5 -24
q19 0 41.5 9t35.5 17l13 9l33 -55q-4 -5 -11.5 -12t-33.5 -26.5t-53.5 -34t-70 -26.5t-85.5 -12q-79 0 -125.5 36.5t-46.5 101.5v32q-4 -7 -12.5 -18.5t-36.5 -40.5t-59 -51.5t-80 -41t-99 -18.5q-98 0 -168.5 60.5t-70.5 169.5zM211 1186v151h528v-151h-528zM401 137
q77 0 154 66v256l-55 -10q-87 -15 -142 -63t-55 -130q0 -52 24.5 -85.5t73.5 -33.5z" />
    <glyph glyph-name="Abreve" unicode="&#x102;" horiz-adv-x="1280" 
d="M-35 0v70q103 10 137 96l476 1190l124 26l449 -1165q29 -75 58.5 -109.5t84.5 -41.5l-8 -66h-84l-399 -8v80q48 2 73 21t9 61l-97 264h-436l-35 -25l-114 -301l176 -22l-12 -70h-402zM641 1464q-134 0 -217.5 70.5t-83.5 191.5q0 30 6 64h94q0 -156 201 -156
q199 0 199 156h96q4 -20 4 -57q0 -118 -82 -193.5t-217 -75.5zM621 891q-27 72 -52 158l-198 -519h379z" />
    <glyph glyph-name="abreve" unicode="&#x103;" horiz-adv-x="989" 
d="M37 205q0 74 39.5 134.5t107 100t142.5 64.5t159 37l72 10q0 166 -10 215q-20 98 -96 98q-33 0 -65 -22.5t-55 -55t-41 -64.5t-27 -54l-9 -23h-94l-45 180q7 5 19.5 14t56 31.5t90.5 40t120 31.5t148 14q157 0 212.5 -64.5t55.5 -227.5v-461q0 -49 10.5 -73t38.5 -24
q19 0 41.5 9t35.5 17l13 9l33 -55q-4 -5 -11.5 -12t-33.5 -26.5t-53.5 -34t-70 -26.5t-85.5 -12q-79 0 -125.5 36.5t-46.5 101.5v32q-4 -7 -12.5 -18.5t-36.5 -40.5t-59 -51.5t-80 -41t-99 -18.5q-98 0 -168.5 60.5t-70.5 169.5zM401 137q77 0 154 66v256l-55 -10
q-87 -15 -142 -63t-55 -130q0 -52 24.5 -85.5t73.5 -33.5zM475 1110q-123 0 -204 71t-81 183q0 40 11 80h92q-2 -17 -2 -25q0 -40 15.5 -69.5t43 -45t58.5 -23t67 -7.5q81 0 132.5 33.5t51.5 111.5l-2 25h93q10 -48 10 -80q0 -112 -81 -183t-204 -71z" />
    <glyph glyph-name="Aogonek" unicode="&#x104;" horiz-adv-x="1280" 
d="M-35 0v70q103 10 137 96l476 1190l124 26l449 -1165q29 -75 58.5 -109.5t84.5 -41.5l-8 -66h-53q-60 -5 -130.5 -91t-70.5 -171q0 -55 37.5 -89t85.5 -34l45 4l19 -70q-83 -34 -183 -34q-92 0 -153.5 46.5t-61.5 116.5q0 20 6 41t13 37.5t24.5 39.5t28.5 37t38.5 40.5
t40.5 39t47.5 44t47.5 43.5l-264 -8v80q48 2 73 21t9 61l-97 264h-436l-35 -25l-114 -301l176 -22l-12 -70h-402zM621 891q-27 72 -52 158l-198 -519h379z" />
    <glyph glyph-name="aogonek" unicode="&#x105;" horiz-adv-x="991" 
d="M37 205q0 74 39.5 134.5t107 100t142.5 64.5t159 37l72 10q0 166 -10 215q-20 98 -96 98q-33 0 -65 -22.5t-55 -55t-41 -64.5t-27 -54l-9 -23h-94l-45 180q7 5 19.5 14t56 31.5t90.5 40t120 31.5t148 14q157 0 212.5 -64.5t55.5 -227.5v-461q0 -49 10.5 -73t38.5 -24
q19 0 41.5 9t35.5 17l13 9l33 -55q-26 -26 -65 -53q-65 -51 -130 -136t-65 -159q0 -55 37.5 -89t85.5 -34l45 4l18 -70q-87 -34 -182 -34q-92 0 -153.5 46.5t-61.5 116.5q0 35 15 70t45 70t64 68t82 76q10 9 15 13h-4q-79 0 -125.5 36.5t-46.5 101.5v32q-4 -7 -12.5 -18.5
t-36.5 -40.5t-59 -51.5t-80 -41t-99 -18.5q-98 0 -168.5 60.5t-70.5 169.5zM401 137q77 0 154 66v256l-55 -10q-87 -15 -142 -63t-55 -130q0 -52 24.5 -85.5t73.5 -33.5z" />
    <glyph glyph-name="Cacute" unicode="&#x106;" horiz-adv-x="1404" 
d="M70 664q0 105 30.5 208.5t94 197t152.5 165t216 114t275 42.5q105 0 285.5 -28t197.5 -30l-61 -321h-80q-3 74 -33 129t-81.5 86.5t-114 46t-136.5 14.5q-119 0 -211 -44.5t-147 -121.5t-83 -172.5t-28 -204.5q0 -139 47 -252t126.5 -186t182.5 -112t218 -39
q66 0 131 14.5t110 35t81 41.5t54 35l17 15l35 -53q-7 -11 -20.5 -29t-63.5 -64.5t-108.5 -82t-156.5 -64.5t-206 -29q-132 0 -248.5 37.5t-202 103t-148 152.5t-93.5 188.5t-31 207.5zM547 1552l393 232h10l88 -146v-59l-452 -111z" />
    <glyph glyph-name="cacute" unicode="&#x107;" horiz-adv-x="917" 
d="M55 440q0 93 32.5 183.5t92 165.5t154.5 121t209 46q51 0 104.5 -8.5t105.5 -26.5t85.5 -51t33.5 -77q0 -40 -28 -70.5t-72 -30.5q-32 0 -57 18t-43 43.5t-37.5 51t-50 43.5t-70.5 18q-100 0 -157.5 -98t-57.5 -240q0 -163 79.5 -265.5t231.5 -102.5q63 0 123.5 18
t89.5 36l29 17l25 -59q-5 -8 -14 -21.5t-42.5 -47.5t-73 -59.5t-106.5 -47t-141 -21.5q-104 0 -189.5 39t-140.5 104t-85 148t-30 174zM467 1038l-82 43l156 351l247 22v-55z" />
    <glyph glyph-name="Ccircumflex" unicode="&#x108;" horiz-adv-x="1404" 
d="M70 664q0 105 30.5 208.5t94 197t152.5 165t216 114t275 42.5q105 0 285.5 -28t197.5 -30l-61 -321h-80q-3 74 -33 129t-81.5 86.5t-114 46t-136.5 14.5q-119 0 -211 -44.5t-147 -121.5t-83 -172.5t-28 -204.5q0 -139 47 -252t126.5 -186t182.5 -112t218 -39
q66 0 131 14.5t110 35t81 41.5t54 35l17 15l35 -53q-7 -11 -20.5 -29t-63.5 -64.5t-108.5 -82t-156.5 -64.5t-206 -29q-132 0 -248.5 37.5t-202 103t-148 152.5t-93.5 188.5t-31 207.5zM416 1530l274 254h150l272 -254l-70 -62l-268 146h-20l-269 -146z" />
    <glyph glyph-name="ccircumflex" unicode="&#x109;" horiz-adv-x="917" 
d="M55 440q0 93 32.5 183.5t92 165.5t154.5 121t209 46q51 0 104.5 -8.5t105.5 -26.5t85.5 -51t33.5 -77q0 -40 -28 -70.5t-72 -30.5q-32 0 -57 18t-43 43.5t-37.5 51t-50 43.5t-70.5 18q-100 0 -157.5 -98t-57.5 -240q0 -163 79.5 -265.5t231.5 -102.5q63 0 123.5 18
t89.5 36l29 17l25 -59q-5 -8 -14 -21.5t-42.5 -47.5t-73 -59.5t-106.5 -47t-141 -21.5q-104 0 -189.5 39t-140.5 104t-85 148t-30 174zM190 1081l248 363h109l244 -363l-76 -51l-223 225l-224 -225z" />
    <glyph glyph-name="Cdotaccent" unicode="&#x10a;" horiz-adv-x="1404" 
d="M70 664q0 105 30.5 208.5t94 197t152.5 165t216 114t275 42.5q105 0 285.5 -28t197.5 -30l-61 -321h-80q-3 74 -33 129t-81.5 86.5t-114 46t-136.5 14.5q-119 0 -211 -44.5t-147 -121.5t-83 -172.5t-28 -204.5q0 -139 47 -252t126.5 -186t182.5 -112t218 -39
q66 0 131 14.5t110 35t81 41.5t54 35l17 15l35 -53q-7 -11 -20.5 -29t-63.5 -64.5t-108.5 -82t-156.5 -64.5t-206 -29q-132 0 -248.5 37.5t-202 103t-148 152.5t-93.5 188.5t-31 207.5zM764 1483q-66 0 -109 40t-43 103q0 64 43 105t109 41t108.5 -41t42.5 -105
q0 -63 -42.5 -103t-108.5 -40z" />
    <glyph glyph-name="cdotaccent" unicode="&#x10b;" horiz-adv-x="917" 
d="M55 440q0 93 32.5 183.5t92 165.5t154.5 121t209 46q51 0 104.5 -8.5t105.5 -26.5t85.5 -51t33.5 -77q0 -40 -28 -70.5t-72 -30.5q-32 0 -57 18t-43 43.5t-37.5 51t-50 43.5t-70.5 18q-100 0 -157.5 -98t-57.5 -240q0 -163 79.5 -265.5t231.5 -102.5q63 0 123.5 18
t89.5 36l29 17l25 -59q-5 -8 -14 -21.5t-42.5 -47.5t-73 -59.5t-106.5 -47t-141 -21.5q-104 0 -189.5 39t-140.5 104t-85 148t-30 174zM492 1135q-66 0 -109 40t-43 103q0 64 43 104.5t109 40.5t108.5 -40.5t42.5 -104.5q0 -63 -42.5 -103t-108.5 -40z" />
    <glyph glyph-name="Ccaron" unicode="&#x10c;" horiz-adv-x="1404" 
d="M70 664q0 105 30.5 208.5t94 197t152.5 165t216 114t275 42.5q105 0 285.5 -28t197.5 -30l-61 -321h-80q-3 74 -33 129t-81.5 86.5t-114 46t-136.5 14.5q-119 0 -211 -44.5t-147 -121.5t-83 -172.5t-28 -204.5q0 -139 47 -252t126.5 -186t182.5 -112t218 -39
q66 0 131 14.5t110 35t81 41.5t54 35l17 15l35 -53q-7 -11 -20.5 -29t-63.5 -64.5t-108.5 -82t-156.5 -64.5t-206 -29q-132 0 -248.5 37.5t-202 103t-148 152.5t-93.5 188.5t-31 207.5zM416 1722l69 62l269 -146h20l268 146l70 -62l-274 -254h-150z" />
    <glyph glyph-name="ccaron" unicode="&#x10d;" horiz-adv-x="917" 
d="M55 440q0 93 32.5 183.5t92 165.5t154.5 121t209 46q51 0 104.5 -8.5t105.5 -26.5t85.5 -51t33.5 -77q0 -40 -28 -70.5t-72 -30.5q-32 0 -57 18t-43 43.5t-37.5 51t-50 43.5t-70.5 18q-100 0 -157.5 -98t-57.5 -240q0 -163 79.5 -265.5t231.5 -102.5q63 0 123.5 18
t89.5 36l29 17l25 -59q-5 -8 -14 -21.5t-42.5 -47.5t-73 -59.5t-106.5 -47t-141 -21.5q-104 0 -189.5 39t-140.5 104t-85 148t-30 174zM438 1071l-248 346l78 51l224 -208l223 208l76 -51l-244 -346h-109z" />
    <glyph glyph-name="Dcaron" unicode="&#x10e;" horiz-adv-x="1544" 
d="M98 -6v76q66 8 102 40t36 87v958q0 41 -3.5 61t-20.5 38.5t-47 28.5t-87 22v61h608q129 0 243.5 -22.5t215.5 -72t173.5 -122t114.5 -178t42 -234.5q0 -172 -67.5 -313t-184 -233t-270 -141.5t-328.5 -49.5h-176zM500 106h125q267 0 406.5 147.5t139.5 424.5
q0 265 -126 423.5t-357 158.5h-153l-25 -25v-1014q0 -27 -2.5 -56t-5.5 -44zM399 1722l70 62l268 -146h21l268 146l70 -62l-275 -254h-149z" />
    <glyph glyph-name="dcaron" unicode="&#x10f;" horiz-adv-x="1140" 
d="M55 410q0 102 37 199t104.5 175t171.5 125t228 47q25 0 51.5 -2t40.5 -4l14 -2v279q0 38 -1.5 57.5t-7 40.5t-18.5 29t-34 8h-76v65q146 29 249.5 55.5t133.5 37.5l31 12l6 -6q-20 -74 -20 -232v-1089q0 -42 7 -67t25.5 -35.5t33.5 -12.5t48 -2h47l-6 -65
q-122 -10 -227 -20.5t-149 -15.5l-44 -5l-4 4q15 61 15 112v33q-42 -68 -119.5 -112t-161.5 -44q-158 0 -266.5 126t-108.5 309zM553 143q75 0 149 41v564q0 34 -9 56.5t-26 32t-31.5 12.5t-33.5 3q-87 0 -151 -53.5t-93.5 -134.5t-29.5 -177q0 -61 13 -120t39 -110
t71 -82.5t102 -31.5zM1087 1106l52 403l250 21v-68l-189 -356h-113z" />
    <glyph glyph-name="Dcroat" unicode="&#x110;" horiz-adv-x="1544" 
d="M59 639v113h177v403q0 41 -3.5 61t-20.5 38.5t-47 28.5t-87 22v61h608q129 0 243.5 -22.5t215.5 -72t173.5 -122t114.5 -178t42 -234.5q0 -172 -67.5 -313t-184 -233t-270 -141.5t-328.5 -49.5h-176l-351 -6v76q66 8 102 40t36 87v442h-177zM500 106h125
q267 0 406.5 147.5t139.5 424.5q0 265 -126 423.5t-357 158.5h-153l-25 -25v-483h297v-113h-297v-418q0 -27 -2.5 -56t-5.5 -44z" />
    <glyph glyph-name="dcroat" unicode="&#x111;" horiz-adv-x="1140" 
d="M424 1081v113h278v33q0 38 -1.5 57.5t-7 40.5t-18.5 29t-34 8h-76v65q146 29 249.5 55.5t133.5 37.5l31 12l6 -6q-20 -74 -20 -232v-100h153v-113h-153v-876q0 -42 7 -67t25.5 -35.5t33.5 -12.5t48 -2h47l-6 -65q-122 -10 -227 -20.5t-149 -15.5l-44 -5l-4 4
q15 61 15 112v33q-42 -68 -119.5 -112t-161.5 -44q-158 0 -266.5 126t-108.5 309q0 102 37 199t104.5 175t171.5 125t228 47q25 0 51.5 -2t40.5 -4l14 -2v133h-278zM553 143q75 0 149 41v564q0 34 -9 56.5t-26 32t-31.5 12.5t-33.5 3q-87 0 -151 -53.5t-93.5 -134.5
t-29.5 -177q0 -61 13 -120t39 -110t71 -82.5t102 -31.5z" />
    <glyph glyph-name="Emacron" unicode="&#x112;" horiz-adv-x="1226" 
d="M98 -6v76q66 8 102 40t36 87v958q0 41 -3.5 61t-20.5 38.5t-47 28.5t-87 22v61h891q37 0 76.5 2t60.5 4l20 2l-63 -362h-80q4 79 -6.5 128t-39.5 75.5t-69 35.5t-106 9h-227l-25 -25v-485h342l16 118l86 13v-392h-106v154h-313l-25 -25v-397q0 -27 -2.5 -56t-5.5 -44
l-2 -15h284q47 0 76.5 2.5t57.5 13t45 24t39 45t39.5 64.5t45.5 93h80l-75 -348h-643zM358 1550v152h590v-152h-590z" />
    <glyph glyph-name="emacron" unicode="&#x113;" horiz-adv-x="946" 
d="M55 449q0 212 134.5 359.5t332.5 147.5q72 0 135 -21.5t115 -64t83 -114t34 -164.5q-94 -33 -135 -39l-435 -66l-18 -24q9 -63 30.5 -115t58 -95.5t94.5 -68t134 -24.5q65 0 126 20.5t90 41.5l28 20l25 -60q-5 -8 -14 -22t-42 -50t-71.5 -63t-104 -49.5t-137.5 -22.5
q-109 0 -198.5 39.5t-146.5 106t-87.5 151t-30.5 177.5zM219 1184v151h529v-151h-529zM479 858q-79 0 -127.5 -79t-54.5 -197l336 43q0 9 -1.5 25t-10.5 56t-24 71t-46 56t-72 25z" />
    <glyph glyph-name="Ebreve" unicode="&#x114;" horiz-adv-x="1226" 
d="M98 -6v76q66 8 102 40t36 87v958q0 41 -3.5 61t-20.5 38.5t-47 28.5t-87 22v61h891q37 0 76.5 2t60.5 4l20 2l-63 -362h-80q4 79 -6.5 128t-39.5 75.5t-69 35.5t-106 9h-227l-25 -25v-485h342l16 118l86 13v-392h-106v154h-313l-25 -25v-397q0 -27 -2.5 -56t-5.5 -44
l-2 -15h284q47 0 76.5 2.5t57.5 13t45 24t39 45t39.5 64.5t45.5 93h80l-75 -348h-643zM653 1464q-134 0 -217.5 70.5t-83.5 191.5q0 30 6 64h95q0 -156 200 -156q199 0 199 156h96q4 -20 4 -57q0 -118 -82 -193.5t-217 -75.5z" />
    <glyph glyph-name="ebreve" unicode="&#x115;" horiz-adv-x="946" 
d="M55 449q0 212 134.5 359.5t332.5 147.5q72 0 135 -21.5t115 -64t83 -114t34 -164.5q-94 -33 -135 -39l-435 -66l-18 -24q9 -63 30.5 -115t58 -95.5t94.5 -68t134 -24.5q65 0 126 20.5t90 41.5l28 20l25 -60q-5 -8 -14 -22t-42 -50t-71.5 -63t-104 -49.5t-137.5 -22.5
q-109 0 -198.5 39.5t-146.5 106t-87.5 151t-30.5 177.5zM483 1108q-123 0 -203.5 71t-80.5 183q0 44 10 80h92q-2 -17 -2 -25q0 -40 15.5 -69.5t43 -45t58.5 -23t67 -7.5q81 0 133 33.5t52 111.5l-2 25h92q10 -48 10 -80q0 -112 -81 -183t-204 -71zM479 858
q-79 0 -127.5 -79t-54.5 -197l336 43q0 9 -1.5 25t-10.5 56t-24 71t-46 56t-72 25z" />
    <glyph glyph-name="Edotaccent" unicode="&#x116;" horiz-adv-x="1226" 
d="M98 -6v76q66 8 102 40t36 87v958q0 41 -3.5 61t-20.5 38.5t-47 28.5t-87 22v61h891q37 0 76.5 2t60.5 4l20 2l-63 -362h-80q4 79 -6.5 128t-39.5 75.5t-69 35.5t-106 9h-227l-25 -25v-485h342l16 118l86 13v-392h-106v154h-313l-25 -25v-397q0 -27 -2.5 -56t-5.5 -44
l-2 -15h284q47 0 76.5 2.5t57.5 13t45 24t39 45t39.5 64.5t45.5 93h80l-75 -348h-643zM653 1483q-66 0 -108.5 40t-42.5 103q0 64 42.5 105t108.5 41t109 -41t43 -105q0 -63 -43 -103t-109 -40z" />
    <glyph glyph-name="edotaccent" unicode="&#x117;" horiz-adv-x="946" 
d="M55 449q0 212 134.5 359.5t332.5 147.5q72 0 135 -21.5t115 -64t83 -114t34 -164.5q-94 -33 -135 -39l-435 -66l-18 -24q9 -63 30.5 -115t58 -95.5t94.5 -68t134 -24.5q65 0 126 20.5t90 41.5l28 20l25 -60q-5 -8 -14 -22t-42 -50t-71.5 -63t-104 -49.5t-137.5 -22.5
q-109 0 -198.5 39.5t-146.5 106t-87.5 151t-30.5 177.5zM483 1133q-66 0 -108.5 40t-42.5 103q0 64 42.5 104.5t108.5 40.5t109 -40.5t43 -104.5q0 -63 -43 -103t-109 -40zM479 858q-79 0 -127.5 -79t-54.5 -197l336 43q0 9 -1.5 25t-10.5 56t-24 71t-46 56t-72 25z" />
    <glyph glyph-name="Eogonek" unicode="&#x118;" horiz-adv-x="1226" 
d="M98 -6v76q66 8 102 40t36 87v958q0 41 -3.5 61t-20.5 38.5t-47 28.5t-87 22v61h891q37 0 76.5 2t60.5 4l20 2l-63 -362h-80q4 79 -6.5 128t-39.5 75.5t-69 35.5t-106 9h-227l-25 -25v-485h342l16 118l86 13v-392h-106v154h-313l-25 -25v-397q0 -27 -2.5 -56t-5.5 -44
l-2 -15h284q47 0 76.5 2.5t57.5 13t45 24t39 45t39.5 64.5t45.5 93h80l-75 -348h-9q-60 -5 -130 -91t-70 -171q0 -55 37.5 -89t85.5 -34l45 4l18 -70q-83 -34 -182 -34q-92 0 -153.5 46.5t-61.5 116.5q0 23 5.5 45.5t21 46.5t28 41.5t41 46t44 43.5t54 49.5t54.5 49.5h-471z
" />
    <glyph glyph-name="eogonek" unicode="&#x119;" horiz-adv-x="946" 
d="M55 449q0 212 134.5 359.5t332.5 147.5q72 0 135 -21.5t115 -64t83 -114t34 -164.5q-94 -33 -135 -39l-435 -66l-18 -24q9 -63 30.5 -115t58 -95.5t94.5 -68t134 -24.5q65 0 126 20.5t90 41.5l28 20l25 -60q-5 -9 -16 -25t-48 -54.5t-80 -65.5q-38 -29 -80 -72.5
t-81 -108.5t-39 -118q0 -55 37.5 -89t85.5 -34l45 4l18 -70q-87 -34 -182 -34q-92 0 -153.5 46.5t-61.5 116.5q0 34 13 66t45 70t57.5 63.5t77.5 73.5q18 17 28 26q-12 -2 -35 -2q-109 0 -198.5 39.5t-146.5 106t-87.5 151t-30.5 177.5zM479 858q-79 0 -127.5 -79
t-54.5 -197l336 43q0 9 -1.5 25t-10.5 56t-24 71t-46 56t-72 25z" />
    <glyph glyph-name="Ecaron" unicode="&#x11a;" horiz-adv-x="1226" 
d="M98 -6v76q66 8 102 40t36 87v958q0 41 -3.5 61t-20.5 38.5t-47 28.5t-87 22v61h891q37 0 76.5 2t60.5 4l20 2l-63 -362h-80q4 79 -6.5 128t-39.5 75.5t-69 35.5t-106 9h-227l-25 -25v-485h342l16 118l86 13v-392h-106v154h-313l-25 -25v-397q0 -27 -2.5 -56t-5.5 -44
l-2 -15h284q47 0 76.5 2.5t57.5 13t45 24t39 45t39.5 64.5t45.5 93h80l-75 -348h-643zM305 1722l70 62l268 -146h21l268 146l69 -62l-274 -254h-149z" />
    <glyph glyph-name="ecaron" unicode="&#x11b;" horiz-adv-x="946" 
d="M55 449q0 212 134.5 359.5t332.5 147.5q72 0 135 -21.5t115 -64t83 -114t34 -164.5q-94 -33 -135 -39l-435 -66l-18 -24q9 -63 30.5 -115t58 -95.5t94.5 -68t134 -24.5q65 0 126 20.5t90 41.5l28 20l25 -60q-5 -8 -14 -22t-42 -50t-71.5 -63t-104 -49.5t-137.5 -22.5
q-109 0 -198.5 39.5t-146.5 106t-87.5 151t-30.5 177.5zM430 1069l-248 346l78 51l223 -209l224 209l75 -51l-243 -346h-109zM479 858q-79 0 -127.5 -79t-54.5 -197l336 43q0 9 -1.5 25t-10.5 56t-24 71t-46 56t-72 25z" />
    <glyph glyph-name="Gcircumflex" unicode="&#x11c;" horiz-adv-x="1468" 
d="M70 653q0 113 29.5 218.5t93.5 200.5t155.5 165.5t225.5 112t294 41.5q78 0 170.5 -9.5t184 -22.5t125.5 -16l-62 -331h-80q-1 65 -22.5 115t-55 79.5t-80 48.5t-91.5 26t-95 7q-121 0 -217.5 -47.5t-156 -129.5t-90.5 -186t-31 -223q0 -175 65.5 -313.5t189 -218.5
t285.5 -80q79 0 168 21v264q0 34 -2.5 51t-11.5 35t-30.5 27.5t-54.5 18.5t-89 17v62h518l10 -39q-3 -2 -8.5 -5t-19.5 -18t-24.5 -35t-19 -56.5t-8.5 -80.5v-323q-43 -3 -218.5 -28.5t-276.5 -25.5q-157 0 -296 45t-245 129t-167.5 214t-61.5 290zM449 1530l274 254h149
l273 -254l-70 -62l-268 146h-21l-268 -146z" />
    <glyph glyph-name="gcircumflex" unicode="&#x11d;" horiz-adv-x="1017" 
d="M104 139q0 18 5 34.5t16.5 31t21.5 26.5t30 24t31 19.5t35.5 18t33 14t33 13t26.5 10.5q-122 28 -197.5 104t-75.5 195q0 102 60 178t153 112.5t203 36.5q67 0 154 -20.5t143 -20.5h98q29 0 63 6.5t53 13.5l20 7l-23 -160h-84q-20 0 -38 1.5t-26 2.5l-8 2q3 -2 7.5 -6
t16.5 -19t21.5 -32.5t17 -47t7.5 -62.5q0 -95 -60 -166.5t-154.5 -106.5t-207.5 -35q-51 0 -98 6q-31 -36 -31 -69q0 -47 212 -86l30 -6q67 -13 113 -24t104 -33.5t93.5 -49t60 -69t24.5 -95.5q0 -78 -48.5 -149t-125.5 -119t-172 -76t-188 -28q-70 0 -142 15.5t-134.5 44.5
t-102 76.5t-39.5 104.5q0 36 16.5 68t39.5 54.5t60 44t66.5 34t69.5 27.5q-183 51 -183 155zM477 -61q-15 3 -43 9t-50.5 11t-41.5 10q-84 -79 -84 -174q0 -84 68.5 -134t165.5 -50q61 0 121.5 19t104.5 59.5t44 91.5q0 18 -4.5 33t-17 27.5t-23.5 22t-34.5 19t-40 15.5
t-50 14.5t-53.5 13t-62 13.5zM483 403q84 0 123 60t39 155q0 100 -43 174t-127 74q-55 0 -91 -33.5t-50.5 -83.5t-14.5 -114q0 -102 39.5 -167t124.5 -65zM221 1081l248 363h109l243 -363l-76 -51l-223 225l-223 -225z" />
    <glyph glyph-name="Gbreve" unicode="&#x11e;" horiz-adv-x="1468" 
d="M70 653q0 113 29.5 218.5t93.5 200.5t155.5 165.5t225.5 112t294 41.5q78 0 170.5 -9.5t184 -22.5t125.5 -16l-62 -331h-80q-1 65 -22.5 115t-55 79.5t-80 48.5t-91.5 26t-95 7q-121 0 -217.5 -47.5t-156 -129.5t-90.5 -186t-31 -223q0 -175 65.5 -313.5t189 -218.5
t285.5 -80q79 0 168 21v264q0 34 -2.5 51t-11.5 35t-30.5 27.5t-54.5 18.5t-89 17v62h518l10 -39q-3 -2 -8.5 -5t-19.5 -18t-24.5 -35t-19 -56.5t-8.5 -80.5v-323q-43 -3 -218.5 -28.5t-276.5 -25.5q-157 0 -296 45t-245 129t-167.5 214t-61.5 290zM797 1464
q-134 0 -217.5 70.5t-83.5 191.5q0 30 6 64h94q0 -156 201 -156q198 0 198 156h97q4 -20 4 -57q0 -118 -82 -193.5t-217 -75.5z" />
    <glyph glyph-name="gbreve" unicode="&#x11f;" horiz-adv-x="1017" 
d="M104 139q0 18 5 34.5t16.5 31t21.5 26.5t30 24t31 19.5t35.5 18t33 14t33 13t26.5 10.5q-122 28 -197.5 104t-75.5 195q0 102 60 178t153 112.5t203 36.5q67 0 154 -20.5t143 -20.5h98q29 0 63 6.5t53 13.5l20 7l-23 -160h-84q-20 0 -38 1.5t-26 2.5l-8 2q3 -2 7.5 -6
t16.5 -19t21.5 -32.5t17 -47t7.5 -62.5q0 -95 -60 -166.5t-154.5 -106.5t-207.5 -35q-51 0 -98 6q-31 -36 -31 -69q0 -47 212 -86l30 -6q67 -13 113 -24t104 -33.5t93.5 -49t60 -69t24.5 -95.5q0 -78 -48.5 -149t-125.5 -119t-172 -76t-188 -28q-70 0 -142 15.5t-134.5 44.5
t-102 76.5t-39.5 104.5q0 36 16.5 68t39.5 54.5t60 44t66.5 34t69.5 27.5q-183 51 -183 155zM477 -61q-15 3 -43 9t-50.5 11t-41.5 10q-84 -79 -84 -174q0 -84 68.5 -134t165.5 -50q61 0 121.5 19t104.5 59.5t44 91.5q0 18 -4.5 33t-17 27.5t-23.5 22t-34.5 19t-40 15.5
t-50 14.5t-53.5 13t-62 13.5zM483 403q84 0 123 60t39 155q0 100 -43 174t-127 74q-55 0 -91 -33.5t-50.5 -83.5t-14.5 -114q0 -102 39.5 -167t124.5 -65zM522 1110q-123 0 -203.5 71t-80.5 183q0 44 10 80h92q-2 -17 -2 -25q0 -40 15.5 -69.5t43 -45t58.5 -23t67 -7.5
q81 0 133 33.5t52 111.5l-2 25h92q10 -48 10 -80q0 -112 -81 -183t-204 -71z" />
    <glyph glyph-name="Gdotaccent" unicode="&#x120;" horiz-adv-x="1468" 
d="M70 653q0 113 29.5 218.5t93.5 200.5t155.5 165.5t225.5 112t294 41.5q78 0 170.5 -9.5t184 -22.5t125.5 -16l-62 -331h-80q-1 65 -22.5 115t-55 79.5t-80 48.5t-91.5 26t-95 7q-121 0 -217.5 -47.5t-156 -129.5t-90.5 -186t-31 -223q0 -175 65.5 -313.5t189 -218.5
t285.5 -80q79 0 168 21v264q0 34 -2.5 51t-11.5 35t-30.5 27.5t-54.5 18.5t-89 17v62h518l10 -39q-3 -2 -8.5 -5t-19.5 -18t-24.5 -35t-19 -56.5t-8.5 -80.5v-323q-43 -3 -218.5 -28.5t-276.5 -25.5q-157 0 -296 45t-245 129t-167.5 214t-61.5 290zM797 1483q-66 0 -109 40
t-43 103q0 64 43 105t109 41t108.5 -41t42.5 -105q0 -63 -42.5 -103t-108.5 -40z" />
    <glyph glyph-name="gdotaccent" unicode="&#x121;" horiz-adv-x="1017" 
d="M104 139q0 18 5 34.5t16.5 31t21.5 26.5t30 24t31 19.5t35.5 18t33 14t33 13t26.5 10.5q-122 28 -197.5 104t-75.5 195q0 102 60 178t153 112.5t203 36.5q67 0 154 -20.5t143 -20.5h98q29 0 63 6.5t53 13.5l20 7l-23 -160h-84q-20 0 -38 1.5t-26 2.5l-8 2q3 -2 7.5 -6
t16.5 -19t21.5 -32.5t17 -47t7.5 -62.5q0 -95 -60 -166.5t-154.5 -106.5t-207.5 -35q-51 0 -98 6q-31 -36 -31 -69q0 -47 212 -86l30 -6q67 -13 113 -24t104 -33.5t93.5 -49t60 -69t24.5 -95.5q0 -78 -48.5 -149t-125.5 -119t-172 -76t-188 -28q-70 0 -142 15.5t-134.5 44.5
t-102 76.5t-39.5 104.5q0 36 16.5 68t39.5 54.5t60 44t66.5 34t69.5 27.5q-183 51 -183 155zM477 -61q-15 3 -43 9t-50.5 11t-41.5 10q-84 -79 -84 -174q0 -84 68.5 -134t165.5 -50q61 0 121.5 19t104.5 59.5t44 91.5q0 18 -4.5 33t-17 27.5t-23.5 22t-34.5 19t-40 15.5
t-50 14.5t-53.5 13t-62 13.5zM483 403q84 0 123 60t39 155q0 100 -43 174t-127 74q-55 0 -91 -33.5t-50.5 -83.5t-14.5 -114q0 -102 39.5 -167t124.5 -65zM522 1135q-66 0 -108.5 40t-42.5 103q0 64 42.5 104.5t108.5 40.5t109 -40.5t43 -104.5q0 -63 -43 -103t-109 -40z
" />
    <glyph glyph-name="Gcommaaccent" unicode="&#x122;" horiz-adv-x="1468" 
d="M70 653q0 113 29.5 218.5t93.5 200.5t155.5 165.5t225.5 112t294 41.5q78 0 170.5 -9.5t184 -22.5t125.5 -16l-62 -331h-80q-1 65 -22.5 115t-55 79.5t-80 48.5t-91.5 26t-95 7q-121 0 -217.5 -47.5t-156 -129.5t-90.5 -186t-31 -223q0 -175 65.5 -313.5t189 -218.5
t285.5 -80q79 0 168 21v264q0 34 -2.5 51t-11.5 35t-30.5 27.5t-54.5 18.5t-89 17v62h518l10 -39q-3 -2 -8.5 -5t-19.5 -18t-24.5 -35t-19 -56.5t-8.5 -80.5v-323q-43 -3 -218.5 -28.5t-276.5 -25.5q-157 0 -296 45t-245 129t-167.5 214t-61.5 290zM653 -133l21 45h237
q43 -59 43 -129q0 -84 -80.5 -163.5t-199.5 -129.5l-49 68q63 34 91.5 65.5t28.5 69.5q0 67 -92 174z" />
    <glyph glyph-name="gcommaaccent" unicode="&#x123;" horiz-adv-x="1017" 
d="M104 139q0 18 5 34.5t16.5 31t21.5 26.5t30 24t31 19.5t35.5 18t33 14t33 13t26.5 10.5q-122 28 -197.5 104t-75.5 195q0 102 60 178t153 112.5t203 36.5q67 0 154 -20.5t143 -20.5h98q29 0 63 6.5t53 13.5l20 7l-23 -160h-84q-20 0 -38 1.5t-26 2.5l-8 2q3 -2 7.5 -6
t16.5 -19t21.5 -32.5t17 -47t7.5 -62.5q0 -95 -60 -166.5t-154.5 -106.5t-207.5 -35q-51 0 -98 6q-31 -36 -31 -69q0 -47 212 -86l30 -6q67 -13 113 -24t104 -33.5t93.5 -49t60 -69t24.5 -95.5q0 -78 -48.5 -149t-125.5 -119t-172 -76t-188 -28q-70 0 -142 15.5t-134.5 44.5
t-102 76.5t-39.5 104.5q0 36 16.5 68t39.5 54.5t60 44t66.5 34t69.5 27.5q-183 51 -183 155zM477 -61q-15 3 -43 9t-50.5 11t-41.5 10q-84 -79 -84 -174q0 -84 68.5 -134t165.5 -50q61 0 121.5 19t104.5 59.5t44 91.5q0 18 -4.5 33t-17 27.5t-23.5 22t-34.5 19t-40 15.5
t-50 14.5t-53.5 13t-62 13.5zM483 403q84 0 123 60t39 155q0 100 -43 174t-127 74q-55 0 -91 -33.5t-50.5 -83.5t-14.5 -114q0 -102 39.5 -167t124.5 -65zM616 1092l-20 -45h-238q-43 59 -43 129q0 84 80.5 163t200.5 129l49 -67q-63 -35 -92 -66.5t-29 -68.5q0 -67 92 -174
z" />
    <glyph glyph-name="Hcircumflex" unicode="&#x124;" horiz-adv-x="1673" 
d="M96 -6v76q65 8 101 43t36 90v952q0 31 -0.5 44t-5 31t-12 25.5t-24 18t-40 17t-59.5 14.5v61h150q114 0 194.5 2t104.5 4l24 2l10 -8q-3 -4 -7.5 -10.5t-16 -31t-20.5 -52t-16 -72t-7 -92.5v-356h649l25 24v379q0 30 -0.5 43.5t-5 31.5t-12.5 25.5t-24.5 18t-40 17
t-59.5 14.5v61h150q114 0 194.5 2t104.5 4l24 2l11 -8q-3 -4 -7.5 -10.5t-16 -31t-20.5 -52t-16.5 -72t-7.5 -92.5v-905q0 -27 -2.5 -55t-5.5 -42l-2 -14l174 -18l-8 -68l-568 -12v76q64 8 101 41.5t37 85.5v442h-650l-24 -25v-411q0 -27 -2.5 -55t-5.5 -42l-2 -14l174 -18
l-8 -68zM496 1530l274 254h150l272 -254l-70 -62l-268 146h-20l-269 -146z" />
    <glyph glyph-name="hcircumflex" unicode="&#x125;" horiz-adv-x="1189" 
d="M49 -6v69q117 14 117 134v1030q0 37 -1.5 57.5t-7.5 40.5t-18.5 28.5t-34.5 8.5h-75v65q146 29 249 55.5t134 37.5l30 12l7 -6q-21 -74 -21 -232v-356q0 -62 -4 -122.5t-4 -63.5q156 204 358 204q113 0 178.5 -67t65.5 -209v-483q0 -27 -2.5 -54.5t-5.5 -40.5l-2 -14
l164 -20l-9 -62l-499 -12v69q92 13 92 134v403q0 103 -26 139.5t-89 36.5q-119 0 -217 -76v-503q0 -27 -2.5 -55t-5.5 -42l-2 -14l129 -18l-8 -62zM29 1552l-60 72l264 244h127l265 -244l-60 -72l-262 158h-12z" />
    <glyph glyph-name="Hbar" unicode="&#x126;" horiz-adv-x="1673" 
d="M80 963v104h153v88q0 31 -0.5 44t-5 31t-12 25.5t-24 18t-40 17t-59.5 14.5v61h150q114 0 194.5 2t104.5 4l24 2l10 -8q-3 -4 -7.5 -10.5t-16 -31t-20.5 -52t-16 -72t-7 -92.5v-41h674v88q0 30 -0.5 43.5t-5 31.5t-12.5 25.5t-24.5 18t-40 17t-59.5 14.5v61h150
q114 0 194.5 2t104.5 4l24 2l11 -8q-3 -4 -7.5 -10.5t-16 -31t-20.5 -52t-16.5 -72t-7.5 -92.5v-41h152v-104h-152v-760q0 -27 -2.5 -55t-5.5 -42l-2 -14l174 -18l-8 -68l-568 -12v76q64 8 101 41.5t37 85.5v442h-650l-24 -25v-411q0 -27 -2.5 -55t-5.5 -42l-2 -14l174 -18
l-8 -68l-568 -12v76q65 8 101 43t36 90v760h-153zM1157 752l25 24v187h-674v-211h649z" />
    <glyph glyph-name="hbar" unicode="&#x127;" horiz-adv-x="1189" 
d="M31 1081v113h135v33q0 37 -1.5 57.5t-7.5 40.5t-18.5 28.5t-34.5 8.5h-75v65q146 29 249 55.5t134 37.5l30 12l7 -6q-21 -74 -21 -232v-100h301v-113h-301v-143q0 -62 -4 -122.5t-4 -63.5q156 204 358 204q113 0 178.5 -67t65.5 -209v-483q0 -27 -2.5 -54.5t-5.5 -40.5
l-2 -14l164 -20l-9 -62l-499 -12v69q92 13 92 134v403q0 103 -26 139.5t-89 36.5q-119 0 -217 -76v-503q0 -27 -2.5 -55t-5.5 -42l-2 -14l129 -18l-8 -62l-490 -12v69q117 14 117 134v884h-135z" />
    <glyph glyph-name="Itilde" unicode="&#x128;" horiz-adv-x="724" 
d="M96 -6v76q65 8 101 43t36 90v952q0 31 -0.5 44t-5 31t-12 25.5t-24 18t-40 17t-59.5 14.5v61h150q114 0 194.5 2t104.5 4l24 2l10 -8q-3 -4 -7.5 -10.5t-16 -31t-20.5 -52t-16 -72t-7 -92.5v-905q0 -27 -2.5 -55t-5.5 -42l-2 -14l174 -18l-8 -68zM70 1497l-88 19
q0 5 1 13.5t6.5 33.5t14 48t26 51t40 48t57.5 33.5t78 13.5q56 0 116.5 -26.5t114.5 -53t96 -26.5q41 0 68.5 26.5t35.5 52.5l7 27l90 -10q0 -5 -1 -14t-6 -35t-13.5 -49.5t-26 -52.5t-41.5 -50t-62 -35t-85 -14t-95.5 16.5t-80.5 37t-71 37t-71 16.5q-39 0 -66.5 -27
t-35.5 -53z" />
    <glyph glyph-name="itilde" unicode="&#x129;" horiz-adv-x="616" 
d="M66 -6v69q116 14 116 134v485q0 38 -1.5 57.5t-7 40.5t-18.5 29t-34 8h-82v66q108 17 212.5 42.5t154.5 42.5l51 17l6 -6q-19 -68 -19 -234v-548q0 -27 -2.5 -55t-5.5 -42l-2 -14l164 -18l-8 -62zM-31 1141q-1 6 -1.5 16.5t0 40.5t5 57t17.5 60.5t33 57.5t55.5 40.5
t81.5 16.5q40 0 74.5 -15t58.5 -37t46 -44t45.5 -37t47.5 -15q30 0 51 13.5t29.5 33t13 39.5t4.5 34v13h95q1 -6 1.5 -16.5t-0.5 -41t-6 -58t-18.5 -61.5t-34 -58.5t-57 -41t-84.5 -16.5q-39 0 -72.5 15t-56.5 37t-44 44t-44 37t-47 15q-31 0 -52 -13.5t-30 -32t-13.5 -37.5
t-4.5 -33l1 -13h-94z" />
    <glyph glyph-name="Imacron" unicode="&#x12a;" horiz-adv-x="724" 
d="M96 -6v76q65 8 101 43t36 90v952q0 31 -0.5 44t-5 31t-12 25.5t-24 18t-40 17t-59.5 14.5v61h150q114 0 194.5 2t104.5 4l24 2l10 -8q-3 -4 -7.5 -10.5t-16 -31t-20.5 -52t-16 -72t-7 -92.5v-905q0 -27 -2.5 -55t-5.5 -42l-2 -14l174 -18l-8 -68zM61 1550v152h590v-152
h-590z" />
    <glyph glyph-name="imacron" unicode="&#x12b;" horiz-adv-x="616" 
d="M63 -6v69q117 14 117 134v485q0 38 -1.5 57.5t-7 40.5t-18.5 29t-34 8h-82v66q108 17 212.5 42.5t154.5 42.5l51 17l6 -6q-19 -68 -19 -234v-548q0 -27 -2.5 -55t-5.5 -42l-2 -14l164 -18l-8 -62zM29 1186v151h528v-151h-528z" />
    <glyph glyph-name="Ibreve" unicode="&#x12c;" horiz-adv-x="724" 
d="M96 -6v76q65 8 101 43t36 90v952q0 31 -0.5 44t-5 31t-12 25.5t-24 18t-40 17t-59.5 14.5v61h150q114 0 194.5 2t104.5 4l24 2l10 -8q-3 -4 -7.5 -10.5t-16 -31t-20.5 -52t-16 -72t-7 -92.5v-905q0 -27 -2.5 -55t-5.5 -42l-2 -14l174 -18l-8 -68zM356 1464
q-134 0 -217.5 70.5t-83.5 191.5q0 30 6 64h95q0 -156 200 -156q199 0 199 156h96q4 -20 4 -57q0 -118 -82 -193.5t-217 -75.5z" />
    <glyph glyph-name="ibreve" unicode="&#x12d;" horiz-adv-x="616" 
d="M63 -6v69q117 14 117 134v485q0 38 -1.5 57.5t-7 40.5t-18.5 29t-34 8h-82v66q108 17 212.5 42.5t154.5 42.5l51 17l6 -6q-19 -68 -19 -234v-548q0 -27 -2.5 -55t-5.5 -42l-2 -14l164 -18l-8 -62zM293 1110q-123 0 -204 71t-81 183q0 44 10 80h93q-2 -17 -2 -25
q0 -40 15.5 -69.5t43 -45t58.5 -23t67 -7.5q81 0 132.5 33.5t51.5 111.5l-2 25h92q11 -53 11 -80q0 -112 -81 -183t-204 -71z" />
    <glyph glyph-name="Iogonek" unicode="&#x12e;" horiz-adv-x="724" 
d="M96 -6v76q65 8 101 43t36 90v952q0 31 -0.5 44t-5 31t-12 25.5t-24 18t-40 17t-59.5 14.5v61h150q114 0 194.5 2t104.5 4l24 2l10 -8q-3 -4 -7.5 -10.5t-16 -31t-20.5 -52t-16 -72t-7 -92.5v-905q0 -27 -2.5 -55t-5.5 -42l-2 -14l174 -18l-8 -68l-109 -2
q-59 -3 -133 -91.5t-74 -174.5q0 -55 37.5 -89t85.5 -34l45 4l19 -70q-83 -34 -183 -34q-92 0 -153.5 46.5t-61.5 116.5q0 23 5.5 45.5t21 46.5t28 41.5t41 46t44 43.5t54 49.5t54.5 49.5z" />
    <glyph glyph-name="iogonek" unicode="&#x12f;" horiz-adv-x="616" 
d="M63 -6v69q117 14 117 134v485q0 38 -1.5 57.5t-7 40.5t-18.5 29t-34 8h-82v66q108 17 212.5 42.5t154.5 42.5l51 17l6 -6q-19 -68 -19 -234v-548q0 -27 -2.5 -55t-5.5 -42l-2 -14l164 -18l-8 -62l-92 -2q-59 -3 -133 -91.5t-74 -174.5q0 -55 37.5 -89t85.5 -34l45 4
l18 -70q-83 -34 -182 -34q-92 0 -153.5 46.5t-61.5 116.5q0 23 5.5 45.5t21 46.5t28 41.5t41 46t44 43.5t54 49.5t54.5 49.5zM293 1135q-66 0 -109 40t-43 103q0 64 43 104.5t109 40.5t108.5 -40.5t42.5 -104.5q0 -63 -42.5 -103t-108.5 -40z" />
    <glyph glyph-name="Idotaccent" unicode="&#x130;" horiz-adv-x="724" 
d="M96 -6v76q65 8 101 43t36 90v952q0 31 -0.5 44t-5 31t-12 25.5t-24 18t-40 17t-59.5 14.5v61h150q114 0 194.5 2t104.5 4l24 2l10 -8q-3 -4 -7.5 -10.5t-16 -31t-20.5 -52t-16 -72t-7 -92.5v-905q0 -27 -2.5 -55t-5.5 -42l-2 -14l174 -18l-8 -68zM356 1483
q-66 0 -108.5 40t-42.5 103q0 64 42.5 105t108.5 41t109 -41t43 -105q0 -63 -43 -103t-109 -40z" />
    <glyph glyph-name="dotlessi" unicode="&#x131;" horiz-adv-x="616" 
d="M63 -6v69q117 14 117 134v485q0 38 -1.5 57.5t-7 40.5t-18.5 29t-34 8h-82v66q108 17 212.5 42.5t154.5 42.5l51 17l6 -6q-19 -68 -19 -234v-548q0 -27 -2.5 -55t-5.5 -42l-2 -14l164 -18l-8 -62z" />
    <glyph glyph-name="IJ" unicode="&#x132;" horiz-adv-x="1384" 
d="M96 -6v76q65 8 101 43t36 90v952q0 31 -0.5 44t-5 31t-12 25.5t-24 18t-40 17t-59.5 14.5v61h150q114 0 194.5 2t104.5 4l24 2l10 -8q-3 -4 -7.5 -10.5t-16 -31t-20.5 -52t-16 -72t-7 -92.5v-905q0 -27 -2.5 -55t-5.5 -42l-2 -14l174 -18l-8 -68zM924 143v1012
q0 30 -0.5 43.5t-5 31.5t-12.5 25.5t-24.5 18t-40 17t-59.5 14.5v61h150q115 0 195.5 2t104.5 4l23 2l11 -8q-8 -9 -19 -26.5t-30 -81.5t-19 -140v-817q0 -295 -125 -465t-346 -170l-25 60q89 12 155.5 131.5t66.5 285.5z" />
    <glyph glyph-name="ij" unicode="&#x133;" horiz-adv-x="1175" 
d="M63 -6v69q117 14 117 134v485q0 38 -1.5 57.5t-7 40.5t-18.5 29t-34 8h-82v66q108 17 212.5 42.5t154.5 42.5l51 17l6 -6q-19 -68 -19 -234v-548q0 -27 -2.5 -55t-5.5 -42l-2 -14l164 -18l-8 -62zM293 1135q-66 0 -109 40t-43 103q0 64 43 104.5t109 40.5t108.5 -40.5
t42.5 -104.5q0 -63 -42.5 -103t-108.5 -40zM774 -39v721q0 38 -1.5 57.5t-7 40.5t-18.5 29t-34 8h-82v66q108 17 212.5 42.5t154.5 42.5l51 17l6 -6q-19 -68 -19 -234v-647q0 -289 -119.5 -436t-338.5 -147l-25 59q89 12 155 123t66 264zM887 1135q-66 0 -109 40t-43 103
q0 64 43 104.5t109 40.5t108.5 -40.5t42.5 -104.5q0 -63 -42.5 -103t-108.5 -40z" />
    <glyph glyph-name="Jcircumflex" unicode="&#x134;" horiz-adv-x="675" 
d="M215 143v1012q0 31 -0.5 44t-5 31t-12 25.5t-24 18t-40 17t-59.5 14.5v61h149q115 0 196 2t105 4l23 2l10 -8q-8 -9 -19 -26.5t-30 -81.5t-19 -140v-817q0 -295 -125 -465t-346 -170l-24 60q89 12 155 131.5t66 285.5zM4 1530l275 254h149l272 -254l-69 -62l-269 146h-20
l-268 -146z" />
    <glyph glyph-name="jcircumflex" unicode="&#x135;" horiz-adv-x="567" 
d="M166 -39v721q0 37 -1.5 57.5t-7.5 40.5t-18.5 28.5t-34.5 8.5h-81v66q108 17 212 42.5t155 42.5l50 17l6 -6q-18 -68 -18 -234v-647q0 -288 -120 -435.5t-339 -147.5l-24 59q89 12 155 123t66 264zM-16 1081l247 363h109l244 -363l-76 -51l-223 225l-224 -225z" />
    <glyph glyph-name="Kcommaaccent" unicode="&#x136;" horiz-adv-x="1398" 
d="M96 -6v76q63 8 100 41.5t37 85.5v958q0 31 -0.5 44t-5 31t-12 25.5t-24 18t-40 17t-59.5 14.5v61h150q115 0 195.5 2t104.5 4l23 2l10 -8q-3 -3 -7.5 -9.5t-16 -29t-20.5 -48.5t-16 -69.5t-7 -91.5v-360h37q59 37 98 78l356 368q20 21 24.5 40.5t-17 36.5t-72.5 24v61
h409l13 -39q-14 -5 -37.5 -14.5t-82 -44.5t-99.5 -78l-351 -365v-34l461 -596q57 -74 84 -94t68 -23l22 -2l-8 -76h-393l-8 8q-2 7 -7.5 21.5t-39 70t-86.5 123.5l-330 426h-41v-452q0 -26 -2.5 -52.5t-5.5 -39.5l-2 -13l174 -18l-8 -68zM582 -133l20 45h238q43 -59 43 -129
q0 -84 -80.5 -163.5t-200.5 -129.5l-49 68q63 35 92 66.5t29 68.5q0 67 -92 174z" />
    <glyph glyph-name="kcommaaccent" unicode="&#x137;" horiz-adv-x="1138" 
d="M49 -6v69q117 14 117 134v1030q0 37 -1.5 57.5t-7.5 40.5t-18.5 28.5t-34.5 8.5h-75v65q146 29 249 55.5t134 37.5l30 12l7 -6q-21 -74 -21 -232v-739h35l201 176q29 26 40 36.5t22 27t11 30.5q0 31 -63 45v62h395l10 -33q-16 -5 -41.5 -15t-83.5 -39.5t-90 -58.5
l-192 -172v-28q14 -23 26 -37l281 -365q54 -68 84 -87.5t70 -22.5l22 -2l-8 -72l-373 -6q-20 75 -69 141l-242 330h-35v-268q0 -27 -2.5 -55t-5.5 -42l-2 -14l143 -18l-8 -62zM449 -133l20 45h238q43 -59 43 -129q0 -84 -80.5 -163.5t-200.5 -129.5l-49 68q63 35 92 66.5
t29 68.5q0 67 -92 174z" />
    <glyph glyph-name="kgreenlandic" unicode="&#x138;" horiz-adv-x="1142" 
d="M63 -6v69q117 14 117 134v485q0 38 -1.5 57.5t-7 40.5t-18.5 29t-34 8h-82v66q108 17 212.5 42.5t154.5 42.5l51 17l6 -6q-19 -68 -19 -234v-231h41l240 217q56 51 66 68q8 14 8 26q0 31 -64 45v62h375l10 -33q-126 -52 -194 -113l-240 -219v-28q15 -23 27 -37l252 -318
q54 -68 83.5 -87.5t69.5 -22.5l23 -2l-9 -72l-372 -6q-21 75 -70 141l-217 289h-29v-227q0 -27 -2.5 -55t-5.5 -42l-2 -14l123 -18l-8 -62z" />
    <glyph glyph-name="Lacute" unicode="&#x139;" horiz-adv-x="1179" 
d="M96 -6v76q65 8 101 40t36 87v958q0 31 -0.5 44t-5 31t-12 25.5t-24 18t-40 17t-59.5 14.5v61h150q110 0 191 2t107 4l25 2l10 -8q-3 -4 -7.5 -10.5t-16 -31t-20.5 -52t-16 -72t-7 -92.5v-887q0 -27 -2.5 -56t-5.5 -44l-2 -15h295q36 0 64.5 5.5t51.5 14t45 28t38 37.5
t36.5 53t36 64t41.5 81h80l-86 -389h-654zM154 1552l393 232h10l88 -146v-59l-452 -111z" />
    <glyph glyph-name="lacute" unicode="&#x13a;" horiz-adv-x="604" 
d="M51 1642l393 232h11l88 -145v-60l-453 -110zM49 -6v69q117 14 117 134v1030q0 37 -1.5 57.5t-7.5 40.5t-18.5 28.5t-34.5 8.5h-75v65q146 29 249 55.5t134 37.5l30 12l7 -6q-21 -74 -21 -232v-1097q0 -27 -2.5 -55t-5.5 -42l-2 -14l164 -18l-9 -62z" />
    <glyph glyph-name="Lcommaaccent" unicode="&#x13b;" horiz-adv-x="1179" 
d="M96 -6v76q65 8 101 40t36 87v958q0 31 -0.5 44t-5 31t-12 25.5t-24 18t-40 17t-59.5 14.5v61h150q110 0 191 2t107 4l25 2l10 -8q-3 -4 -7.5 -10.5t-16 -31t-20.5 -52t-16 -72t-7 -92.5v-887q0 -27 -2.5 -56t-5.5 -44l-2 -15h295q36 0 64.5 5.5t51.5 14t45 28t38 37.5
t36.5 53t36 64t41.5 81h80l-86 -389h-654zM492 -133l20 45h238q43 -59 43 -129q0 -84 -80.5 -163.5t-200.5 -129.5l-49 68q63 35 92 66.5t29 68.5q0 67 -92 174z" />
    <glyph glyph-name="lcommaaccent" unicode="&#x13c;" horiz-adv-x="604" 
d="M49 -6v69q117 14 117 134v1030q0 37 -1.5 57.5t-7.5 40.5t-18.5 28.5t-34.5 8.5h-75v65q146 29 249 55.5t134 37.5l30 12l7 -6q-21 -74 -21 -232v-1097q0 -27 -2.5 -55t-5.5 -42l-2 -14l164 -18l-9 -62zM154 -133l20 45h238q43 -59 43 -129q0 -84 -80.5 -163.5
t-200.5 -129.5l-49 68q63 35 92 66.5t29 68.5q0 67 -92 174z" />
    <glyph glyph-name="Lcaron" unicode="&#x13d;" horiz-adv-x="1179" 
d="M96 -6v76q65 8 101 40t36 87v958q0 31 -0.5 44t-5 31t-12 25.5t-24 18t-40 17t-59.5 14.5v61h150q110 0 191 2t107 4l25 2l10 -8q-3 -4 -7.5 -10.5t-16 -31t-20.5 -52t-16 -72t-7 -92.5v-887q0 -27 -2.5 -56t-5.5 -44l-2 -15h295q36 0 64.5 5.5t51.5 14t45 28t38 37.5
t36.5 53t36 64t41.5 81h80l-86 -389h-654zM692 1110l51 403l250 21v-68l-188 -356h-113z" />
    <glyph glyph-name="lcaron" unicode="&#x13e;" horiz-adv-x="604" 
d="M49 -6v69q117 14 117 134v1030q0 37 -1.5 57.5t-7.5 40.5t-18.5 28.5t-34.5 8.5h-75v65q146 29 249 55.5t134 37.5l30 12l7 -6q-21 -74 -21 -232v-1097q0 -27 -2.5 -55t-5.5 -42l-2 -14l164 -18l-9 -62zM545 1110l51 403l250 21v-68l-189 -356h-112z" />
    <glyph glyph-name="Ldot" unicode="&#x13f;" horiz-adv-x="1179" 
d="M96 -6v76q65 8 101 40t36 87v958q0 31 -0.5 44t-5 31t-12 25.5t-24 18t-40 17t-59.5 14.5v61h150q110 0 191 2t107 4l25 2l10 -8q-3 -4 -7.5 -10.5t-16 -31t-20.5 -52t-16 -72t-7 -92.5v-887q0 -27 -2.5 -56t-5.5 -44l-2 -15h295q36 0 64.5 5.5t51.5 14t45 28t38 37.5
t36.5 53t36 64t41.5 81h80l-86 -389h-654zM944 580q-65 0 -111.5 46.5t-46.5 110.5q0 66 46.5 113t111.5 47q66 0 113 -47t47 -113q0 -65 -47 -111t-113 -46z" />
    <glyph glyph-name="ldot" unicode="&#x140;" horiz-adv-x="862" 
d="M49 -6v69q117 14 117 134v1030q0 37 -1.5 57.5t-7.5 40.5t-18.5 28.5t-34.5 8.5h-75v65q146 29 249 55.5t134 37.5l30 12l7 -6q-21 -74 -21 -232v-1097q0 -27 -2.5 -55t-5.5 -42l-2 -14l164 -18l-9 -62zM723 580q-65 0 -111.5 46.5t-46.5 110.5q0 66 46.5 113t111.5 47
q66 0 113 -47t47 -113q0 -65 -47 -111t-113 -46z" />
    <glyph glyph-name="Lslash" unicode="&#x141;" horiz-adv-x="1202" 
d="M76 449v124l176 119v463q0 31 -0.5 44t-5 31t-12 25.5t-24 18t-40 17t-59.5 14.5v61h149q110 0 191 2t107 4l26 2l10 -8q-3 -4 -7.5 -10.5t-16 -31t-20.5 -52t-16.5 -72t-7.5 -92.5v-238l277 191v-125l-277 -188v-527q0 -27 -2.5 -56t-5.5 -44l-2 -15h295q36 0 64.5 5.5
t51.5 14t45 28t38 37.5t36.5 53t36 64t41.5 81h80l-86 -389h-653l-350 -6v76q65 8 101 40t36 87v372z" />
    <glyph glyph-name="lslash" unicode="&#x142;" horiz-adv-x="661" 
d="M55 442v123l144 105v557q0 37 -1.5 57.5t-7.5 40.5t-18.5 28.5t-34.5 8.5h-76v65q146 29 249.5 55.5t133.5 37.5l31 12l6 -6q-20 -74 -20 -232v-444l143 106v-122l-143 -107v-530q0 -27 -2.5 -55t-4.5 -42l-3 -14l163 -18l-8 -62l-524 -12v69q117 14 117 134v348z" />
    <glyph glyph-name="Nacute" unicode="&#x143;" horiz-adv-x="1607" 
d="M96 -6v76q70 8 109 40t39 87v880q0 100 -33.5 147.5t-132.5 80.5v61h59l269 8q24 -49 79 -106l717 -756q37 -40 84 -98v729q0 28 -1 42t-5.5 34t-15 30t-28.5 21t-46.5 17.5t-69.5 10.5v68h414l10 -39q-6 -2 -15.5 -5.5t-33.5 -19t-43 -36t-34 -59.5t-15 -87v-1130h-86
l-873 934q-38 38 -84 100v-827q0 -27 -2.5 -55t-5.5 -42l-2 -14l185 -12l-9 -68zM606 1552l393 232h11l88 -146v-59l-453 -111z" />
    <glyph glyph-name="nacute" unicode="&#x144;" horiz-adv-x="1204" 
d="M63 -6v69q117 14 117 134v485q0 38 -1.5 57.5t-7 40.5t-18.5 29t-34 8h-82v66q108 17 211.5 42.5t153.5 42.5l49 17l6 -6q-19 -45 -29 -227q65 85 158 144.5t207 59.5q112 0 177.5 -67t65.5 -209v-483q0 -27 -2.5 -54.5t-5.5 -40.5l-2 -14l164 -20l-8 -62l-500 -12v69
q92 13 92 134v403q0 103 -26 139.5t-89 36.5q-119 0 -217 -76v-503q0 -27 -2.5 -54.5t-5.5 -40.5l-2 -14l129 -20l-8 -62zM584 1038l-82 43l155 351l248 22v-55z" />
    <glyph glyph-name="Ncommaaccent" unicode="&#x145;" horiz-adv-x="1607" 
d="M96 -6v76q70 8 109 40t39 87v880q0 100 -33.5 147.5t-132.5 80.5v61h59l269 8q24 -49 79 -106l717 -756q37 -40 84 -98v729q0 28 -1 42t-5.5 34t-15 30t-28.5 21t-46.5 17.5t-69.5 10.5v68h414l10 -39q-6 -2 -15.5 -5.5t-33.5 -19t-43 -36t-34 -59.5t-15 -87v-1130h-86
l-873 934q-38 38 -84 100v-827q0 -27 -2.5 -55t-5.5 -42l-2 -14l185 -12l-9 -68zM680 -133l20 45h238q43 -59 43 -129q0 -84 -80.5 -163.5t-200.5 -129.5l-49 68q63 35 92 66.5t29 68.5q0 67 -92 174z" />
    <glyph glyph-name="ncommaaccent" unicode="&#x146;" horiz-adv-x="1204" 
d="M63 -6v69q117 14 117 134v485q0 38 -1.5 57.5t-7 40.5t-18.5 29t-34 8h-82v66q108 17 211.5 42.5t153.5 42.5l49 17l6 -6q-19 -45 -29 -227q65 85 158 144.5t207 59.5q112 0 177.5 -67t65.5 -209v-483q0 -27 -2.5 -54.5t-5.5 -40.5l-2 -14l164 -20l-8 -62l-500 -12v69
q92 13 92 134v403q0 103 -26 139.5t-89 36.5q-119 0 -217 -76v-503q0 -27 -2.5 -54.5t-5.5 -40.5l-2 -14l129 -20l-8 -62zM465 -133l20 45h238q43 -59 43 -129q0 -84 -80.5 -163.5t-200.5 -129.5l-49 68q63 35 92 66.5t29 68.5q0 67 -92 174z" />
    <glyph glyph-name="Ncaron" unicode="&#x147;" horiz-adv-x="1607" 
d="M96 -6v76q70 8 109 40t39 87v880q0 100 -33.5 147.5t-132.5 80.5v61h59l269 8q24 -49 79 -106l717 -756q37 -40 84 -98v729q0 28 -1 42t-5.5 34t-15 30t-28.5 21t-46.5 17.5t-69.5 10.5v68h414l10 -39q-6 -2 -15.5 -5.5t-33.5 -19t-43 -36t-34 -59.5t-15 -87v-1130h-86
l-873 934q-38 38 -84 100v-827q0 -27 -2.5 -55t-5.5 -42l-2 -14l185 -12l-9 -68zM475 1722l70 62l268 -146h21l268 146l69 -62l-274 -254h-149z" />
    <glyph glyph-name="ncaron" unicode="&#x148;" horiz-adv-x="1204" 
d="M63 -6v69q117 14 117 134v485q0 38 -1.5 57.5t-7 40.5t-18.5 29t-34 8h-82v66q108 17 211.5 42.5t153.5 42.5l49 17l6 -6q-19 -45 -29 -227q65 85 158 144.5t207 59.5q112 0 177.5 -67t65.5 -209v-483q0 -27 -2.5 -54.5t-5.5 -40.5l-2 -14l164 -20l-8 -62l-500 -12v69
q92 13 92 134v403q0 103 -26 139.5t-89 36.5q-119 0 -217 -76v-503q0 -27 -2.5 -54.5t-5.5 -40.5l-2 -14l129 -20l-8 -62zM555 1071l-248 346l78 51l223 -208l223 208l76 -51l-243 -346h-109z" />
    <glyph glyph-name="napostrophe" unicode="&#x149;" horiz-adv-x="1204" 
d="M63 -6v69q117 14 117 134v485q0 38 -1.5 57.5t-7 40.5t-18.5 29t-34 8h-82v66q108 17 211.5 42.5t153.5 42.5l49 17l6 -6q-19 -45 -29 -227q65 85 158 144.5t207 59.5q112 0 177.5 -67t65.5 -209v-483q0 -27 -2.5 -54.5t-5.5 -40.5l-2 -14l164 -20l-8 -62l-500 -12v69
q92 13 92 134v403q0 103 -26 139.5t-89 36.5q-119 0 -217 -76v-503q0 -27 -2.5 -54.5t-5.5 -40.5l-2 -14l129 -20l-8 -62zM74 1466l20 45h238q43 -59 43 -129q0 -84 -80.5 -163t-200.5 -129l-49 67q63 35 92 66.5t29 68.5q0 67 -92 174z" />
    <glyph glyph-name="Eng" unicode="&#x14a;" horiz-adv-x="1607" 
d="M1403 1120v-975q0 -61 -6 -125t-22 -136.5t-41 -128t-68 -92t-97 -36.5q-50 0 -77 28.5t-27 68.5q0 63 76 96q2 1 18.5 7.5t23 9.5t23 12t24.5 17t21 22t19 29t11 36t5 45v25l-842 901q-38 38 -84 100v-827q0 -27 -2.5 -55t-5.5 -42l-2 -14l185 -12l-9 -68l-430 -12v76
q70 8 109 40t39 87v880q0 100 -33.5 147.5t-132.5 80.5v61h59l269 8q24 -49 79 -106l717 -756q37 -40 84 -98v729q0 28 -1 42t-5.5 34t-15 30t-28.5 21t-46.5 17.5t-69.5 10.5v68h414l10 -39q-6 -2 -15.5 -5.5t-33.5 -19t-43 -36t-34 -59.5t-15 -87z" />
    <glyph glyph-name="eng" unicode="&#x14b;" horiz-adv-x="1161" 
d="M63 -6v69q117 14 117 134v485q0 38 -1.5 57.5t-7 40.5t-18.5 29t-34 8h-82v66q108 17 211.5 42.5t153.5 42.5l49 17l6 -6q-19 -45 -29 -227q65 85 158 144.5t207 59.5q112 0 177.5 -67t65.5 -209v-520q0 -95 -15.5 -178t-42 -142.5t-61 -109.5t-72.5 -82.5t-76 -58
t-72.5 -39t-61 -22t-41.5 -10.5l-16 -3l-25 59q9 4 24 12.5t53 44t67 81t53 129t24 182.5v577q0 103 -26 139.5t-89 36.5q-119 0 -217 -76v-503q0 -27 -2.5 -54.5t-5.5 -40.5l-2 -14l129 -20l-8 -62z" />
    <glyph glyph-name="Omacron" unicode="&#x14c;" horiz-adv-x="1638" 
d="M373 721q0 -118 31.5 -231.5t88.5 -206t147 -149t198 -56.5q102 0 185 50.5t134.5 135.5t79 190.5t27.5 221.5q0 92 -17.5 179.5t-55 166t-90.5 137.5t-129 94t-165 35q-105 0 -189.5 -47.5t-137 -127.5t-80 -180.5t-27.5 -211.5zM72 662q0 109 31 214t95 198.5t155 164
t219.5 111.5t279.5 41q143 0 263 -37t202.5 -100t140 -147.5t84.5 -179.5t27 -196q0 -111 -32 -219t-98 -205t-157.5 -171t-219.5 -117.5t-276 -43.5q-138 0 -256 38t-201 104t-142 153.5t-87 187t-28 204.5zM524 1550v152h590v-152h-590z" />
    <glyph glyph-name="omacron" unicode="&#x14d;" horiz-adv-x="1118" 
d="M55 446q0 75 18 146t58.5 137.5t98.5 116.5t145.5 80t193.5 30q227 0 360.5 -126t133.5 -328q0 -79 -20.5 -154t-63 -143t-103 -119t-146.5 -81t-187 -30q-220 0 -354 131.5t-134 339.5zM338 500q0 -78 14 -152.5t41 -138.5t74.5 -103.5t107.5 -39.5q61 0 104.5 40.5
t63.5 105t28.5 127t6.5 124.5q-1 73 -14.5 141.5t-40 128.5t-72 96.5t-104.5 36.5q-53 0 -94 -30t-65.5 -82t-37 -116.5t-12.5 -137.5zM295 1186v151h528v-151h-528z" />
    <glyph glyph-name="Obreve" unicode="&#x14e;" horiz-adv-x="1638" 
d="M373 721q0 -118 31.5 -231.5t88.5 -206t147 -149t198 -56.5q102 0 185 50.5t134.5 135.5t79 190.5t27.5 221.5q0 92 -17.5 179.5t-55 166t-90.5 137.5t-129 94t-165 35q-105 0 -189.5 -47.5t-137 -127.5t-80 -180.5t-27.5 -211.5zM72 662q0 109 31 214t95 198.5t155 164
t219.5 111.5t279.5 41q143 0 263 -37t202.5 -100t140 -147.5t84.5 -179.5t27 -196q0 -111 -32 -219t-98 -205t-157.5 -171t-219.5 -117.5t-276 -43.5q-138 0 -256 38t-201 104t-142 153.5t-87 187t-28 204.5zM819 1464q-134 0 -217.5 70.5t-83.5 191.5q0 30 6 64h94
q0 -156 201 -156q199 0 199 156h96q4 -20 4 -57q0 -118 -82 -193.5t-217 -75.5z" />
    <glyph glyph-name="obreve" unicode="&#x14f;" horiz-adv-x="1118" 
d="M55 446q0 75 18 146t58.5 137.5t98.5 116.5t145.5 80t193.5 30q227 0 360.5 -126t133.5 -328q0 -79 -20.5 -154t-63 -143t-103 -119t-146.5 -81t-187 -30q-220 0 -354 131.5t-134 339.5zM338 500q0 -78 14 -152.5t41 -138.5t74.5 -103.5t107.5 -39.5q61 0 104.5 40.5
t63.5 105t28.5 127t6.5 124.5q-1 73 -14.5 141.5t-40 128.5t-72 96.5t-104.5 36.5q-53 0 -94 -30t-65.5 -82t-37 -116.5t-12.5 -137.5zM559 1110q-123 0 -204 71t-81 183q0 40 11 80h92q-2 -17 -2 -25q0 -40 15.5 -69.5t43 -45t58.5 -23t67 -7.5q81 0 132.5 33.5t51.5 111.5
l-2 25h93q10 -48 10 -80q0 -112 -81 -183t-204 -71z" />
    <glyph glyph-name="Ohungarumlaut" unicode="&#x150;" horiz-adv-x="1638" 
d="M373 721q0 -118 31.5 -231.5t88.5 -206t147 -149t198 -56.5q102 0 185 50.5t134.5 135.5t79 190.5t27.5 221.5q0 92 -17.5 179.5t-55 166t-90.5 137.5t-129 94t-165 35q-105 0 -189.5 -47.5t-137 -127.5t-80 -180.5t-27.5 -211.5zM72 662q0 109 31 214t95 198.5t155 164
t219.5 111.5t279.5 41q143 0 263 -37t202.5 -100t140 -147.5t84.5 -179.5t27 -196q0 -111 -32 -219t-98 -205t-157.5 -171t-219.5 -117.5t-276 -43.5q-138 0 -256 38t-201 104t-142 153.5t-87 187t-28 204.5zM635 1470l-78 50l113 252l250 18v-55zM997 1470l-77 50l133 252
l250 18v-55z" />
    <glyph glyph-name="ohungarumlaut" unicode="&#x151;" horiz-adv-x="1118" 
d="M55 446q0 75 18 146t58.5 137.5t98.5 116.5t145.5 80t193.5 30q227 0 360.5 -126t133.5 -328q0 -79 -20.5 -154t-63 -143t-103 -119t-146.5 -81t-187 -30q-220 0 -354 131.5t-134 339.5zM338 500q0 -78 14 -152.5t41 -138.5t74.5 -103.5t107.5 -39.5q61 0 104.5 40.5
t63.5 105t28.5 127t6.5 124.5q-1 73 -14.5 141.5t-40 128.5t-72 96.5t-104.5 36.5q-53 0 -94 -30t-65.5 -82t-37 -116.5t-12.5 -137.5zM391 1038l-80 43l148 351l213 22v-55zM717 1038l-82 43l149 351l213 22v-55z" />
    <glyph glyph-name="OE" unicode="&#x152;" horiz-adv-x="2056" 
d="M72 659q0 109 31.5 215t96 199.5t153.5 164t212.5 112t265.5 41.5q68 0 191 -12.5t156 -12.5h620q37 0 76.5 2t60.5 4l21 2l-64 -362h-80q4 79 -6.5 128t-39.5 75.5t-69 35.5t-106 9h-227l-25 -25v-485h342l17 118l86 13v-392h-107v154h-313l-25 -25v-397q0 -27 -2.5 -56
t-4.5 -44l-3 -15h285q47 0 76.5 2.5t57.5 13t45 24t39 45t39.5 64.5t45.5 93h80l-76 -348h-688q-40 0 -216 -12.5t-241 -12.5q-134 0 -249 38t-197.5 103.5t-141.5 153t-87.5 186.5t-28.5 203zM373 725q0 -121 30 -234t87.5 -207t152.5 -151t215 -57q24 0 50.5 3t66 13.5
t65 37t25.5 65.5v929q0 37 -9.5 65t-33 52.5t-68.5 37.5t-110 13q-120 0 -213 -46.5t-148 -126.5t-82.5 -179.5t-27.5 -214.5z" />
    <glyph glyph-name="oe" unicode="&#x153;" horiz-adv-x="1673" 
d="M55 446q0 75 18 146t58.5 137.5t98.5 116.5t145.5 80t193.5 30q231 0 351 -165q62 77 146.5 121t182.5 44q72 0 135 -21.5t115 -64t83 -114t34 -164.5q-94 -33 -135 -39l-434 -66l-19 -26q17 -131 95 -216t223 -85q65 0 126 20.5t89 41.5l28 20l25 -60q-5 -8 -14 -22
t-44 -50t-76 -63t-109.5 -49.5t-145.5 -22.5q-208 0 -320 183q-131 -183 -362 -183q-220 0 -354 131.5t-134 339.5zM338 500q0 -78 14 -152.5t41 -138.5t74.5 -103.5t107.5 -39.5q49 0 87 28t59.5 69.5t35 97.5t18 104.5t3.5 97.5q-2 73 -15.5 141t-39.5 128.5t-71.5 97
t-104.5 36.5q-53 0 -94 -30t-65.5 -82t-37 -116.5t-12.5 -137.5zM1206 858q-79 0 -125.5 -78t-54.5 -198l334 43q0 9 -1.5 25t-10.5 56t-24 71t-46 56t-72 25z" />
    <glyph glyph-name="Racute" unicode="&#x154;" horiz-adv-x="1351" 
d="M98 -6v76q64 8 101 41.5t37 85.5v958q0 41 -3.5 61t-20.5 38.5t-47 28.5t-87 22v61h579q130 0 229 -27t156.5 -74.5t86 -105t28.5 -123.5q0 -195 -252 -352v-35l297 -446q28 -42 51.5 -68.5t44 -37.5t30.5 -14t30 -5l22 -2l-8 -76h-393l-8 8q-27 88 -117 223l-231 351
h-88l-25 -25v-360q0 -26 -2.5 -52.5t-5.5 -39.5l-2 -13l184 -18l-8 -68zM510 688h149q75 0 136 76t61 209q0 130 -67 208.5t-203 78.5h-51l-25 -25v-547zM426 1552l393 232h10l89 -146v-59l-453 -111z" />
    <glyph glyph-name="racute" unicode="&#x155;" horiz-adv-x="843" 
d="M63 -6v69q117 14 117 134v483q0 38 -1.5 57.5t-7 40.5t-18.5 29t-34 8h-82v66q108 17 211.5 43t153.5 44l49 17l6 -6q-19 -45 -29 -250q5 9 15 24.5t41 54.5t63 69t79.5 54.5t92.5 24.5q61 0 94 -36t33 -86q0 -53 -35.5 -92.5t-95.5 -39.5q-35 0 -69 20.5t-58 20.5
q-29 0 -65.5 -16.5t-58.5 -32.5l-22 -16v-481q0 -27 -2.5 -55t-5.5 -42l-2 -14l184 -18l-8 -62zM416 1038l-82 43l155 351l248 22v-55z" />
    <glyph glyph-name="Rcommaaccent" unicode="&#x156;" horiz-adv-x="1351" 
d="M98 -6v76q64 8 101 41.5t37 85.5v958q0 41 -3.5 61t-20.5 38.5t-47 28.5t-87 22v61h579q130 0 229 -27t156.5 -74.5t86 -105t28.5 -123.5q0 -195 -252 -352v-35l297 -446q28 -42 51.5 -68.5t44 -37.5t30.5 -14t30 -5l22 -2l-8 -76h-393l-8 8q-27 88 -117 223l-231 351
h-88l-25 -25v-360q0 -26 -2.5 -52.5t-5.5 -39.5l-2 -13l184 -18l-8 -68zM510 688h149q75 0 136 76t61 209q0 130 -67 208.5t-203 78.5h-51l-25 -25v-547zM588 -133l20 45h238q43 -59 43 -129q0 -84 -80.5 -163.5t-200.5 -129.5l-49 68q63 35 92 66.5t29 68.5q0 67 -92 174z
" />
    <glyph glyph-name="rcommaaccent" unicode="&#x157;" horiz-adv-x="843" 
d="M63 -6v69q117 14 117 134v483q0 38 -1.5 57.5t-7 40.5t-18.5 29t-34 8h-82v66q108 17 211.5 43t153.5 44l49 17l6 -6q-19 -45 -29 -250q5 9 15 24.5t41 54.5t63 69t79.5 54.5t92.5 24.5q61 0 94 -36t33 -86q0 -53 -35.5 -92.5t-95.5 -39.5q-35 0 -69 20.5t-58 20.5
q-29 0 -65.5 -16.5t-58.5 -32.5l-22 -16v-481q0 -27 -2.5 -55t-5.5 -42l-2 -14l184 -18l-8 -62zM168 -133l20 45h238q43 -59 43 -129q0 -84 -80.5 -163.5t-200.5 -129.5l-49 68q63 35 92 66.5t29 68.5q0 67 -92 174z" />
    <glyph glyph-name="Rcaron" unicode="&#x158;" horiz-adv-x="1351" 
d="M98 -6v76q64 8 101 41.5t37 85.5v958q0 41 -3.5 61t-20.5 38.5t-47 28.5t-87 22v61h579q130 0 229 -27t156.5 -74.5t86 -105t28.5 -123.5q0 -195 -252 -352v-35l297 -446q28 -42 51.5 -68.5t44 -37.5t30.5 -14t30 -5l22 -2l-8 -76h-393l-8 8q-27 88 -117 223l-231 351
h-88l-25 -25v-360q0 -26 -2.5 -52.5t-5.5 -39.5l-2 -13l184 -18l-8 -68zM510 688h149q75 0 136 76t61 209q0 130 -67 208.5t-203 78.5h-51l-25 -25v-547zM295 1722l70 62l268 -146h20l269 146l69 -62l-274 -254h-150z" />
    <glyph glyph-name="rcaron" unicode="&#x159;" horiz-adv-x="843" 
d="M63 -6v69q117 14 117 134v483q0 38 -1.5 57.5t-7 40.5t-18.5 29t-34 8h-82v66q108 17 211.5 43t153.5 44l49 17l6 -6q-19 -45 -29 -250q5 9 15 24.5t41 54.5t63 69t79.5 54.5t92.5 24.5q61 0 94 -36t33 -86q0 -53 -35.5 -92.5t-95.5 -39.5q-35 0 -69 20.5t-58 20.5
q-29 0 -65.5 -16.5t-58.5 -32.5l-22 -16v-481q0 -27 -2.5 -55t-5.5 -42l-2 -14l184 -18l-8 -62zM387 1071l-248 346l78 51l223 -208l224 208l75 -51l-243 -346h-109z" />
    <glyph glyph-name="Sacute" unicode="&#x15a;" horiz-adv-x="1058" 
d="M78 184q0 51 61 228h80q0 -77 19 -137.5t48.5 -96.5t70 -59.5t79.5 -32t80 -8.5q92 0 157.5 46t65.5 134q0 64 -35 118t-90.5 93.5t-123.5 78t-135.5 81t-123 92t-90.5 122.5t-35 161q0 171 125.5 279t356.5 108q35 0 71 -2t81.5 -7.5t68 -8.5t79.5 -11.5t66 -9.5
l-67 -340h-80q3 127 -52.5 201.5t-183.5 74.5q-103 0 -163 -48t-60 -130q0 -65 35 -118.5t90.5 -91.5t123 -74t135.5 -77t123.5 -90t90.5 -123.5t35 -166.5q0 -128 -65 -218.5t-170.5 -133t-239.5 -42.5q-73 0 -144.5 11.5t-135.5 35.5t-105 66t-43 96zM350 1552l393 232h11
l88 -146v-59l-453 -111z" />
    <glyph glyph-name="sacute" unicode="&#x15b;" horiz-adv-x="802" 
d="M61 119q0 22 9.5 64.5t18.5 74.5l9 31h68q5 -62 27.5 -108.5t56 -71.5t68.5 -36.5t71 -11.5q58 0 93.5 30t35.5 83q0 41 -24 74t-62 57t-84.5 47.5t-93 51t-84.5 61t-62 85.5t-24 116q0 135 97 212.5t251 77.5q54 0 124.5 -9.5t114.5 -18.5l44 -10l-47 -232h-70
q-4 56 -21.5 95t-44 57t-50.5 25t-50 7q-56 0 -88.5 -29.5t-32.5 -80.5q0 -42 24 -74.5t62 -55.5t84 -45t92 -48.5t84 -59.5t62 -85t24 -118q0 -146 -101.5 -222.5t-260.5 -76.5q-49 0 -102 8t-103.5 24.5t-82.5 45.5t-32 66zM389 1038l-82 43l156 351l248 22v-55z" />
    <glyph glyph-name="Scircumflex" unicode="&#x15c;" horiz-adv-x="1058" 
d="M78 184q0 51 61 228h80q0 -77 19 -137.5t48.5 -96.5t70 -59.5t79.5 -32t80 -8.5q92 0 157.5 46t65.5 134q0 64 -35 118t-90.5 93.5t-123.5 78t-135.5 81t-123 92t-90.5 122.5t-35 161q0 171 125.5 279t356.5 108q35 0 71 -2t81.5 -7.5t68 -8.5t79.5 -11.5t66 -9.5
l-67 -340h-80q3 127 -52.5 201.5t-183.5 74.5q-103 0 -163 -48t-60 -130q0 -65 35 -118.5t90.5 -91.5t123 -74t135.5 -77t123.5 -90t90.5 -123.5t35 -166.5q0 -128 -65 -218.5t-170.5 -133t-239.5 -42.5q-73 0 -144.5 11.5t-135.5 35.5t-105 66t-43 96zM219 1530l275 254
h149l272 -254l-69 -62l-268 146h-21l-268 -146z" />
    <glyph glyph-name="scircumflex" unicode="&#x15d;" horiz-adv-x="802" 
d="M61 119q0 22 9.5 64.5t18.5 74.5l9 31h68q5 -62 27.5 -108.5t56 -71.5t68.5 -36.5t71 -11.5q58 0 93.5 30t35.5 83q0 41 -24 74t-62 57t-84.5 47.5t-93 51t-84.5 61t-62 85.5t-24 116q0 135 97 212.5t251 77.5q54 0 124.5 -9.5t114.5 -18.5l44 -10l-47 -232h-70
q-4 56 -21.5 95t-44 57t-50.5 25t-50 7q-56 0 -88.5 -29.5t-32.5 -80.5q0 -42 24 -74.5t62 -55.5t84 -45t92 -48.5t84 -59.5t62 -85t24 -118q0 -146 -101.5 -222.5t-260.5 -76.5q-49 0 -102 8t-103.5 24.5t-82.5 45.5t-32 66zM113 1081l247 363h109l244 -363l-76 -51
l-223 225l-224 -225z" />
    <glyph glyph-name="Scedilla" unicode="&#x15e;" horiz-adv-x="1058" 
d="M379 -178q0 59 65 155q-68 5 -129.5 19t-115.5 38t-87 63t-34 87q0 51 61 228h80q0 -77 19 -137.5t48.5 -96.5t70 -59.5t79.5 -32t80 -8.5q92 0 157.5 46t65.5 134q0 64 -35 118t-90.5 93.5t-123.5 78t-135.5 81t-123 92t-90.5 122.5t-35 161q0 171 125.5 279t356.5 108
q35 0 71 -2t81.5 -7.5t68 -8.5t79.5 -11.5t66 -9.5l-67 -340h-80q3 127 -52.5 201.5t-183.5 74.5q-103 0 -163 -48t-60 -130q0 -65 35 -118.5t90.5 -91.5t123 -74t135.5 -77t123.5 -90t90.5 -123.5t35 -166.5q0 -125 -62 -214.5t-163.5 -133t-231.5 -46.5q-12 -40 -12 -61
q0 -16 19.5 -29.5t47 -25.5t55 -28t47 -45t19.5 -69q0 -86 -68.5 -144t-174.5 -58q-59 0 -110.5 19.5t-72.5 38.5l-22 19l35 80q8 -6 21.5 -15t52.5 -24.5t75 -15.5q37 0 65.5 15t28.5 42q0 22 -23.5 40t-52 29.5t-52 32t-23.5 46.5z" />
    <glyph glyph-name="scedilla" unicode="&#x15f;" horiz-adv-x="802" 
d="M254 -178q0 53 65 158q-104 9 -181 44t-77 95q0 22 9.5 64.5t18.5 74.5l9 31h68q5 -62 27.5 -108.5t56 -71.5t68.5 -36.5t71 -11.5q58 0 93.5 30t35.5 83q0 41 -24 74t-62 57t-84.5 47.5t-93 51t-84.5 61t-62 85.5t-24 116q0 135 97 212.5t251 77.5q54 0 124.5 -9.5
t114.5 -18.5l44 -10l-47 -232h-70q-4 56 -21.5 95t-44 57t-50.5 25t-50 7q-56 0 -88.5 -29.5t-32.5 -80.5q0 -42 24 -74.5t62 -55.5t84 -45t92 -48.5t84 -59.5t62 -85t24 -118q0 -142 -95.5 -218t-248.5 -81q-12 -40 -12 -61q0 -16 19.5 -29.5t47 -25.5t55 -28t47 -45
t19.5 -69q0 -86 -68.5 -144t-174.5 -58q-59 0 -110.5 19.5t-73.5 38.5l-21 19l35 80q8 -6 21.5 -15t52.5 -24.5t75 -15.5q38 0 66.5 15t28.5 42q0 22 -24 40t-52 29.5t-52 32t-24 46.5z" />
    <glyph glyph-name="Scaron" unicode="&#x160;" horiz-adv-x="1058" 
d="M78 184q0 51 61 228h80q0 -77 19 -137.5t48.5 -96.5t70 -59.5t79.5 -32t80 -8.5q92 0 157.5 46t65.5 134q0 64 -35 118t-90.5 93.5t-123.5 78t-135.5 81t-123 92t-90.5 122.5t-35 161q0 171 125.5 279t356.5 108q35 0 71 -2t81.5 -7.5t68 -8.5t79.5 -11.5t66 -9.5
l-67 -340h-80q3 127 -52.5 201.5t-183.5 74.5q-103 0 -163 -48t-60 -130q0 -65 35 -118.5t90.5 -91.5t123 -74t135.5 -77t123.5 -90t90.5 -123.5t35 -166.5q0 -128 -65 -218.5t-170.5 -133t-239.5 -42.5q-73 0 -144.5 11.5t-135.5 35.5t-105 66t-43 96zM219 1722l70 62
l268 -146h21l268 146l69 -62l-274 -254h-149z" />
    <glyph glyph-name="scaron" unicode="&#x161;" horiz-adv-x="802" 
d="M61 119q0 22 9.5 64.5t18.5 74.5l9 31h68q5 -62 27.5 -108.5t56 -71.5t68.5 -36.5t71 -11.5q58 0 93.5 30t35.5 83q0 41 -24 74t-62 57t-84.5 47.5t-93 51t-84.5 61t-62 85.5t-24 116q0 135 97 212.5t251 77.5q54 0 124.5 -9.5t114.5 -18.5l44 -10l-47 -232h-70
q-4 56 -21.5 95t-44 57t-50.5 25t-50 7q-56 0 -88.5 -29.5t-32.5 -80.5q0 -42 24 -74.5t62 -55.5t84 -45t92 -48.5t84 -59.5t62 -85t24 -118q0 -146 -101.5 -222.5t-260.5 -76.5q-49 0 -102 8t-103.5 24.5t-82.5 45.5t-32 66zM360 1071l-247 346l77 51l224 -208l223 208
l76 -51l-244 -346h-109z" />
    <glyph glyph-name="Tcommaaccent" unicode="&#x162;" horiz-adv-x="1335" 
d="M387 -6v76q65 8 101 43t36 90v1057h-176q-102 0 -158 -48.5t-116 -199.5h-80l63 366q54 -12 138 -12h1007q37 0 74 3t56 6l18 3l-64 -366h-80q0 77 -12.5 126t-41 76t-67.5 36.5t-100 9.5h-162l-24 -25v-1032q0 -27 -2.5 -55t-5.5 -42l-3 -14l205 -18l-8 -68l-289 -6h27
q-21 -63 -21 -86q0 -16 19.5 -29.5t47 -25.5t55.5 -28t47.5 -45t19.5 -69q0 -86 -69 -144t-175 -58q-59 0 -110.5 19.5t-72.5 38.5l-22 19l35 80q8 -6 22 -15t53 -24.5t75 -15.5q37 0 65.5 15t28.5 42q0 22 -23.5 40t-52.5 29.5t-52.5 32t-23.5 46.5q0 12 4 28t10.5 32.5
t14 32t16.5 31t15 25.5t12 19l6 10z" />
    <glyph glyph-name="tcommaaccent" unicode="&#x163;" horiz-adv-x="757" 
d="M281 -178q0 55 65 160q-188 29 -188 262v424l6 133h-131v88q94 18 143 63l78 232l176 -6l6 -7q-18 -44 -18 -200v-39h291l-15 -125h-250l-24 -25v-454q0 -97 27 -143t102 -46q40 0 83.5 11.5t67.5 23.5l23 12l33 -53q-5 -6 -15 -16t-43 -36t-69 -46.5t-91.5 -38.5
t-111.5 -21q-12 -40 -12 -61q0 -16 19.5 -29.5t47 -25.5t55 -28t47 -45t19.5 -69q0 -86 -69 -144t-175 -58q-59 0 -110 19.5t-72 38.5l-22 19l34 80q8 -6 22 -15t53 -24.5t75 -15.5q37 0 65.5 15t28.5 42q0 22 -23.5 40t-52 29.5t-52 32t-23.5 46.5z" />
    <glyph glyph-name="Tcaron" unicode="&#x164;" horiz-adv-x="1335" 
d="M387 -6v76q65 8 101 43t36 90v1057h-176q-102 0 -158 -48.5t-116 -199.5h-80l63 366q54 -12 138 -12h1007q37 0 74 3t56 6l18 3l-64 -366h-80q0 77 -12.5 126t-41 76t-67.5 36.5t-100 9.5h-162l-24 -25v-1032q0 -27 -2.5 -55t-5.5 -42l-3 -14l205 -18l-8 -68zM313 1722
l70 62l268 -146h21l268 146l70 -62l-275 -254h-149z" />
    <glyph glyph-name="tcaron" unicode="&#x165;" horiz-adv-x="757" 
d="M158 244v424l6 133h-131v88q94 18 143 63l78 232l176 -6l6 -7q-18 -44 -18 -200v-39h291l-15 -125h-250l-24 -25v-454q0 -97 27 -143t102 -46q40 0 83.5 11.5t67.5 23.5l23 12l33 -53q-6 -6 -16.5 -17t-45.5 -38t-72.5 -48t-96 -38t-117.5 -17q-116 0 -183 66t-67 203z
M553 1110l51 403l250 21v-68l-188 -356h-113z" />
    <glyph glyph-name="Tbar" unicode="&#x166;" horiz-adv-x="1339" 
d="M233 639v113h291v508h-176q-102 0 -158 -48.5t-116 -199.5h-80l63 366q54 -12 138 -12h1007q37 0 74 3t56 6l18 3l-64 -366h-80q0 77 -12.5 126t-41 76t-67.5 36.5t-100 9.5h-162l-24 -25v-483h293v-113h-293v-436q0 -27 -2.5 -55t-5.5 -42l-3 -14l205 -18l-8 -68
l-598 -12v76q65 8 101 43t36 90v436h-291z" />
    <glyph glyph-name="tbar" unicode="&#x167;" horiz-adv-x="757" 
d="M33 487v113h125v68l6 133h-131v88q94 18 143 63l78 232l176 -6l6 -7q-18 -44 -18 -200v-39h291l-15 -125h-250l-24 -25v-182h274v-113h-274v-159q0 -97 27 -143t102 -46q40 0 83.5 11.5t67.5 23.5l23 12l33 -53q-6 -6 -16.5 -17t-45.5 -38t-72.5 -48t-96 -38t-117.5 -17
q-116 0 -183 66t-67 203v243h-125z" />
    <glyph glyph-name="Utilde" unicode="&#x168;" horiz-adv-x="1509" 
d="M176 479v676q0 31 -0.5 44t-5 31t-12 25.5t-24 18t-40 17t-59.5 14.5v61h149q115 0 196 2t104 4l24 2l10 -8q-3 -3 -7.5 -9.5t-16 -30.5t-20.5 -51t-16 -72.5t-7 -94.5v-612q0 -101 32.5 -180t86.5 -126.5t120 -71.5t139 -24q97 0 180 42.5t138 132.5t55 212v664
q0 28 -1 42t-5 33.5t-13.5 29t-26.5 21t-44 17.5t-65 10v68h423l11 -39q-6 -2 -16.5 -6.5t-36.5 -22t-46 -40t-36.5 -62.5t-16.5 -88v-621q0 -165 -76.5 -282.5t-202.5 -173.5t-288 -56q-86 0 -167 16t-158 54.5t-134.5 95t-92 143.5t-34.5 195zM496 1497l-88 19q0 5 1 13.5
t6.5 33.5t14 48t26 51t40 48t57.5 33.5t78 13.5q56 0 116.5 -26.5t114.5 -53t96 -26.5q41 0 68.5 26.5t35.5 52.5l7 27l90 -10q0 -5 -1 -14t-6 -35t-13.5 -49.5t-26 -52.5t-41.5 -50t-62 -35t-85 -14t-95.5 16.5t-81 37t-71 37t-70.5 16.5q-39 0 -66.5 -27t-35.5 -53z" />
    <glyph glyph-name="utilde" unicode="&#x169;" horiz-adv-x="1175" 
d="M150 252v426q0 39 -1.5 60t-7.5 41.5t-18.5 29t-34.5 8.5h-61v68q156 27 255 47.5t120 27.5l22 7l6 -6q-18 -58 -18 -216v-415q0 -103 30 -144t86 -41q29 0 60.5 10t56 23.5t45.5 27.5t32 24l11 10v438q0 32 -0.5 49t-4 37.5t-9.5 30t-18 16t-29 6.5h-51v70
q149 26 246 46t119 27l22 7l6 -6q-19 -58 -19 -216v-540q0 -29 3.5 -49.5t12 -33t16 -20t24 -10.5t27 -3.5t32.5 -0.5h47l-6 -65q-122 -10 -225.5 -20.5t-145.5 -15.5l-43 -5l-4 4q15 61 15 112v86q-6 -8 -16 -22.5t-45 -50.5t-72 -63.5t-93.5 -50t-113.5 -22.5
q-117 0 -187.5 68t-70.5 209zM246 1141q-1 6 -1.5 16.5t0 40.5t4.5 57t17 60.5t33 57.5t55.5 40.5t81.5 16.5q40 0 74.5 -15t59 -37t46 -44t45.5 -37t48 -15q30 0 51 13.5t29.5 33t13 39.5t4.5 34v13h94q1 -6 1.5 -16.5t-0.5 -41t-6 -58t-18.5 -61.5t-34 -58.5t-57 -41
t-84.5 -16.5q-39 0 -72.5 15t-56.5 37t-44 44t-44 37t-47 15q-31 0 -52 -13.5t-29.5 -32t-13 -37.5t-3.5 -33v-13h-94z" />
    <glyph glyph-name="Umacron" unicode="&#x16a;" horiz-adv-x="1509" 
d="M176 479v676q0 31 -0.5 44t-5 31t-12 25.5t-24 18t-40 17t-59.5 14.5v61h149q115 0 196 2t104 4l24 2l10 -8q-3 -3 -7.5 -9.5t-16 -30.5t-20.5 -51t-16 -72.5t-7 -94.5v-612q0 -101 32.5 -180t86.5 -126.5t120 -71.5t139 -24q97 0 180 42.5t138 132.5t55 212v664
q0 28 -1 42t-5 33.5t-13.5 29t-26.5 21t-44 17.5t-65 10v68h423l11 -39q-6 -2 -16.5 -6.5t-36.5 -22t-46 -40t-36.5 -62.5t-16.5 -88v-621q0 -165 -76.5 -282.5t-202.5 -173.5t-288 -56q-86 0 -167 16t-158 54.5t-134.5 95t-92 143.5t-34.5 195zM487 1550v152h590v-152h-590
z" />
    <glyph glyph-name="umacron" unicode="&#x16b;" horiz-adv-x="1175" 
d="M150 252v426q0 39 -1.5 60t-7.5 41.5t-18.5 29t-34.5 8.5h-61v68q156 27 255 47.5t120 27.5l22 7l6 -6q-18 -58 -18 -216v-415q0 -103 30 -144t86 -41q29 0 60.5 10t56 23.5t45.5 27.5t32 24l11 10v438q0 32 -0.5 49t-4 37.5t-9.5 30t-18 16t-29 6.5h-51v70
q149 26 246 46t119 27l22 7l6 -6q-19 -58 -19 -216v-540q0 -29 3.5 -49.5t12 -33t16 -20t24 -10.5t27 -3.5t32.5 -0.5h47l-6 -65q-122 -10 -225.5 -20.5t-145.5 -15.5l-43 -5l-4 4q15 61 15 112v86q-6 -8 -16 -22.5t-45 -50.5t-72 -63.5t-93.5 -50t-113.5 -22.5
q-117 0 -187.5 68t-70.5 209zM307 1186v151h529v-151h-529z" />
    <glyph glyph-name="Ubreve" unicode="&#x16c;" horiz-adv-x="1509" 
d="M176 479v676q0 31 -0.5 44t-5 31t-12 25.5t-24 18t-40 17t-59.5 14.5v61h149q115 0 196 2t104 4l24 2l10 -8q-3 -3 -7.5 -9.5t-16 -30.5t-20.5 -51t-16 -72.5t-7 -94.5v-612q0 -101 32.5 -180t86.5 -126.5t120 -71.5t139 -24q97 0 180 42.5t138 132.5t55 212v664
q0 28 -1 42t-5 33.5t-13.5 29t-26.5 21t-44 17.5t-65 10v68h423l11 -39q-6 -2 -16.5 -6.5t-36.5 -22t-46 -40t-36.5 -62.5t-16.5 -88v-621q0 -165 -76.5 -282.5t-202.5 -173.5t-288 -56q-86 0 -167 16t-158 54.5t-134.5 95t-92 143.5t-34.5 195zM782 1464
q-134 0 -217.5 70.5t-83.5 191.5q0 30 6 64h95q0 -156 200 -156q199 0 199 156h96q4 -20 4 -57q0 -118 -82 -193.5t-217 -75.5z" />
    <glyph glyph-name="ubreve" unicode="&#x16d;" horiz-adv-x="1175" 
d="M150 252v426q0 39 -1.5 60t-7.5 41.5t-18.5 29t-34.5 8.5h-61v68q156 27 255 47.5t120 27.5l22 7l6 -6q-18 -58 -18 -216v-415q0 -103 30 -144t86 -41q29 0 60.5 10t56 23.5t45.5 27.5t32 24l11 10v438q0 32 -0.5 49t-4 37.5t-9.5 30t-18 16t-29 6.5h-51v70
q149 26 246 46t119 27l22 7l6 -6q-19 -58 -19 -216v-540q0 -29 3.5 -49.5t12 -33t16 -20t24 -10.5t27 -3.5t32.5 -0.5h47l-6 -65q-122 -10 -225.5 -20.5t-145.5 -15.5l-43 -5l-4 4q15 61 15 112v86q-6 -8 -16 -22.5t-45 -50.5t-72 -63.5t-93.5 -50t-113.5 -22.5
q-117 0 -187.5 68t-70.5 209zM571 1110q-123 0 -203.5 71t-80.5 183q0 44 10 80h92q-2 -17 -2 -25q0 -40 15.5 -69.5t43 -45t58.5 -23t67 -7.5q81 0 133 33.5t52 111.5l-2 25h92q10 -48 10 -80q0 -112 -81 -183t-204 -71z" />
    <glyph glyph-name="Uring" unicode="&#x16e;" horiz-adv-x="1509" 
d="M176 479v676q0 31 -0.5 44t-5 31t-12 25.5t-24 18t-40 17t-59.5 14.5v61h149q115 0 196 2t104 4l24 2l10 -8q-3 -3 -7.5 -9.5t-16 -30.5t-20.5 -51t-16 -72.5t-7 -94.5v-612q0 -101 32.5 -180t86.5 -126.5t120 -71.5t139 -24q97 0 180 42.5t138 132.5t55 212v664
q0 28 -1 42t-5 33.5t-13.5 29t-26.5 21t-44 17.5t-65 10v68h423l11 -39q-6 -2 -16.5 -6.5t-36.5 -22t-46 -40t-36.5 -62.5t-16.5 -88v-621q0 -165 -76.5 -282.5t-202.5 -173.5t-288 -56q-86 0 -167 16t-158 54.5t-134.5 95t-92 143.5t-34.5 195zM782 1403q-100 0 -153.5 57
t-53.5 129q0 71 53 125.5t154 54.5t154 -54.5t53 -125.5q0 -72 -53.5 -129t-153.5 -57zM782 1491q43 0 69 28t26 68q0 39 -25 66.5t-70 27.5q-46 0 -69 -27t-23 -67q0 -41 24 -68.5t68 -27.5z" />
    <glyph glyph-name="uring" unicode="&#x16f;" horiz-adv-x="1175" 
d="M150 252v426q0 39 -1.5 60t-7.5 41.5t-18.5 29t-34.5 8.5h-61v68q156 27 255 47.5t120 27.5l22 7l6 -6q-18 -58 -18 -216v-415q0 -103 30 -144t86 -41q29 0 60.5 10t56 23.5t45.5 27.5t32 24l11 10v438q0 32 -0.5 49t-4 37.5t-9.5 30t-18 16t-29 6.5h-51v70
q149 26 246 46t119 27l22 7l6 -6q-19 -58 -19 -216v-540q0 -29 3.5 -49.5t12 -33t16 -20t24 -10.5t27 -3.5t32.5 -0.5h47l-6 -65q-122 -10 -225.5 -20.5t-145.5 -15.5l-43 -5l-4 4q15 61 15 112v86q-6 -8 -16 -22.5t-45 -50.5t-72 -63.5t-93.5 -50t-113.5 -22.5
q-117 0 -187.5 68t-70.5 209zM571 1096q-100 0 -153 57t-53 129q0 71 52.5 125.5t153.5 54.5t154 -54.5t53 -125.5q0 -72 -53.5 -129t-153.5 -57zM571 1184q43 0 69 28t26 68q0 39 -25 66.5t-70 27.5q-46 0 -69 -27t-23 -67q0 -41 24 -68.5t68 -27.5z" />
    <glyph glyph-name="Uhungarumlaut" unicode="&#x170;" horiz-adv-x="1509" 
d="M176 479v676q0 31 -0.5 44t-5 31t-12 25.5t-24 18t-40 17t-59.5 14.5v61h149q115 0 196 2t104 4l24 2l10 -8q-3 -3 -7.5 -9.5t-16 -30.5t-20.5 -51t-16 -72.5t-7 -94.5v-612q0 -101 32.5 -180t86.5 -126.5t120 -71.5t139 -24q97 0 180 42.5t138 132.5t55 212v664
q0 28 -1 42t-5 33.5t-13.5 29t-26.5 21t-44 17.5t-65 10v68h423l11 -39q-6 -2 -16.5 -6.5t-36.5 -22t-46 -40t-36.5 -62.5t-16.5 -88v-621q0 -165 -76.5 -282.5t-202.5 -173.5t-288 -56q-86 0 -167 16t-158 54.5t-134.5 95t-92 143.5t-34.5 195zM598 1470l-78 50l113 252
l250 18v-55zM961 1470l-78 50l133 252l250 18v-55z" />
    <glyph glyph-name="uhungarumlaut" unicode="&#x171;" horiz-adv-x="1175" 
d="M150 252v426q0 39 -1.5 60t-7.5 41.5t-18.5 29t-34.5 8.5h-61v68q156 27 255 47.5t120 27.5l22 7l6 -6q-18 -58 -18 -216v-415q0 -103 30 -144t86 -41q29 0 60.5 10t56 23.5t45.5 27.5t32 24l11 10v438q0 32 -0.5 49t-4 37.5t-9.5 30t-18 16t-29 6.5h-51v70
q149 26 246 46t119 27l22 7l6 -6q-19 -58 -19 -216v-540q0 -29 3.5 -49.5t12 -33t16 -20t24 -10.5t27 -3.5t32.5 -0.5h47l-6 -65q-122 -10 -225.5 -20.5t-145.5 -15.5l-43 -5l-4 4q15 61 15 112v86q-6 -8 -16 -22.5t-45 -50.5t-72 -63.5t-93.5 -50t-113.5 -22.5
q-117 0 -187.5 68t-70.5 209zM403 1038l-79 43l147 351l213 22v-55zM729 1038l-82 43l150 351l213 22v-55z" />
    <glyph glyph-name="Uogonek" unicode="&#x172;" horiz-adv-x="1509" 
d="M176 479v676q0 31 -0.5 44t-5 31t-12 25.5t-24 18t-40 17t-59.5 14.5v61h149q115 0 196 2t104 4l24 2l10 -8q-3 -3 -7.5 -9.5t-16 -30.5t-20.5 -51t-16 -72.5t-7 -94.5v-612q0 -101 32.5 -180t86.5 -126.5t120 -71.5t139 -24q97 0 180 42.5t138 132.5t55 212v664
q0 28 -1 42t-5 33.5t-13.5 29t-26.5 21t-44 17.5t-65 10v68h423l11 -39q-6 -2 -16.5 -6.5t-36.5 -22t-46 -40t-36.5 -62.5t-16.5 -88v-621q0 -156 -67 -268t-187 -174q-35 -26 -79 -69.5t-88 -113t-44 -124.5t37.5 -89t85.5 -34l45 4l19 -70q-87 -34 -183 -34
q-92 0 -153.5 46.5t-61.5 116.5q0 45 32 96.5t62.5 82.5t107.5 101q20 19 30 28q-75 -11 -123 -11q-86 0 -167 16t-158 54.5t-134.5 95t-92 143.5t-34.5 195z" />
    <glyph glyph-name="uogonek" unicode="&#x173;" horiz-adv-x="1175" 
d="M150 252v426q0 39 -1.5 60t-7.5 41.5t-18.5 29t-34.5 8.5h-61v68q156 27 255 47.5t120 27.5l22 7l6 -6q-18 -58 -18 -216v-415q0 -103 30 -144t86 -41q29 0 60.5 10t56 23.5t45.5 27.5t32 24l11 10v438q0 32 -0.5 49t-4 37.5t-9.5 30t-18 16t-29 6.5h-51v70
q149 26 246 46t119 27l22 7l6 -6q-19 -58 -19 -216v-540q0 -29 3.5 -49.5t12 -33t16 -20t24 -10.5t27 -3.5t32.5 -0.5h47l-6 -65l-258 -23q-62 -22 -123 -102.5t-61 -159.5q0 -55 37 -89t85 -34l46 4l18 -70q-83 -34 -182 -34q-92 0 -153.5 46.5t-61.5 116.5q0 16 3.5 32
t8 29.5t15.5 31t18.5 29t25 31t26.5 29.5t32 31.5t32.5 30.5t36.5 34t37 34q15 75 15 108v86q-6 -8 -16 -22.5t-45 -50.5t-72 -63.5t-93.5 -50t-113.5 -22.5q-117 0 -187.5 68t-70.5 209z" />
    <glyph glyph-name="Wcircumflex" unicode="&#x174;" horiz-adv-x="1953" 
d="M1317 6l-342 905l-295 -929l-119 24l-471 1186q-16 40 -44 68t-48 36l-21 9v61h115l293 8l8 -8q-20 -39 -24 -91t12 -97l262 -695q22 -59 37 -127l229 727l-39 109q-15 40 -43 68t-49 36l-20 9v61h114l293 8l9 -8q-19 -38 -23 -90.5t10 -97.5l240 -699q21 -68 33 -127
l247 774q26 68 6.5 112.5t-100.5 66.5v61h336l10 -39q-3 -2 -9 -5.5t-23.5 -19.5t-33.5 -37t-36 -60t-35 -87l-358 -1136zM651 1530l275 254h149l273 -254l-70 -62l-268 146h-21l-268 -146z" />
    <glyph glyph-name="wcircumflex" unicode="&#x175;" horiz-adv-x="1511" 
d="M399 2l-297 750q-18 46 -47.5 75.5t-50.5 36.5l-20 6v62h96q81 0 154 2t106 4l33 2l8 -8q-2 -4 -4.5 -10t-8 -27t-7.5 -42t1.5 -51t14.5 -59l133 -360q21 -65 37 -127l143 324q26 57 0 127l-18 45q-19 45 -46.5 74.5t-45.5 36.5l-17 7v62h86q81 0 154 2t106 4l33 2l8 -8
q-2 -4 -4.5 -10t-8 -27t-7.5 -42t1.5 -51t14.5 -59l133 -356q21 -65 37 -127l205 463q49 109 -109 147v62h297l11 -33q-23 -12 -66 -108l-362 -816l-123 27l-205 512l-240 -539zM487 1081l248 363h109l243 -363l-75 -51l-224 225l-223 -225z" />
    <glyph glyph-name="Ycircumflex" unicode="&#x176;" horiz-adv-x="1212" 
d="M338 -6v76q65 8 101 43t36 90v401l-377 610q-22 36 -49 58.5t-43 27.5l-16 5v61h108q81 0 153.5 2t104.5 4l33 2l8 -8q-4 -9 -9 -24t-5 -54t18 -69l226 -381q35 -64 57 -115l277 455q15 28 16.5 53t-23.5 45.5t-75 28.5v61h348l10 -39q-7 -3 -19.5 -9t-45 -36t-58.5 -72
l-364 -581v-426q0 -27 -3 -55t-5 -42l-3 -14l174 -18l-8 -68zM279 1530l274 254h149l273 -254l-70 -62l-268 146h-21l-268 -146z" />
    <glyph glyph-name="ycircumflex" unicode="&#x177;" horiz-adv-x="966" 
d="M162 -276q95 0 156.5 45.5t103.5 142.5l18 45q-20 62 -63 162l-277 633q-20 45 -49.5 74.5t-48.5 36.5l-20 7v62h96q81 0 155.5 2t108.5 4l35 2l8 -8q-19 -38 -20 -91.5t16 -97.5l149 -364q19 -49 39 -121l199 465q21 55 -13.5 92.5t-99.5 54.5v62h301l11 -33
q-31 -28 -66 -108l-309 -723q-7 -15 -24.5 -56.5t-29 -67.5t-32.5 -70.5t-38 -75t-41.5 -71t-47 -68t-52 -57t-57.5 -47t-62 -29t-69 -11.5q-53 0 -82.5 29.5t-29.5 74.5q0 43 32.5 74t102.5 31zM229 1081l248 363h109l243 -363l-75 -51l-224 225l-223 -225z" />
    <glyph glyph-name="Ydieresis" unicode="&#x178;" horiz-adv-x="1212" 
d="M338 -6v76q65 8 101 43t36 90v401l-377 610q-22 36 -49 58.5t-43 27.5l-16 5v61h108q81 0 153.5 2t104.5 4l33 2l8 -8q-4 -9 -9 -24t-5 -54t18 -69l226 -381q35 -64 57 -115l277 455q15 28 16.5 53t-23.5 45.5t-75 28.5v61h348l10 -39q-7 -3 -19.5 -9t-45 -36t-58.5 -72
l-364 -581v-426q0 -27 -3 -55t-5 -42l-3 -14l174 -18l-8 -68zM743 1626q0 61 40 99t102 38t101.5 -38t39.5 -99q0 -60 -39.5 -97.5t-101.5 -37.5t-102 37.5t-40 97.5zM229 1626q0 61 40 99t102 38t101.5 -38t39.5 -99q0 -60 -39.5 -97.5t-101.5 -37.5t-102 37.5t-40 97.5z
" />
    <glyph glyph-name="Zacute" unicode="&#x179;" horiz-adv-x="1226" 
d="M51 -8l-12 74q43 32 113 145l583 948q25 41 70 101h-322q-59 0 -100 -9t-80.5 -35.5t-71 -76t-61.5 -127.5h-80l53 354h854q36 0 68.5 2t47.5 4l15 2l9 -74q-44 -45 -103 -145l-577 -944q-18 -33 -76 -105h391q117 0 181.5 57t142.5 226h80l-86 -389h-908q-36 0 -68.5 -2
t-47.5 -4zM440 1552l394 232h10l88 -146v-59l-453 -111z" />
    <glyph glyph-name="zacute" unicode="&#x17a;" horiz-adv-x="923" 
d="M59 -8l-16 63q31 27 74 99l362 587q19 33 74 101h-205q-44 0 -80 -18.5t-58.5 -48.5t-35 -55t-20.5 -50h-88l36 262h613q36 0 68.5 2t47.5 4l15 2l16 -63q-26 -27 -69 -99l-355 -583q-18 -31 -76 -103h179q56 0 101 20t70 48t42 56.5t22 48.5l6 20h90l-55 -285h-618
q-39 0 -74 -2t-51 -4zM481 1038l-82 43l156 351l248 22v-55z" />
    <glyph glyph-name="Zdotaccent" unicode="&#x17b;" horiz-adv-x="1226" 
d="M51 -8l-12 74q43 32 113 145l583 948q25 41 70 101h-322q-59 0 -100 -9t-80.5 -35.5t-71 -76t-61.5 -127.5h-80l53 354h854q36 0 68.5 2t47.5 4l15 2l9 -74q-44 -45 -103 -145l-577 -944q-18 -33 -76 -105h391q117 0 181.5 57t142.5 226h80l-86 -389h-908q-36 0 -68.5 -2
t-47.5 -4zM657 1483q-66 0 -108.5 40t-42.5 103q0 64 42.5 105t108.5 41t109 -41t43 -105q0 -63 -43 -103t-109 -40z" />
    <glyph glyph-name="zdotaccent" unicode="&#x17c;" horiz-adv-x="923" 
d="M59 -8l-16 63q31 27 74 99l362 587q19 33 74 101h-205q-44 0 -80 -18.5t-58.5 -48.5t-35 -55t-20.5 -50h-88l36 262h613q36 0 68.5 2t47.5 4l15 2l16 -63q-26 -27 -69 -99l-355 -583q-18 -31 -76 -103h179q56 0 101 20t70 48t42 56.5t22 48.5l6 20h90l-55 -285h-618
q-39 0 -74 -2t-51 -4zM506 1135q-66 0 -109 40t-43 103q0 64 43 104.5t109 40.5t108.5 -40.5t42.5 -104.5q0 -63 -42.5 -103t-108.5 -40z" />
    <glyph glyph-name="Zcaron" unicode="&#x17d;" horiz-adv-x="1226" 
d="M51 -8l-12 74q43 32 113 145l583 948q25 41 70 101h-322q-59 0 -100 -9t-80.5 -35.5t-71 -76t-61.5 -127.5h-80l53 354h854q36 0 68.5 2t47.5 4l15 2l9 -74q-44 -45 -103 -145l-577 -944q-18 -33 -76 -105h391q117 0 181.5 57t142.5 226h80l-86 -389h-908q-36 0 -68.5 -2
t-47.5 -4zM309 1722l70 62l268 -146h21l268 146l70 -62l-275 -254h-149z" />
    <glyph glyph-name="zcaron" unicode="&#x17e;" horiz-adv-x="923" 
d="M59 -8l-16 63q31 27 74 99l362 587q19 33 74 101h-205q-44 0 -80 -18.5t-58.5 -48.5t-35 -55t-20.5 -50h-88l36 262h613q36 0 68.5 2t47.5 4l15 2l16 -63q-26 -27 -69 -99l-355 -583q-18 -31 -76 -103h179q56 0 101 20t70 48t42 56.5t22 48.5l6 20h90l-55 -285h-618
q-39 0 -74 -2t-51 -4zM453 1071l-248 346l78 51l223 -208l223 208l76 -51l-244 -346h-108z" />
    <glyph glyph-name="longs" unicode="&#x17f;" horiz-adv-x="636" 
d="M66 -6v69q116 14 116 134v604h-125v88l125 45v63q0 146 63 264t169 183t231 65q63 0 122 -14t102.5 -48t43.5 -81t-31.5 -78t-76.5 -31q-33 0 -69.5 23t-62.5 50t-56 50t-52 23q-66 0 -93.5 -84t-27.5 -277v-845q0 -27 -2.5 -55t-5.5 -42l-2 -14l215 -18l-8 -62z" />
    <glyph glyph-name="florin" unicode="&#x192;" horiz-adv-x="882" 
d="M25 610v92h280q55 368 181 528.5t333 160.5q91 0 148 -24.5t57 -78.5q0 -40 -30.5 -64t-73.5 -24q-50 0 -115.5 37t-102.5 37q-26 0 -40 -13t-30.5 -73.5t-31 -169.5t-37.5 -316h316l-33 -92h-293l-4 -53q-24 -224 -60 -389t-83 -275.5t-109.5 -177.5t-133.5 -95
t-161 -28q-91 0 -148 24.5t-57 78.5q0 40 31 64t74 24q50 0 115 -37t102 -37q29 0 43 16t34 108t38.5 248t52.5 476l6 53h-268z" />
    <glyph glyph-name="Aringacute" unicode="&#x1fa;" horiz-adv-x="1280" 
d="M-35 0v70q103 10 137 96l457 1143q-125 36 -125 161q0 66 52.5 114t154.5 48t154.5 -48t52.5 -114q0 -56 -30 -98.5t-89 -60.5l422 -1094q29 -75 58.5 -109.5t84.5 -41.5l-8 -66h-84l-399 -8v80q48 2 73 21t9 61l-97 264h-436l-35 -25l-114 -301l176 -22l-12 -70h-402z
M621 891q-27 72 -52 158l-198 -519h379zM403 1726l394 232h10l88 -146v-59l-453 -111zM641 1380q43 0 68.5 25t25.5 63q0 32 -25 57t-69 25q-46 0 -69 -24.5t-23 -57.5q0 -38 24 -63t68 -25z" />
    <glyph glyph-name="aringacute" unicode="&#x1fb;" horiz-adv-x="989" 
d="M37 205q0 74 39.5 134.5t107 100t142.5 64.5t159 37l72 10q0 166 -10 215q-20 98 -96 98q-33 0 -65 -22.5t-55 -55t-41 -64.5t-27 -54l-9 -23h-94l-45 180q9 7 27 19t76 39.5t120 44.5q-70 58 -70 145q0 71 53 125.5t154 54.5t154 -54.5t53 -125.5q0 -70 -47 -123
q104 -17 143 -82.5t39 -203.5v-461q0 -49 10.5 -73t38.5 -24q19 0 41.5 9t35.5 17l13 9l33 -55q-4 -5 -11.5 -12t-33.5 -26.5t-53.5 -34t-70 -26.5t-85.5 -12q-79 0 -125.5 36.5t-46.5 101.5v32q-4 -7 -12.5 -18.5t-36.5 -40.5t-59 -51.5t-80 -41t-99 -18.5
q-98 0 -168.5 60.5t-70.5 169.5zM268 1272l-39 84l394 231h10l88 -145v-60zM401 137q77 0 154 66v256l-55 -10q-87 -15 -142 -63t-55 -130q0 -52 24.5 -85.5t73.5 -33.5zM475 975q43 0 68.5 28t25.5 68q0 39 -24.5 66.5t-69.5 27.5q-46 0 -69 -27t-23 -67q0 -41 24 -68.5
t68 -27.5z" />
    <glyph glyph-name="AEacute" unicode="&#x1fc;" horiz-adv-x="1820" 
d="M-51 0v70q54 5 83.5 30t53.5 66l557 1001q28 49 -9 82.5t-142 55.5v61h1071q37 0 76.5 2t60.5 4l20 2l-63 -362h-80q4 79 -6.5 128t-39.5 75.5t-69 35.5t-106 9h-228l-24 -25v-506h342l16 139l86 13v-392h-106v134h-314l-24 -25v-377q0 -27 -2.5 -56t-5.5 -44l-2 -15h284
q47 0 76.5 2.5t57.5 13t45 24t39 45t39.5 64.5t45.5 93h80l-75 -348h-644l-350 -6v76q65 8 101 40t36 87v426h-335l-35 -23l-277 -508l176 -22l-12 -70h-397zM758 1151l-230 -422h301v510q-39 -31 -71 -88zM961 1552l393 232h10l88 -146v-59l-453 -111z" />
    <glyph glyph-name="aeacute" unicode="&#x1fd;" horiz-adv-x="1449" 
d="M33 207q0 76 43 139t119 105.5t169.5 70t204.5 41.5v49q0 55 -3.5 93.5t-13 78t-31 60t-54.5 20.5q-35 0 -68.5 -22.5t-56.5 -55t-41 -64.5t-27 -54l-8 -23h-94l-45 180q7 5 20 14t56.5 31.5t89.5 40t116.5 31.5t141.5 14q93 0 141 -25t76 -73q120 98 262 98
q147 0 251 -93t110 -271q-89 -29 -136 -35l-446 -59q4 -66 23 -124t55.5 -107.5t97 -78t139.5 -28.5q43 0 84 8.5t69 20.5t50 24t33 21l10 8l25 -60q-5 -8 -14.5 -22t-44 -50t-75.5 -63t-109 -49.5t-144 -22.5q-134 0 -228.5 63.5t-144.5 170.5q-16 -41 -39.5 -78t-62 -74.5
t-97 -59.5t-129.5 -22q-117 0 -195.5 60t-78.5 172zM395 137q70 0 121 69.5t51 155.5v107q-268 -39 -268 -211q0 -52 25.5 -86.5t70.5 -34.5zM985 858q-67 0 -114.5 -75t-59.5 -187l319 39q0 9 -1 24t-8.5 53.5t-21.5 68t-43.5 53.5t-70.5 24zM750 1038l-82 43l155 351
l248 22v-55z" />
    <glyph glyph-name="Oslashacute" unicode="&#x1fe;" horiz-adv-x="1646" 
d="M78 662q0 109 31 214t95 198.5t155 164t219.5 111.5t279.5 41q214 0 371 -80l88 116h131l-129 -170q127 -92 191.5 -231t64.5 -295q0 -111 -32 -219t-97.5 -205t-157 -171t-219.5 -117.5t-276 -43.5q-215 0 -381 91l-97 -127h-133l142 186q-120 96 -183 238t-63 299z
M1270 676q0 219 -96 391l-637 -836q127 -153 307 -153q102 0 185 50.5t134.5 135.5t79 190.5t27.5 221.5zM379 721q0 -222 96 -397l635 831q-120 133 -297 133q-105 0 -189.5 -47.5t-137 -127.5t-80 -180.5t-27.5 -211.5zM600 1552l393 232h11l88 -146v-59l-453 -111z" />
    <glyph glyph-name="oslashacute" unicode="&#x1ff;" horiz-adv-x="1136" 
d="M111 -61l110 149q-153 131 -153 358q0 75 18 146t58.5 137.5t98.5 116.5t145.5 80t193.5 30q139 0 247 -51l68 88h123l-105 -141q77 -60 118.5 -150t41.5 -200q0 -79 -20.5 -154t-63 -143t-103 -119t-146.5 -81t-187 -30q-138 0 -250 56l-69 -92h-125zM791 463
q-3 98 -27 186l-346 -467q61 -116 170 -116q49 0 87 28t59.5 69.5t35 97.5t18 104.5t3.5 97.5zM350 500q0 -104 25 -207l346 465q-61 108 -162 108q-53 0 -94 -30t-65.5 -82t-37 -116.5t-12.5 -137.5zM547 1038l-82 43l156 351l247 22v-55z" />
    <glyph glyph-name="Scommaaccent" unicode="&#x218;" horiz-adv-x="1058" 
d="M78 184q0 51 61 228h80q0 -77 19 -137.5t48.5 -96.5t70 -59.5t79.5 -32t80 -8.5q92 0 157.5 46t65.5 134q0 64 -35 118t-90.5 93.5t-123.5 78t-135.5 81t-123 92t-90.5 122.5t-35 161q0 171 125.5 279t356.5 108q35 0 71 -2t81.5 -7.5t68 -8.5t79.5 -11.5t66 -9.5
l-67 -340h-80q3 127 -52.5 201.5t-183.5 74.5q-103 0 -163 -48t-60 -130q0 -65 35 -118.5t90.5 -91.5t123 -74t135.5 -77t123.5 -90t90.5 -123.5t35 -166.5q0 -128 -65 -218.5t-170.5 -133t-239.5 -42.5q-73 0 -144.5 11.5t-135.5 35.5t-105 66t-43 96zM369 -133l20 45h238
q43 -59 43 -129q0 -84 -80.5 -163.5t-200.5 -129.5l-49 68q63 35 92 66.5t29 68.5q0 67 -92 174z" />
    <glyph glyph-name="scommaaccent" unicode="&#x219;" horiz-adv-x="802" 
d="M61 119q0 22 9.5 64.5t18.5 74.5l9 31h68q5 -62 27.5 -108.5t56 -71.5t68.5 -36.5t71 -11.5q58 0 93.5 30t35.5 83q0 41 -24 74t-62 57t-84.5 47.5t-93 51t-84.5 61t-62 85.5t-24 116q0 135 97 212.5t251 77.5q54 0 124.5 -9.5t114.5 -18.5l44 -10l-47 -232h-70
q-4 56 -21.5 95t-44 57t-50.5 25t-50 7q-56 0 -88.5 -29.5t-32.5 -80.5q0 -42 24 -74.5t62 -55.5t84 -45t92 -48.5t84 -59.5t62 -85t24 -118q0 -146 -101.5 -222.5t-260.5 -76.5q-49 0 -102 8t-103.5 24.5t-82.5 45.5t-32 66zM244 -133l20 45h238q43 -59 43 -129
q0 -84 -80.5 -163.5t-200.5 -129.5l-49 68q63 35 92 66.5t29 68.5q0 67 -92 174z" />
    <glyph glyph-name="uni021A" unicode="&#x21a;" horiz-adv-x="1335" 
d="M387 -6v76q65 8 101 43t36 90v1057h-176q-102 0 -158 -48.5t-116 -199.5h-80l63 366q54 -12 138 -12h1007q37 0 74 3t56 6l18 3l-64 -366h-80q0 77 -12.5 126t-41 76t-67.5 36.5t-100 9.5h-162l-24 -25v-1032q0 -27 -2.5 -55t-5.5 -42l-3 -14l205 -18l-8 -68zM530 -133
l21 45h237q43 -59 43 -129q0 -84 -80.5 -163.5t-199.5 -129.5l-49 68q63 35 92 66.5t29 68.5q0 66 -93 174z" />
    <glyph glyph-name="uni021B" unicode="&#x21b;" horiz-adv-x="757" 
d="M158 244v424l6 133h-131v88q94 18 143 63l78 232l176 -6l6 -7q-18 -44 -18 -200v-39h291l-15 -125h-250l-24 -25v-454q0 -97 27 -143t102 -46q40 0 83.5 11.5t67.5 23.5l23 12l33 -53q-6 -6 -16.5 -17t-45.5 -38t-72.5 -48t-96 -38t-117.5 -17q-116 0 -183 66t-67 203z
M270 -133l21 45h237q43 -59 43 -129q0 -84 -80.5 -163.5t-199.5 -129.5l-49 68q63 34 91.5 65.5t28.5 69.5q0 67 -92 174z" />
    <glyph glyph-name="circumflex" unicode="&#x2c6;" horiz-adv-x="1024" 
d="M211 1081l248 363h108l244 -363l-76 -51l-223 225l-223 -225z" />
    <glyph glyph-name="caron" unicode="&#x2c7;" horiz-adv-x="1024" 
d="M459 1071l-248 346l78 51l223 -208l223 208l76 -51l-244 -346h-108z" />
    <glyph glyph-name="breve" unicode="&#x2d8;" horiz-adv-x="1024" 
d="M512 1110q-123 0 -204 71t-81 183q0 40 11 80h92q-2 -17 -2 -25q0 -40 15.5 -69.5t43 -45t58.5 -23t67 -7.5q81 0 132.5 33.5t51.5 111.5l-2 25h92q11 -53 11 -80q0 -112 -81 -183t-204 -71z" />
    <glyph glyph-name="dotaccent" unicode="&#x2d9;" horiz-adv-x="1024" 
d="M512 1135q-66 0 -109 40t-43 103q0 64 43 104.5t109 40.5t109 -40.5t43 -104.5q0 -63 -43 -103t-109 -40z" />
    <glyph glyph-name="ring" unicode="&#x2da;" horiz-adv-x="1024" 
d="M512 1096q-100 0 -153.5 57t-53.5 129q0 71 53 125.5t154 54.5t154 -54.5t53 -125.5q0 -72 -53.5 -129t-153.5 -57zM512 1184q43 0 68.5 28t25.5 68q0 39 -24.5 66.5t-69.5 27.5q-46 0 -69 -27t-23 -67q0 -41 24 -68.5t68 -27.5z" />
    <glyph glyph-name="ogonek" unicode="&#x2db;" horiz-adv-x="1024" 
d="M317 -322q0 34 13.5 67t46 71t58.5 63.5t81 75.5t84 78l129 22l10 -10q-35 -26 -79 -69.5t-88 -113t-44 -124.5t37.5 -89t85.5 -34l45 4l19 -70q-93 -34 -183 -34q-92 0 -153.5 46.5t-61.5 116.5z" />
    <glyph glyph-name="tilde" unicode="&#x2dc;" horiz-adv-x="1024" 
d="M193 1141q-1 6 -1.5 16.5t0 40.5t4.5 57t17 60.5t33 57.5t55.5 40.5t81.5 16.5q40 0 74.5 -15t58.5 -37t46 -44t45.5 -37t47.5 -15q30 0 51 13.5t30 33t13.5 39.5t4.5 34v13h94q1 -6 1.5 -16.5t-0.5 -41t-6 -58t-18.5 -61.5t-34 -58.5t-57 -41t-84.5 -16.5
q-39 0 -72.5 15t-56.5 37t-44 44t-44 37t-47 15q-31 0 -52 -13.5t-29.5 -32t-13 -37.5t-4.5 -33l1 -13h-94z" />
    <glyph glyph-name="hungarumlaut" unicode="&#x2dd;" horiz-adv-x="1024" 
d="M246 1038l-80 43l147 351l213 22v-55zM571 1038l-82 43l150 351l213 22v-55z" />
    <glyph glyph-name="Omega" unicode="&#x3a9;" horiz-adv-x="1591" 
d="M115 0l-76 365h70q24 -46 51 -76.5t53.5 -48t67 -26t76 -11t96.5 -2.5h26q-51 44 -89 79.5t-90.5 95.5t-86 116.5t-58 131t-24.5 148.5q0 178 88.5 320t241 220.5t338.5 78.5q188 0 339 -76t237.5 -216.5t86.5 -320.5q0 -42 -7.5 -84t-24.5 -82.5t-32.5 -73t-45 -72
t-47 -63t-53.5 -61t-50.5 -51.5t-51 -49t-42.5 -41h31q61 0 96.5 2.5t76 11t67 26t53.5 48t51 76.5h69l-75 -365h-553l-11 37q0 1 36 64t55 98.5t54.5 115t55 143t35.5 150.5t16 168q0 227 -99 366.5t-269 139.5q-173 0 -271 -137t-98 -375q0 -91 20 -186.5t56.5 -183.5
t65 -148t69 -131t45.5 -82l-16 -39h-553z" />
    <glyph glyph-name="pi" unicode="&#x3c0;" horiz-adv-x="1236" 
d="M66 696q95 236 303 236h798v-207h-182l-24 -25v-495q0 -69 12 -93t61 -24h78l6 -59q-121 -54 -227 -54q-87 0 -139 43.5t-52 120.5v586h-198l-25 -25v-20q-1 -86 -9 -175t-29 -186.5t-52.5 -172t-83 -123t-115.5 -48.5q-48 0 -78 26.5t-30 72.5q0 35 18 59t45.5 38.5
t57 28t56 35.5t38.5 52q23 60 45 173t22 245v20q-89 -2 -142.5 -17t-104.5 -57z" />
    <glyph glyph-name="Wgrave" unicode="&#x1e80;" horiz-adv-x="1953" 
d="M1317 6l-342 905l-295 -929l-119 24l-471 1186q-16 40 -44 68t-48 36l-21 9v61h115l293 8l8 -8q-20 -39 -24 -91t12 -97l262 -695q22 -59 37 -127l229 727l-39 109q-15 40 -43 68t-49 36l-20 9v61h114l293 8l9 -8q-19 -38 -23 -90.5t10 -97.5l240 -699q21 -68 33 -127
l247 774q26 68 6.5 112.5t-100.5 66.5v61h336l10 -39q-3 -2 -9 -5.5t-23.5 -19.5t-33.5 -37t-36 -60t-35 -87l-358 -1136zM725 1579v59l88 146h10l394 -232l-39 -84z" />
    <glyph glyph-name="wgrave" unicode="&#x1e81;" horiz-adv-x="1511" 
d="M399 2l-297 750q-18 46 -47.5 75.5t-50.5 36.5l-20 6v62h96q81 0 154 2t106 4l33 2l8 -8q-2 -4 -4.5 -10t-8 -27t-7.5 -42t1.5 -51t14.5 -59l133 -360q21 -65 37 -127l143 324q26 57 0 127l-18 45q-19 45 -46.5 74.5t-45.5 36.5l-17 7v62h86q81 0 154 2t106 4l33 2l8 -8
q-2 -4 -4.5 -10t-8 -27t-7.5 -42t1.5 -51t14.5 -59l133 -356q21 -65 37 -127l205 463q49 109 -109 147v62h297l11 -33q-23 -12 -66 -108l-362 -816l-123 27l-205 512l-240 -539zM492 1399v55l247 -22l156 -351l-82 -43z" />
    <glyph glyph-name="Wacute" unicode="&#x1e82;" horiz-adv-x="1953" 
d="M1317 6l-342 905l-295 -929l-119 24l-471 1186q-16 40 -44 68t-48 36l-21 9v61h115l293 8l8 -8q-20 -39 -24 -91t12 -97l262 -695q22 -59 37 -127l229 727l-39 109q-15 40 -43 68t-49 36l-20 9v61h114l293 8l9 -8q-19 -38 -23 -90.5t10 -97.5l240 -699q21 -68 33 -127
l247 774q26 68 6.5 112.5t-100.5 66.5v61h336l10 -39q-3 -2 -9 -5.5t-23.5 -19.5t-33.5 -37t-36 -60t-35 -87l-358 -1136zM782 1552l394 232h10l88 -146v-59l-453 -111z" />
    <glyph glyph-name="wacute" unicode="&#x1e83;" horiz-adv-x="1511" 
d="M399 2l-297 750q-18 46 -47.5 75.5t-50.5 36.5l-20 6v62h96q81 0 154 2t106 4l33 2l8 -8q-2 -4 -4.5 -10t-8 -27t-7.5 -42t1.5 -51t14.5 -59l133 -360q21 -65 37 -127l143 324q26 57 0 127l-18 45q-19 45 -46.5 74.5t-45.5 36.5l-17 7v62h86q81 0 154 2t106 4l33 2l8 -8
q-2 -4 -4.5 -10t-8 -27t-7.5 -42t1.5 -51t14.5 -59l133 -356q21 -65 37 -127l205 463q49 109 -109 147v62h297l11 -33q-23 -12 -66 -108l-362 -816l-123 27l-205 512l-240 -539zM764 1038l-82 43l156 351l247 22v-55z" />
    <glyph glyph-name="Wdieresis" unicode="&#x1e84;" horiz-adv-x="1953" 
d="M1317 6l-342 905l-295 -929l-119 24l-471 1186q-16 40 -44 68t-48 36l-21 9v61h115l293 8l8 -8q-20 -39 -24 -91t12 -97l262 -695q22 -59 37 -127l229 727l-39 109q-15 40 -43 68t-49 36l-20 9v61h114l293 8l9 -8q-19 -38 -23 -90.5t10 -97.5l240 -699q21 -68 33 -127
l247 774q26 68 6.5 112.5t-100.5 66.5v61h336l10 -39q-3 -2 -9 -5.5t-23.5 -19.5t-33.5 -37t-36 -60t-35 -87l-358 -1136zM602 1626q0 61 39.5 99t101.5 38t102 -38t40 -99q0 -60 -40 -97.5t-102 -37.5t-101.5 37.5t-39.5 97.5zM1116 1626q0 61 39.5 99t101.5 38t102 -38
t40 -99q0 -60 -40 -97.5t-102 -37.5t-101.5 37.5t-39.5 97.5z" />
    <glyph glyph-name="wdieresis" unicode="&#x1e85;" horiz-adv-x="1511" 
d="M399 2l-297 750q-18 46 -47.5 75.5t-50.5 36.5l-20 6v62h96q81 0 154 2t106 4l33 2l8 -8q-2 -4 -4.5 -10t-8 -27t-7.5 -42t1.5 -51t14.5 -59l133 -360q21 -65 37 -127l143 324q26 57 0 127l-18 45q-19 45 -46.5 74.5t-45.5 36.5l-17 7v62h86q81 0 154 2t106 4l33 2l8 -8
q-2 -4 -4.5 -10t-8 -27t-7.5 -42t1.5 -51t14.5 -59l133 -356q21 -65 37 -127l205 463q49 109 -109 147v62h297l11 -33q-23 -12 -66 -108l-362 -816l-123 27l-205 512l-240 -539zM557 1141q-62 0 -101.5 37.5t-39.5 97.5q0 61 39.5 99t101.5 38t101.5 -38t39.5 -99
q0 -60 -39.5 -97.5t-101.5 -37.5zM1020 1141q-62 0 -101.5 37.5t-39.5 97.5q0 61 39.5 99t101.5 38t101.5 -38t39.5 -99q0 -60 -39.5 -97.5t-101.5 -37.5z" />
    <glyph glyph-name="uni1E9E" unicode="&#x1e9e;" horiz-adv-x="1417" 
d="M49 -6v76q55 7 86 42t31 91v499q0 346 161.5 517.5t446.5 171.5q86 0 248 -12.5t201 -12.5l22 -63q-49 -50 -110 -138l-205 -297q82 -27 153 -66.5t134.5 -95t100 -132t36.5 -164.5q0 -80 -31.5 -157t-87.5 -139.5t-143 -100.5t-189 -38q-49 0 -100 9t-99.5 27t-79 50
t-30.5 74q0 40 29 69t67 29q33 0 56 -16t37 -39.5t28.5 -46.5t39 -39t58.5 -16q70 0 128.5 72t58.5 161q0 62 -27.5 117.5t-69.5 95t-99 73.5t-107.5 54.5t-104.5 36.5l-8 72q60 51 119 135l188 274l35 58q-100 63 -254 63q-168 0 -249 -137t-81 -414v-534q0 -27 -2.5 -55
t-5.5 -42l-2 -14l98 -18l-8 -68z" />
    <glyph glyph-name="Ygrave" unicode="&#x1ef2;" horiz-adv-x="1212" 
d="M338 -6v76q65 8 101 43t36 90v401l-377 610q-22 36 -49 58.5t-43 27.5l-16 5v61h108q81 0 153.5 2t104.5 4l33 2l8 -8q-4 -9 -9 -24t-5 -54t18 -69l226 -381q35 -64 57 -115l277 455q15 28 16.5 53t-23.5 45.5t-75 28.5v61h348l10 -39q-7 -3 -19.5 -9t-45 -36t-58.5 -72
l-364 -581v-426q0 -27 -3 -55t-5 -42l-3 -14l174 -18l-8 -68zM352 1579v59l88 146h11l393 -232l-39 -84z" />
    <glyph glyph-name="ygrave" unicode="&#x1ef3;" horiz-adv-x="966" 
d="M162 -276q95 0 156.5 45.5t103.5 142.5l18 45q-20 62 -63 162l-277 633q-20 45 -49.5 74.5t-48.5 36.5l-20 7v62h96q81 0 155.5 2t108.5 4l35 2l8 -8q-19 -38 -20 -91.5t16 -97.5l149 -364q19 -49 39 -121l199 465q21 55 -13.5 92.5t-99.5 54.5v62h301l11 -33
q-31 -28 -66 -108l-309 -723q-7 -15 -24.5 -56.5t-29 -67.5t-32.5 -70.5t-38 -75t-41.5 -71t-47 -68t-52 -57t-57.5 -47t-62 -29t-69 -11.5q-53 0 -82.5 29.5t-29.5 74.5q0 43 32.5 74t102.5 31zM233 1399v55l248 -22l156 -351l-82 -43z" />
    <glyph glyph-name="thinspace" unicode="&#x2009;" horiz-adv-x="30" 
 />
    <glyph glyph-name="endash" unicode="&#x2013;" 
d="M113 453v145h839v-145h-839z" />
    <glyph glyph-name="emdash" unicode="&#x2014;" horiz-adv-x="1863" 
d="M113 453v145h1638v-145h-1638z" />
    <glyph glyph-name="quoteleft" unicode="&#x2018;" horiz-adv-x="430" 
d="M68 1122q0 194 247 387l56 -65q-69 -67 -104.5 -119t-35.5 -100q0 -90 144 -162v-94l-191 -103q-116 124 -116 256z" />
    <glyph glyph-name="quoteright" unicode="&#x2019;" horiz-adv-x="430" 
d="M74 1313v94l190 102q117 -126 117 -256q0 -193 -248 -387l-55 66q68 66 103.5 118.5t35.5 100.5q0 91 -143 162z" />
    <glyph glyph-name="quotesinglbase" unicode="&#x201a;" horiz-adv-x="481" 
d="M88 115v94l191 102q116 -124 116 -256q0 -193 -248 -387l-55 66q68 66 103.5 118.5t35.5 100.5q0 91 -143 162z" />
    <glyph glyph-name="quotedblleft" unicode="&#x201c;" horiz-adv-x="819" 
d="M457 1122q0 193 248 387l55 -65q-68 -66 -103.5 -118.5t-35.5 -100.5q0 -91 143 -162v-94l-191 -103q-116 124 -116 256zM68 1122q0 194 247 387l56 -65q-69 -67 -104.5 -119t-35.5 -100q0 -90 144 -162v-94l-191 -103q-116 124 -116 256z" />
    <glyph glyph-name="quotedblright" unicode="&#x201d;" horiz-adv-x="819" 
d="M74 1313v94l190 102q117 -126 117 -256q0 -193 -248 -387l-55 66q68 66 103.5 118.5t35.5 100.5q0 91 -143 162zM463 1313v94l190 102q117 -126 117 -256q0 -193 -248 -387l-55 66q68 66 103.5 118.5t35.5 100.5q0 91 -143 162z" />
    <glyph glyph-name="quotedblbase" unicode="&#x201e;" horiz-adv-x="870" 
d="M88 115v94l191 102q116 -124 116 -256q0 -193 -248 -387l-55 66q68 66 103.5 118.5t35.5 100.5q0 91 -143 162zM477 115v94l191 102q116 -124 116 -256q0 -194 -247 -387l-56 66q69 67 104.5 119t35.5 100q0 90 -144 162z" />
    <glyph glyph-name="dagger" unicode="&#x2020;" horiz-adv-x="1077" 
d="M164 758q-50 0 -75.5 30.5t-25.5 67.5t25.5 68.5t75.5 31.5q24 0 134.5 -25.5t184.5 -33.5q-4 84 -31.5 207.5t-27.5 146.5q0 58 36.5 86.5t78.5 28.5q41 0 76.5 -28.5t35.5 -86.5q0 -23 -27.5 -146.5t-31.5 -207.5q74 8 185.5 33.5t135.5 25.5q50 0 75.5 -31.5
t25.5 -68.5t-25.5 -67.5t-75.5 -30.5q-24 0 -136 25t-185 32v-592q0 -95 29.5 -234.5t29.5 -158.5q0 -58 -35.5 -86.5t-76.5 -28.5q-42 0 -78.5 28.5t-36.5 86.5q0 19 30.5 158.5t30.5 234.5v592q-75 -8 -186 -32.5t-135 -24.5z" />
    <glyph glyph-name="daggerdbl" unicode="&#x2021;" horiz-adv-x="1077" 
d="M164 758q-50 0 -75.5 30.5t-25.5 67.5t25.5 68.5t75.5 31.5q24 0 134.5 -25.5t184.5 -33.5q-4 84 -31.5 207.5t-27.5 146.5q0 58 36.5 86.5t78.5 28.5q41 0 76.5 -28.5t35.5 -86.5q0 -23 -27.5 -146.5t-31.5 -207.5q74 8 185.5 33.5t135.5 25.5q50 0 75.5 -31.5
t25.5 -68.5t-25.5 -67.5t-75.5 -30.5q-24 0 -136 25t-185 32v-528q74 8 185.5 33.5t135.5 25.5q50 0 75.5 -31.5t25.5 -68.5t-25.5 -68t-75.5 -31q-24 0 -135.5 25t-185.5 33q2 -90 30.5 -222t28.5 -153q0 -58 -35.5 -86.5t-76.5 -28.5q-42 0 -78.5 28.5t-36.5 86.5
q0 21 29.5 153t31.5 222q-75 -8 -186.5 -33t-134.5 -25q-50 0 -75.5 31t-25.5 68t25.5 68.5t75.5 31.5q23 0 134.5 -25.5t186.5 -33.5v528q-75 -8 -186 -32.5t-135 -24.5z" />
    <glyph glyph-name="bullet" unicode="&#x2022;" horiz-adv-x="876" 
d="M438 213q-132 0 -221.5 89.5t-89.5 221.5t89.5 222t221.5 90t222 -90t90 -222t-90 -221.5t-222 -89.5z" />
    <glyph glyph-name="ellipsis" unicode="&#x2026;" horiz-adv-x="1644" 
d="M92 133q0 66 46.5 113t111.5 47q66 0 113 -47t47 -113q0 -65 -47 -111.5t-113 -46.5q-64 0 -111 46.5t-47 111.5zM664 133q0 66 46 113t111 47q66 0 113 -47t47 -113q0 -65 -47 -111.5t-113 -46.5q-64 0 -110.5 46.5t-46.5 111.5zM1235 133q0 66 46.5 113t111.5 47
q66 0 112.5 -47t46.5 -113q0 -65 -46.5 -111.5t-112.5 -46.5q-65 0 -111.5 46.5t-46.5 111.5z" />
    <glyph glyph-name="perthousand" unicode="&#x2030;" horiz-adv-x="2318" 
d="M70 1044q0 133 99 227.5t237 94.5t236.5 -94.5t98.5 -227.5t-98.5 -228t-236.5 -95t-237 95t-99 228zM238 1044q0 -74 50.5 -131t117.5 -57t117 57t50 131t-50 131.5t-117 57.5t-117.5 -57.5t-50.5 -131.5zM246 0l964 1389l90 -60l-923 -1329h-131zM827 299
q0 133 99 227.5t237 94.5t237 -94.5t99 -227.5t-99 -228.5t-237 -95.5t-237 95.5t-99 228.5zM995 299q0 -74 50.5 -131t117.5 -57t117.5 57t50.5 131t-50.5 131t-117.5 57t-117.5 -57t-50.5 -131zM1591 299q0 133 99 227.5t237 94.5t237 -94.5t99 -227.5t-99 -228.5
t-237 -95.5t-237 95.5t-99 228.5zM1759 299q0 -74 50.5 -131t117.5 -57t117.5 57t50.5 131t-50.5 131t-117.5 57t-117.5 -57t-50.5 -131z" />
    <glyph glyph-name="guilsinglleft" unicode="&#x2039;" horiz-adv-x="643" 
d="M53 514v8q35 25 102.5 91t340.5 343l73 -20q-100 -172 -162 -276.5t-73 -123.5l-12 -18q22 -34 247 -416l-73 -20q-262 267 -334 336.5t-109 95.5z" />
    <glyph glyph-name="guilsinglright" unicode="&#x203a;" horiz-adv-x="643" 
d="M74 102l248 416q-23 32 -248 418l73 20q273 -277 340.5 -343t102.5 -91v-8q-37 -26 -109 -95.5t-334 -336.5z" />
    <glyph glyph-name="fraction" unicode="&#x2044;" horiz-adv-x="264" 
d="M-190 0h-136l809 1403l107 -43z" />
    <glyph glyph-name="zerosuperior" unicode="&#x2070;" horiz-adv-x="776" 
d="M389 821q96 0 96 365q0 74 -3 129t-12.5 112t-29.5 88t-51 31t-52 -30.5t-30.5 -87.5t-12.5 -111.5t-3 -128.5q0 -367 98 -367zM379 756q-68 0 -122.5 23t-90.5 61.5t-60 92t-34.5 111.5t-10.5 123q0 68 11.5 130.5t38 120.5t64.5 100.5t95 68t127 25.5q68 0 122.5 -22.5
t90.5 -60.5t60 -90.5t34.5 -110.5t10.5 -122q0 -68 -11.5 -131.5t-38 -122t-64.5 -102t-95 -69t-127 -25.5z" />
    <glyph glyph-name="foursuperior" unicode="&#x2074;" horiz-adv-x="733" 
d="M27 985l-17 80l391 528l168 19q-6 -42 -6 -142v-380h139l-20 -105h-119v-80l-4 -61l115 -10l-4 -60l-418 -8v61q42 4 67 25.5t25 52.5v80h-317zM119 1090h225v294z" />
    <glyph glyph-name="fivesuperior" unicode="&#x2075;" horiz-adv-x="626" 
d="M254 756q-32 0 -63 4t-64.5 14t-54.5 31t-21 51q0 24 19.5 39.5t46.5 15.5q23 0 42 -9.5t31.5 -23.5t24 -28t26 -23.5t31.5 -9.5q43 0 74 41.5t31 99.5q0 48 -30.5 86.5t-73.5 59.5t-86.5 35t-74.5 18l-30 4l22 436h326q21 0 48 3.5t44 6.5l17 3l-23 -154h-342l-6 -113
q20 -3 45.5 -8t67.5 -17t80.5 -28t80.5 -41t72.5 -55t50 -73t19.5 -91q0 -108 -95.5 -191t-234.5 -83z" />
    <glyph glyph-name="sixsuperior" unicode="&#x2076;" horiz-adv-x="735" 
d="M47 1106q0 70 21.5 141t66 137t107 116.5t151 81t191.5 30.5l8 -64q-83 -6 -146 -44t-100 -99t-55.5 -133.5t-18.5 -153.5q0 -112 31 -205.5t84 -93.5q39 0 62.5 55.5t23.5 133.5q0 26 -3.5 58t-13 72t-31 64.5t-52.5 20.5l-4 71q24 6 61 6q124 0 197 -74t73 -173
q0 -51 -21.5 -102.5t-61.5 -95.5t-104 -71.5t-140 -27.5q-79 0 -142 29.5t-102.5 79t-60.5 111.5t-21 130z" />
    <glyph glyph-name="sevensuperior" unicode="&#x2077;" horiz-adv-x="634" 
d="M221 756q-28 0 -42.5 16t-14.5 39q0 24 19.5 54t53.5 71.5t52 71.5q60 98 143 292l45 105h-272q-57 0 -76.5 -11.5t-38.5 -64.5h-67l53 268h461q17 0 42 2.5t41 5.5l17 3l2 -47q-50 -90 -66 -127l-208 -478q-6 -13 -18.5 -41.5t-20 -46.5t-20.5 -41.5t-25 -37
t-27.5 -23.5t-32.5 -10z" />
    <glyph glyph-name="eightsuperior" unicode="&#x2078;" horiz-adv-x="720" 
d="M348 756q-72 0 -136 19t-110.5 65.5t-46.5 113.5q0 36 13.5 66.5t40 56t49.5 42t59 38.5q7 4 10 6q-141 110 -141 232q0 98 78.5 157.5t208.5 59.5q118 0 189 -47.5t71 -124.5q0 -22 -5 -41t-19.5 -37t-24 -29.5t-35.5 -30t-36 -25t-42 -26.5q44 -31 73 -55.5t60 -58
t46.5 -71t15.5 -77.5q0 -96 -89.5 -164.5t-228.5 -68.5zM356 821q55 0 88 26t33 75q0 15 -5 29.5t-17 29.5t-22.5 26.5t-32.5 28.5t-35 26.5t-41 29t-41 28.5q-62 -65 -62 -145q0 -73 35 -113.5t100 -40.5zM270 1464q0 -43 36.5 -82.5t105.5 -89.5q25 23 40 63t15 81
q0 54 -27.5 82t-72.5 28q-42 0 -69.5 -22t-27.5 -60z" />
    <glyph glyph-name="ninesuperior" unicode="&#x2079;" horiz-adv-x="729" 
d="M145 756l-8 63q83 6 146 44t100 99t55.5 133.5t18.5 153.5q0 112 -31 205.5t-84 93.5q-36 0 -58 -55.5t-22 -132.5q0 -25 3.5 -57t12.5 -72.5t29 -65t49 -20.5l4 -72q-24 -6 -61 -6q-120 0 -192 74.5t-72 173.5q0 51 21.5 102.5t60.5 95.5t102 71.5t137 27.5
q79 0 142 -29.5t102.5 -79t60.5 -111.5t21 -130q0 -70 -21.5 -141t-66 -137t-107 -116.5t-151 -81t-191.5 -30.5z" />
    <glyph glyph-name="n.sups" unicode="&#x207f;" horiz-adv-x="866" 
d="M51 604v58q80 8 80 88v335q0 54 -5.5 72.5t-31.5 18.5h-61v53q77 12 153.5 30.5t113.5 30.5l38 13l6 -7q-14 -30 -20 -145q104 129 243 129q81 0 129.5 -48t48.5 -149v-333l-6 -72l111 -14l-4 -52l-361 -8v58q58 8 58 88v280q0 68 -16 92.5t-54 24.5q-79 0 -139 -49v-348
l-6 -72l75 -16l-4 -50z" />
    <glyph glyph-name="zeroinferior" unicode="&#x2080;" horiz-adv-x="772" 
d="M387 -180q96 0 96 364q0 74 -3 129t-12.5 112.5t-29.5 88.5t-51 31t-52 -30.5t-30.5 -88t-12.5 -112t-3 -128.5q0 -366 98 -366zM377 -246q-84 0 -147.5 34.5t-99.5 94t-53.5 130.5t-17.5 153q0 85 19.5 162t58 141.5t105.5 102.5t153 38q68 0 122.5 -22.5t90.5 -60.5
t60 -90.5t34.5 -110t10.5 -121.5q0 -86 -19.5 -164t-58 -143.5t-105.5 -104.5t-153 -39z" />
    <glyph glyph-name="oneinferior" unicode="&#x2081;" horiz-adv-x="600" 
d="M53 -236v68l86 4q25 1 41 7.5t22.5 18t8.5 21.5t2 25v493q0 32 -5 46t-14.5 13.5t-23.5 -3.5l-123 -29l-18 74q116 29 220.5 58t150.5 44l46 14l7 -8q-17 -43 -17 -139v-563l-4 -62l162 -10l-6 -63z" />
    <glyph glyph-name="twoinferior" unicode="&#x2082;" horiz-adv-x="702" 
d="M55 -231l-18 63q11 11 44.5 43t44.5 43t37.5 37t38.5 39.5t30.5 33.5t31 36t23.5 32q82 122 82 221q0 73 -37.5 109.5t-95.5 36.5q-78 0 -152 -51l-45 51q5 6 14.5 16t41 35t65 44.5t84.5 35.5t102 16q101 0 176.5 -53.5t75.5 -146.5q0 -50 -20 -99t-75.5 -116.5
t-95.5 -109t-137 -137.5q-14 -15 -22 -22h223q56 0 79 23.5t42 85.5h67l-36 -266h-568z" />
    <glyph glyph-name="threeinferior" unicode="&#x2083;" horiz-adv-x="667" 
d="M268 -246q-38 0 -76 4.5t-78 14.5t-64.5 31t-24.5 51q0 24 20.5 39.5t46.5 15.5q33 0 57.5 -14.5t38 -32.5t35.5 -32.5t51 -14.5q39 0 70 55t31 121q0 70 -40 115t-110 45l-59 -7v82q168 31 168 176q0 42 -27 62t-69 20q-69 0 -125 -36l-41 53l11.5 11.5t32.5 26t52 33
t69.5 26t86.5 11.5q104 0 173.5 -42t69.5 -124q0 -72 -62.5 -127.5t-144.5 -85.5q111 -17 186 -79.5t75 -139.5q0 -106 -103.5 -182t-249.5 -76z" />
    <glyph glyph-name="fourinferior" unicode="&#x2084;" horiz-adv-x="731" 
d="M27 -16l-17 79l391 529l168 18q-6 -41 -6 -141v-381h139l-20 -104h-119v-80l-4 -62l115 -10l-4 -59l-418 -9v62q42 4 67 25.5t25 52.5v80h-317zM119 88h225v295z" />
    <glyph glyph-name="fiveinferior" unicode="&#x2085;" horiz-adv-x="626" 
d="M254 -246q-31 0 -62.5 4.5t-65 14.5t-54.5 31t-21 51q0 24 19.5 39.5t46.5 15.5q23 0 42 -9.5t31.5 -23.5t24 -28t26 -23.5t31.5 -9.5q43 0 74 41.5t31 99.5q0 48 -30.5 86.5t-73.5 59.5t-86.5 35t-74.5 18l-30 4l22 436h326q21 0 48 3t44 6l17 3l-23 -153h-342l-6 -113
q20 -3 45.5 -8t67.5 -17t80.5 -28t80.5 -41t72.5 -55t50 -73t19.5 -91q0 -108 -95.5 -191.5t-234.5 -83.5z" />
    <glyph glyph-name="sixinferior" unicode="&#x2086;" horiz-adv-x="731" 
d="M45 104q0 70 21.5 141t66 137t107 116.5t151 81t191.5 30.5l8 -63q-83 -6 -146 -44t-100 -99t-55.5 -133.5t-18.5 -153.5q0 -112 31 -205.5t84 -93.5q40 0 63 55t23 133q0 26 -3.5 58t-13 72t-31 64.5t-52.5 20.5l-4 72q24 6 61 6q124 0 197 -74.5t73 -173.5
q0 -51 -21.5 -102.5t-61.5 -95.5t-104 -71.5t-140 -27.5q-79 0 -142 29.5t-102.5 79t-60.5 111.5t-21 130z" />
    <glyph glyph-name="seveninferior" unicode="&#x2087;" horiz-adv-x="636" 
d="M221 -246q-28 0 -42.5 16t-14.5 40t19.5 53.5t53.5 70.5t52 72q59 96 143 293l45 104h-272q-58 0 -77 -11t-38 -64h-67l53 268h461q17 0 42 2.5t41 5.5l17 2l2 -47q-50 -90 -66 -127l-208 -477q-6 -14 -18.5 -42t-20 -46t-20.5 -42t-25 -37.5t-27.5 -23.5t-32.5 -10z" />
    <glyph glyph-name="eightinferior" unicode="&#x2088;" horiz-adv-x="720" 
d="M348 -246q-72 0 -136 19.5t-110.5 66t-46.5 113.5q0 36 13.5 66.5t40 56t49.5 42t59 38.5q7 4 10 6q-141 110 -141 231q0 98 78.5 157.5t208.5 59.5q118 0 189 -47.5t71 -124.5q0 -25 -9 -48t-20 -38t-35.5 -35t-39 -29.5t-47.5 -30.5q-7 -5 -11 -7q44 -31 73 -55.5
t60 -58t46.5 -71t15.5 -77.5q0 -96 -89.5 -165t-228.5 -69zM356 -180q55 0 88 25.5t33 74.5q0 15 -5 29.5t-17.5 30t-22.5 26.5t-32.5 28.5t-34.5 26.5t-41.5 29.5t-40.5 28.5q-62 -65 -62 -146q0 -73 35 -113t100 -40zM270 463q0 -43 36.5 -82.5t105.5 -89.5
q26 23 40.5 62.5t14.5 80.5q0 54 -27.5 82.5t-72.5 28.5q-42 0 -69.5 -22t-27.5 -60z" />
    <glyph glyph-name="nineinferior" unicode="&#x2089;" horiz-adv-x="724" 
d="M143 -246l-8 64q83 6 146 44t100 99t55.5 133.5t18.5 153.5q0 112 -31 205.5t-84 93.5q-35 0 -57.5 -56t-22.5 -133q0 -25 3.5 -57t12.5 -72.5t29 -65t49 -20.5l4 -71q-24 -6 -61 -6q-120 0 -192 74t-72 173q0 51 21.5 102.5t60.5 95.5t102 71.5t137 27.5q79 0 142 -29.5
t102.5 -79t60.5 -111.5t21 -130q0 -70 -21.5 -141t-66 -137t-107 -116.5t-151 -81t-191.5 -30.5z" />
    <glyph glyph-name="Euro" unicode="&#x20ac;" horiz-adv-x="1120" 
d="M68 406v92h102v45q0 26 4 84h-106v92h122q23 93 68 172.5t111.5 142t159 98t200.5 35.5q73 0 156 -16.5t129 -33.5l47 -17l-70 -234h-69q-3 100 -53.5 156.5t-139.5 56.5q-81 0 -140.5 -49t-91.5 -127.5t-44 -183.5h495l-26 -92h-476v-17q0 -56 9 -112h428l-27 -92h-383
q38 -131 121 -209t199 -78q56 0 113.5 14.5t87.5 28.5l30 14l31 -59q-5 -6 -15 -15.5t-44.5 -34t-72.5 -43t-98.5 -34t-124.5 -15.5q-110 0 -201.5 34t-154 94.5t-103.5 136.5t-59 166h-114z" />
    <glyph glyph-name="trademark" unicode="&#x2122;" horiz-adv-x="1552" 
d="M203 813v53q33 1 52 16.5t19 37.5v387h-57q-41 0 -64.5 -22.5t-50.5 -90.5h-51l27 176q37 -4 80 -4h409l84 4l-26 -176h-50q0 66 -21 89.5t-69 23.5h-65v-387l-4 -46l94 -8l-2 -49zM668 813v53q26 1 41.5 14.5t17.5 34.5l16 355q1 29 -9 39.5t-48 21.5v35h74l180 4l4 -4
q13 -37 27 -76l71 -203l15 -53l102 275l21 57h24l191 4l4 -4q-3 -4 -8.5 -11.5t-13 -34.5t-5.5 -58l19 -349q1 -10 -0.5 -21t-2.5 -16l-2 -6l87 -4l-5 -49l-297 -4v53q72 3 72 47l-14 373l-178 -471l-66 8l-168 461l-14 -369l-6 -45l88 -4l-4 -49z" />
    <glyph glyph-name="arrowleft" unicode="&#x2190;" horiz-adv-x="1292" 
d="M668 164q-335 341 -421.5 425.5t-131.5 115.5v10q42 29 125 110t428 432l92 -26q-111 -201 -254 -449h657v-145h-659q15 -27 46 -81t89 -155.5t121 -212.5z" />
    <glyph glyph-name="arrowup" unicode="&#x2191;" horiz-adv-x="1292" 
d="M575 164v704q-162 -96 -448 -254l-27 93q356 350 435 431t108 122h10q31 -45 115.5 -131.5t425.5 -421.5l-25 -93q-313 176 -448 256v-706h-146z" />
    <glyph glyph-name="arrowright" unicode="&#x2192;" horiz-adv-x="1292" 
d="M129 637v145h657q-87 147 -254 449l93 26q345 -351 428 -432t125 -110v-10q-45 -31 -131.5 -115.5t-421.5 -425.5l-93 24q213 378 256 449h-659z" />
    <glyph glyph-name="arrowdown" unicode="&#x2193;" horiz-adv-x="1292" 
d="M643 164q-29 41 -108 122t-435 431l27 92l448 -254v705h146v-707q95 56 448 256l25 -92q-341 -335 -425.5 -421.5t-115.5 -131.5h-10z" />
    <glyph glyph-name="partialdiff" unicode="&#x2202;" horiz-adv-x="1077" 
d="M49 432q0 83 27.5 160.5t79 140.5t134.5 101t185 38q148 0 246 -75q-3 143 -27.5 256.5t-60 180.5t-80.5 111t-84 60t-76 16q-39 0 -98.5 -32.5t-97.5 -32.5q-40 0 -66.5 22.5t-26.5 61.5q0 32 19 53t50 29t50 10t39 2q137 0 256.5 -44t206 -120t149.5 -176t94 -214
t31 -232q0 -57 -7 -121.5t-24.5 -140.5t-44 -147t-69 -138t-95 -116.5t-126.5 -79.5t-160 -30q-102 0 -185 41t-134 107.5t-78 146t-27 162.5zM455 66q80 0 141 94.5t91 237.5t34 313q-70 34 -127 34q-84 0 -151 -75t-99.5 -176.5t-32.5 -200.5q0 -100 37.5 -163.5
t106.5 -63.5z" />
    <glyph glyph-name="Delta" unicode="&#x2206;" horiz-adv-x="1290" 
d="M57 0v70l553 1296h92l521 -1296v-70h-1166zM219 123h723l-354 911z" />
    <glyph glyph-name="product" unicode="&#x220f;" horiz-adv-x="1552" 
d="M61 1260v106h1430v-106h-160l-24 -25v-1219q0 -27 -2.5 -54.5t-5.5 -41.5l-3 -14l185 -19l-8 -67l-588 -13v76q69 8 108 43t39 90v1244h-487l-25 -25v-1219q0 -27 -2.5 -54.5t-5.5 -41.5l-2 -14l184 -19l-8 -67l-588 -13v76q69 8 108.5 43t39.5 90v1244h-185z" />
    <glyph glyph-name="summation" unicode="&#x2211;" horiz-adv-x="1286" 
d="M55 -119l533 654l-520 774v57h1001l53 -322l-82 -14q-39 77 -63.5 115t-61 67.5t-80 38.5t-114.5 9h-291l401 -607l-493 -610h461q136 0 201.5 40t132.5 175h84l-97 -442h-737l-328 -6v71z" />
    <glyph glyph-name="minus" unicode="&#x2212;" 
d="M74 446v146h917v-146h-917z" />
    <glyph glyph-name="radical" unicode="&#x221a;" horiz-adv-x="1243" 
d="M16 778v144h402l211 -580l422 1192h155l-577 -1608h-4l-316 852h-293z" />
    <glyph glyph-name="infinity" unicode="&#x221e;" horiz-adv-x="1617" 
d="M418 172q-138 0 -237 99t-99 241t99 241t237 99q198 0 389 -234q196 234 393 234q138 0 237 -99t99 -241t-99 -241t-237 -99q-201 0 -393 234q-34 -42 -72 -79.5t-88 -74.5t-109.5 -58.5t-119.5 -21.5zM418 303q43 0 91 21.5t85.5 52.5t69 61.5t48.5 51.5l17 22
q-6 8 -17.5 22.5t-47 50.5t-70.5 63.5t-84 50t-92 22.5q-72 0 -129.5 -61.5t-57.5 -147.5t57.5 -147.5t129.5 -61.5zM887 512q6 -8 18 -22.5t47.5 -50.5t71 -63.5t84.5 -50t92 -22.5q72 0 129 61.5t57 147.5t-57 147.5t-129 61.5q-43 0 -91 -21.5t-86 -52.5t-69.5 -61.5
t-49.5 -51.5z" />
    <glyph glyph-name="integral" unicode="&#x222b;" horiz-adv-x="1148" 
d="M166 -295q49 0 101.5 -29.5t88.5 -29.5t52 18.5t27 108.5t11 280q0 73 -2 264t-2 254q0 502 120 732.5t358 230.5q172 0 172 -92q0 -48 -31 -72t-76 -24q-37 0 -92.5 29.5t-93.5 29.5q-22 0 -35 -9t-26.5 -40t-20 -102t-6.5 -185q0 -66 3 -227t3 -258q0 -383 -49 -615.5
t-155 -343t-282 -110.5q-75 0 -119 26t-44 74q0 42 30.5 66t67.5 24z" />
    <glyph glyph-name="approxequal" unicode="&#x2248;" 
d="M123 592l-78 113q59 59 140.5 102t164.5 43q59 0 113 -22.5t87.5 -49t77.5 -49t87 -22.5q62 0 122 31t105 79l80 -112q-57 -59 -139.5 -102.5t-167.5 -43.5q-59 0 -113 22.5t-87.5 49t-77.5 49t-87 22.5q-117 0 -227 -110zM123 205l-78 112q60 60 141 103t164 43
q49 0 92.5 -15t75.5 -36t62.5 -42t65 -36t69.5 -15q62 0 122 31.5t105 79.5l80 -113q-57 -59 -139.5 -102t-167.5 -43q-59 0 -113 22.5t-87.5 49t-77.5 49t-87 22.5q-117 0 -227 -110z" />
    <glyph glyph-name="notequal" unicode="&#x2260;" 
d="M84 621v143h541l149 250l103 -62l-113 -188h217v-143h-301l-127 -215h428v-144h-514l-154 -260l-102 61l117 199h-244v144h330l127 215h-457z" />
    <glyph glyph-name="lessequal" unicode="&#x2264;" 
d="M61 657v95l873 417l41 -145l-686 -319l686 -340l-41 -144zM61 0v145h918v-145h-918z" />
    <glyph glyph-name="greaterequal" unicode="&#x2265;" 
d="M129 221l-41 144l686 340l-686 319l41 145l872 -417v-95zM84 0v145h917v-145h-917z" />
    <glyph glyph-name="triagup" unicode="&#x25b2;" horiz-adv-x="1292" 
d="M131 301l-25 74q124 148 224.5 277.5t155.5 207.5t93 135t50 80l12 23h10q4 -8 13 -24t48.5 -78t93.5 -137.5t155 -205.5t225 -278l-25 -74q-115 38 -515 38t-515 -38z" />
    <glyph glyph-name="triagrt" unicode="&#x25ba;" horiz-adv-x="1292" 
d="M272 188q38 116 38 516t-38 515l74 24q236 -196 416.5 -329.5t243.5 -169.5l63 -35v-11q-8 -4 -24 -12.5t-78 -48.5t-137.5 -93.5t-205.5 -154.5t-278 -225z" />
    <glyph glyph-name="triagdn" unicode="&#x25bc;" horiz-adv-x="1292" 
d="M641 301q-4 8 -13 24t-48.5 78t-93.5 137.5t-155 205.5t-225 278l25 74q115 -38 515 -38t515 38l25 -74q-124 -148 -224.5 -277.5t-155.5 -207.5t-93 -135t-50 -80l-12 -23h-10z" />
    <glyph glyph-name="triaglf" unicode="&#x25c4;" horiz-adv-x="1292" 
d="M225 698v11q8 4 24 12.5t78 48.5t137.5 93.5t205.5 154.5t278 225l74 -24q-38 -115 -38 -515t38 -516l-74 -24q-236 196 -416.5 329.5t-243.5 168.5z" />
    <glyph glyph-name="lozenge" unicode="&#x25ca;" horiz-adv-x="1048" 
d="M504 -78l-445 821l445 799h41l442 -799l-442 -821h-41zM524 139l316 606l-318 580l-315 -580z" />
    <glyph glyph-name="Euro.uc" unicode="&#xe012;" 
d="M25 739v103h118q21 114 67.5 211.5t117 174t171.5 120t220 43.5q43 0 95 -7t85.5 -14t93.5 -21t80 -18l-96 -289h-82q14 92 -42 173t-155 81q-63 0 -115 -37t-87 -100.5t-56.5 -144t-29.5 -172.5h505l-32 -103h-477q0 -79 8 -139h426l-33 -102h-375q41 -174 140.5 -274.5
t248.5 -100.5q48 0 100 10.5t79 21.5l28 11l29 -57q-6 -5 -17 -14.5t-48.5 -32.5t-78.5 -40.5t-104.5 -32t-128.5 -14.5q-112 0 -207 41.5t-161 113.5t-109 165.5t-62 202.5h-116v102h104q-2 20 -2 62q0 50 2 77h-104z" />
    <glyph glyph-name="cent.uc" unicode="&#xe028;" 
d="M520 0l10 227q-103 7 -185.5 46.5t-134 101.5t-78 138.5t-26.5 160.5q0 86 30.5 168t87 149.5t147 110.5t200.5 47l11 242h102l-12 -248q66 -10 123.5 -30t100 -56t42.5 -80q0 -46 -25 -72t-69 -26q-35 0 -63.5 22t-62.5 66t-50 59l-29 -645h18q131 0 263 100l28 -57
q-4 -7 -12.5 -18t-37.5 -41t-63 -54t-88.5 -48t-113.5 -32l-10 -231h-103zM385 776q0 -108 41 -208.5t113 -149.5l28 649q-89 -7 -135.5 -89t-46.5 -202z" />
    <glyph glyph-name="dollar.uc" unicode="&#xe02c;" 
d="M90 193q0 40 62 229h79q0 -132 68 -216t170 -106l14 449q-155 84 -218 132q-165 131 -167 306q0 154 111.5 257.5t302.5 113.5l8 211h103l-9 -211q65 -2 126.5 -9t117 -16.5t78.5 -11.5l-66 -324h-79q-8 211 -181 260l-14 -436q50 -26 77.5 -40.5t73.5 -42.5t72.5 -50
t59.5 -56.5t51 -68.5t30.5 -78.5t12.5 -93.5q0 -90 -32.5 -161.5t-89 -117.5t-128.5 -72t-156 -32l-6 -211h-102l6 209q-101 4 -182.5 24t-137 62t-55.5 101zM330 1075q0 -61 42.5 -108t123.5 -93l14 392q-75 -6 -127.5 -59.5t-52.5 -131.5zM741 293q0 59 -40.5 106
t-116.5 93l-13 -396q73 11 121.5 61t48.5 136z" />
    <glyph glyph-name="dotlessi.smcp" unicode="&#xe033;" horiz-adv-x="649" 
d="M86 -6v67q54 8 83.5 39t29.5 82v627q0 27 -0.5 39t-4 28t-10 22.5t-20.5 16t-33 15t-49 12.5v55h125q98 0 172.5 2.5t99.5 4.5l25 2l8 -9q-5 -9 -13.5 -26t-22 -77t-13.5 -128v-584q0 -24 -2.5 -49t-4.5 -38l-3 -13l147 -16l-8 -62z" />
    <glyph glyph-name="florin.uc" unicode="&#xe039;" 
d="M117 692v103h274q28 188 74 320.5t112 213.5t147.5 117.5t186.5 36.5q91 0 148 -24.5t57 -78.5q0 -40 -30.5 -64t-73.5 -24q-50 0 -115 37t-102 37q-26 0 -39.5 -12t-29 -74.5t-28.5 -167.5t-36 -317h309l-33 -103h-287l-4 -43q-24 -224 -60 -389t-82.5 -275.5
t-109.5 -177t-135 -94.5t-166 -28q-92 0 -148.5 24.5t-56.5 77.5q0 40 31 64t74 24q50 0 115 -37t102 -37q29 0 43 15.5t33 109.5t36 246.5t50 476.5q0 15 4 43h-260z" />
    </font>
</defs>
</svg>
