<?xml version="1.0" standalone="no"?>
<!DOCTYPE svg PUBLIC "-//W3C//DTD SVG 20010904//EN"
   "http://www.w3.org/TR/2001/REC-SVG-20010904/DTD/svg10.dtd">

<svg xmlns="http://www.w3.org/2000/svg" xmlns:xlink="http://www.w3.org/1999/xlink">
   <g id="cvpage1_top" width="1224px" height="1224px" transform="translate(0,0)">
      <!-- Number 2 -->
      <path d="M 817.368 113.07 C 817.368 113.07 855.366 113.07 855.366 113.07 C 855.366 113.07 855.366 103.308 855.366 103.308 C 855.366 103.308 839.995 103.308 839.995 103.308 C 843.947 100.696 847.37 97.913 850.427 94.827 C 853.485 91.741 855.059 88.29 855.226 84.311 C 855.168 80.283 853.483 77.023 850.089 74.374 C 846.696 71.726 842.092 70.385 836.056 70.287 C 830.273 70.519 825.781 71.425 822.365 73.049 C 818.949 74.672 817.241 75.579 817.161 75.81 C 817.161 75.81 823.079 83.96 823.079 83.96 C 823.19 83.839 824.199 83.365 826.154 82.516 C 828.11 81.666 830.269 81.192 832.734 81.071 C 835.023 81.1 836.658 81.582 837.717 82.537 C 838.777 83.493 839.288 84.707 839.274 86.237 C 839.006 88.871 837.169 91.649 833.676 94.703 C 830.183 97.757 826.771 100.328 823.279 102.539 C 819.786 104.75 817.949 105.881 817.68 105.986 C 817.68 105.986 817.368 113.07 817.368 113.07 Z" fill="none" stroke="#FFFFFF" stroke-width="1px" />
      <!--fill="#FFFFFF" fill-rule="nonzero"-->
      
      <!-- Letter i fill -->
      <path d="M 800.331 114.08 C 800.331 114.08 826.023 113.579 826.023 113.579 C 826.023 113.579 826.939 110.823 826.939 110.823 C 826.939 110.823 820.155 110.048 820.155 110.048 C 820.182 110.014 820.348 109.555 820.663 108.648 C 820.978 107.741 821.271 106.626 821.556 105.249 C 821.556 105.249 826.14 81.435 826.14 81.435 C 826.845 77.944 827.448 75.464 827.981 73.875 C 828.513 72.287 828.787 71.522 828.814 71.547 C 828.814 71.547 828.384 71.282 828.384 71.282 C 828.072 71.419 825.661 72.063 821.038 73.246 C 816.414 74.428 811.622 75.29 806.433 75.872 C 806.433 75.872 805.876 78.769 805.876 78.769 C 805.876 78.769 808.959 78.769 808.959 78.769 C 810.309 78.787 811.029 79.298 811.153 80.324 C 811.277 81.35 811.141 82.735 810.738 84.545 C 810.738 84.545 806.752 105.249 806.752 105.249 C 806.448 106.874 805.829 108.159 804.867 109.163 C 803.905 110.167 802.612 110.766 800.926 110.99 C 800.926 110.99 800.331 114.08 800.331 114.08 M 820.956 65.493 C 823.508 65.469 825.596 64.841 827.322 63.581 C 829.047 62.321 830.113 60.628 830.57 58.422 C 830.963 56.212 830.552 54.504 829.317 53.218 C 828.081 51.932 826.237 51.291 823.695 51.263 C 821.189 51.291 819.125 51.932 817.405 53.218 C 815.685 54.504 814.62 56.212 814.16 58.422 C 813.77 60.628 814.18 62.321 815.41 63.581 C 816.641 64.841 818.46 65.469 820.956 65.493 C 820.956 65.493 820.956 65.493 820.956 65.493 " fill="#FFFFFF" fill-rule="evenodd" stroke="none" />
      <!-- Letter i outline -->
      <!-- <path d="M 800.331 114.08 C 800.331 114.08 826.023 113.579 826.023 113.579 C 826.023 113.579 826.939 110.823 826.939 110.823 C 826.939 110.823 820.155 110.048 820.155 110.048 C 820.182 110.014 820.348 109.555 820.663 108.648 C 820.978 107.741 821.271 106.626 821.556 105.249 C 821.556 105.249 826.14 81.435 826.14 81.435 C 826.845 77.944 827.448 75.464 827.981 73.875 C 828.513 72.287 828.787 71.522 828.814 71.547 C 828.814 71.547 828.384 71.282 828.384 71.282 C 828.072 71.419 825.661 72.063 821.038 73.246 C 816.414 74.428 811.622 75.29 806.433 75.872 C 806.433 75.872 805.876 78.769 805.876 78.769 C 805.876 78.769 808.959 78.769 808.959 78.769 C 810.309 78.787 811.029 79.298 811.153 80.324 C 811.277 81.35 811.141 82.735 810.738 84.545 C 810.738 84.545 806.752 105.249 806.752 105.249 C 806.448 106.874 805.829 108.159 804.867 109.163 C 803.905 110.167 802.612 110.766 800.926 110.99 C 800.926 110.99 800.331 114.08 800.331 114.08 Z" fill="none" stroke="#00573F" stroke-width="0.1px" /> -->
      
      <!-- Unknown -->
      <path d="M 820.956 65.493 C 823.508 65.469 825.596 64.841 827.322 63.581 C 829.047 62.321 830.113 60.628 830.57 58.422 C 830.963 56.212 830.552 54.504 829.317 53.218 C 828.081 51.932 826.237 51.291 823.695 51.263 C 821.189 51.291 819.125 51.932 817.405 53.218 C 815.685 54.504 814.62 56.212 814.16 58.422 C 813.77 60.628 814.18 62.321 815.41 63.581 C 816.641 64.841 818.46 65.469 820.956 65.493 C 820.956 65.493 820.956 65.493 820.956 65.493 Z" fill="none" stroke="#00573F" stroke-width="0.1px" />
      <!--<rect x="810.524px" y="51.263px" width="38.589px" height="17.302px" fill="#FFF" fill-rule="nonzero" stroke="#FFF" stroke-width="0.5px" />-->
      
      <!-- Top of Letter i -->
      <!--<ellipse cx="820.294px" cy="59.309px" rx="7.698px" ry="9.216px" transform="rotate(191.427,820.294,59.309)" fill="#FFF" fill-rule="nonzero" stroke="none" />-->
      
      <!-- Text -->
      <g transform="translate(935.057,101.888)" font-size="16px" fill="#FFFFFF" font-family="Calluna">
         <text x="0px" y="4px">
            P R O G R A M
         </text>
      </g>
      <g transform="translate(859.599,73.65)" font-size="28px" fill="#FFFFFF" font-family="Calluna">
         <text x="0px" y="7px">
            Inquiry &amp; Innovation
         </text>
      </g>
   </g>
</svg>